<mxfile host="app.diagrams.net" modified="2024-02-05T12:45:30.173Z" agent="Mozilla/5.0 (Macintosh; Intel Mac OS X 10_15_7) AppleWebKit/537.36 (KHTML, like Gecko) Chrome/121.0.0.0 Safari/537.36" etag="ROjXF2h7d8fz6lt8bqvf" version="23.1.1" type="github">
  <diagram name="第 1 页" id="zL-Nopx1Qlo0L3n0Xj1h">
    <mxGraphModel dx="1420" dy="1072" grid="1" gridSize="10" guides="1" tooltips="1" connect="1" arrows="1" fold="1" page="1" pageScale="1" pageWidth="827" pageHeight="1169" math="0" shadow="0">
      <root>
        <mxCell id="0" />
        <mxCell id="1" parent="0" />
        <mxCell id="Fc5BUolO-CwJReULyjlg-2" value="" style="shape=image;verticalLabelPosition=bottom;labelBackgroundColor=default;verticalAlign=top;aspect=fixed;imageAspect=0;image=data:image/png,iVBORw0KGgoAAAANSUhEUgAAAwwAAAL7CAYAAABQnwJuAAAK12lDQ1BJQ0MgUHJvZmlsZQAASImVlwdUU9kWhs+96Y0WQEBK6B3pBJASeujSQVRCEkgoIaagIioigyMwFlREQB3RQREFR0dAxoKIYhsUG/YBGRSUcbCABZW5gUeYmbfee+vttc49X/bdZ5+9z7pnrT8AUIJYQmEWrARAtkAiigr0oSUkJtFwQwAGGKAKTAGaxRYLGZGRoQCxmfnvNn4XQLL5lrUs17+//6+mwuGK2QBAyQincsTsbITbkTHCFookAKAOI37DZRKhjG8grCpCCkT4NxmnT/MHGadOMZo8FRMT5YswDQA8mcUSpQNAtkL8tFx2OpKHLOvBVsDhCxDOR9iTzWNxED6FsFV2do6MhxA2Q+KFAFCQ0wH01L/kTP9b/lR5fhYrXc7TfU0Z3o8vFmaxVvyfR/O/LTtLOrOHCTLIPFFQlKx/5PzuZeaEyFmQGh4xw3zOVPwU86RBsTPMFvsmzTCH5RciX5sVHjrDafwApjyPhBkzw1yxf/QMi3Ki5HuliXwZM8wSze4rzYyV+3lcpjx/Hi8mfoZz+XHhMyzOjA6ZjfGV+0XSKHn9XEGgz+y+AfLes8V/6ZfPlK+V8GKC5L2zZuvnChizOcUJ8to4XD//2ZhYebxQ4iPfS5gVKY/nZgXK/eLcaPlaCfJxzq6NlJ9hBis4coZBGOADGvLMAQKEJMgsknCXS2SN+OYIV4j46TwJjYHcNi6NKWDbWNHsbe0dAZDd3enP4e29qTsJqeNnfQXKALjLeh6Z9cVcB6DxHQDKD2Z9+uMAqHUC0M5jS0W50z607IEBRKCIVKgJdIEhMAPWwB44A3fgDfxBMIgAMSARLAZswAPZQASWgXywFhSDUrAZbAdVYA/YBw6CI+AYaAGnwDlwEVwFN8Ad8BD0gUHwEoyCcTABQRAOokBUSBPSg4whS8geokOekD8UCkVBiVAKlA4JICmUD62DSqFyqAraC9VDP0InoXPQZagHug/1Q8PQG+gTjILJsCqsA5vA82A6zIBD4Bh4EZwOL4Xz4CJ4I1wJ18KH4Wb4HHwVvgP3wS/hMRRAkVDqKH2UNYqO8kVFoJJQaSgRajWqBFWBqkU1otpQXahbqD7UCOojGoumomloa7Q7Oggdi2ajl6JXo8vQVeiD6GZ0J/oWuh89iv6KoWC0MZYYNwwTk4BJxyzDFGMqMHWYE5gLmDuYQcw4FotVx5piXbBB2ERsBnYltgy7C9uEbcf2YAewYzgcThNnifPAReBYOAmuGLcTdxh3FncTN4j7gCfh9fD2+AB8El6AL8RX4A/hz+Bv4p/jJwhKBGOCGyGCwCGsIGwi7Ce0Ea4TBgkTRGWiKdGDGEPMIK4lVhIbiReIj4hvSSSSAcmVtIDEJxWQKklHSZdI/aSPZBWyBdmXnEyWkjeSD5DbyffJbykUignFm5JEkVA2Uuop5ylPKB8UqAo2CkwFjsIahWqFZoWbCq8UCYrGigzFxYp5ihWKxxWvK44oEZRMlHyVWEqrlaqVTir1Ko0pU5XtlCOUs5XLlA8pX1YeUsGpmKj4q3BUilT2qZxXGaCiqIZUXyqbuo66n3qBOqiKVTVVZapmqJaqHlHtVh1VU1FzVItTW65WrXZarU8dpW6izlTPUt+kfkz9rvqnOTpzGHO4czbMaZxzc857jbka3hpcjRKNJo07Gp80aZr+mpmaWzRbNB9robUstBZoLdParXVBa2Su6lz3uey5JXOPzX2gDWtbaEdpr9Tep31Ne0xHVydQR6izU+e8zoiuuq63bobuNt0zusN6VD1PPb7eNr2zei9oajQGLYtWSeukjepr6wfpS/X36nfrTxiYGsQaFBo0GTw2JBrSDdMMtxl2GI4a6RmFGeUbNRg9MCYY0415xjuMu4zfm5iaxJusN2kxGTLVMGWa5pk2mD4yo5h5mS01qzW7bY41p5tnmu8yv2EBWzhZ8CyqLa5bwpbOlnzLXZY9VhgrVyuBVa1VrzXZmmGda91g3W+jbhNqU2jTYvNqntG8pHlb5nXN+2rrZJtlu9/2oZ2KXbBdoV2b3Rt7C3u2fbX9bQeKQ4DDGodWh9eOlo5cx92O95yoTmFO6506nL44uziLnBudh12MXFJcalx66ar0SHoZ/ZIrxtXHdY3rKdePbs5uErdjbn+4W7tnuh9yH5pvOp87f//8AQ8DD5bHXo8+T5pniuf3nn1e+l4sr1qvp96G3hzvOu/nDHNGBuMw45WPrY/I54TPe18331W+7X4ov0C/Er9ufxX/WP8q/ycBBgHpAQ0Bo4FOgSsD24MwQSFBW4J6mTpMNrOeORrsErwquDOEHBIdUhXyNNQiVBTaFgaHBYdtDXsUbhwuCG+JABHMiK0RjyNNI5dG/rwAuyByQfWCZ1F2UflRXdHU6CXRh6LHY3xiNsU8jDWLlcZ2xCnGJcfVx72P94svj+9LmJewKuFqolYiP7E1CZcUl1SXNLbQf+H2hYPJTsnFyXcXmS5avujyYq3FWYtPL1FcwlpyPAWTEp9yKOUzK4JVyxpLZabWpI6yfdk72C853pxtnGGuB7ec+zzNI608bSjdI31r+jDPi1fBG+H78qv4rzOCMvZkvM+MyDyQOZkVn9WUjc9OyT4pUBFkCjpzdHOW5/QILYXFwr6lbku3Lx0VhYjqxJB4kbhVooqIpGtSM+k30v5cz9zq3A/L4pYdX668XLD82gqLFRtWPM8LyPthJXole2VHvn7+2vz+VYxVe1dDq1NXd6wxXFO0ZrAgsODgWuLazLW/FNoWlhe+Wxe/rq1Ip6igaOCbwG8aihWKRcW9693X7/kW/S3/2+4NDht2bvhawim5UmpbWlH6uYxdduU7u+8qv5vcmLaxe5Pzpt2bsZsFm+9u8dpysFy5PK98YGvY1uZttG0l295tX7L9coVjxZ4dxB3SHX2VoZWtO412bt75uYpXdafap7qpRrtmQ837XZxdN3d7727co7OndM+n7/nf39sbuLe51qS2Yh92X+6+Z/vj9nf9QP+hvk6rrrTuywHBgb6DUQc7613q6w9pH9rUADdIG4YPJx++ccTvSGujdePeJvWm0qPgqPToix9Tfrx7LORYx3H68cafjH+qOUE9UdIMNa9oHm3htfS1Jrb2nAw+2dHm3nbiZ5ufD5zSP1V9Wu30pjPEM0VnJs/mnR1rF7aPnEs/N9CxpOPh+YTztzsXdHZfCLlw6WLAxfNdjK6zlzwunbrsdvnkFfqVlqvOV5uvOV078YvTLye6nbubr7tcb73heqOtZ37PmZteN8/d8rt18Tbz9tU74Xd67sbevdeb3Nt3j3Nv6H7W/dcPch9MPCx4hHlU8ljpccUT7Se1v5r/2tTn3He636//2tPopw8H2AMvfxP/9nmw6BnlWcVzvef1Q/ZDp4YDhm+8WPhi8KXw5cRI8e/Kv9e8Mnv10x/ef1wbTRgdfC16Pfmm7K3m2wPvHN91jEWOPRnPHp94X/JB88PBj/SPXZ/iPz2fWPYZ97nyi/mXtq8hXx9NZk9OClki1pQUQCEDTksD4M0BRBsnAkBFdDlx4bS2njJo+v/AFIH/xNP6e8qcATjiDUBkAQBMZN6HuAzakbzIiER+x3gD2MFBPv5l4jQH++lcpBZEmlRMTr5FtCPOHIAvvZOTEy2Tk1/qkGIfIDpmfFrTy4xVD4CjTIuBR4W3C8A/bFrv/6XHf85AVoEj+Of8J3J5G/9p/e6+AAAAOGVYSWZNTQAqAAAACAABh2kABAAAAAEAAAAaAAAAAAACoAIABAAAAAEAAAMMoAMABAAAAAEAAAL7AAAAAG2eKEMAAEAASURBVHgB7J0HfFVF9sd/6T0kkITQO0jvVamCUlXsimAHUbG766qrq7t/d3XXgkq10AUEK1jpTQHpRXoLJIH03sv/nPsyN/e9vJf6Et5Lznw+LzN35kz73vte5tyZM+NSSA4O6lLT0hDg7++grZNmXS0C8lxcLfKOX688G8X3aM68xZg+bUpxRB0OyXNRh29+KV2X56IUOHU4qSLPBQ+gh8x7s0K0ujXvgLu69MErPy7T8rm4uOD+/iMxrm0XpGRnwdPdHW9sXoPT0efhQhIfT3wE3cIaIz03R6/nkwO/4at9W7XrxvXD8Z8bbkNOXj68PDzw6oZvcCHmkpbm5uqG5ffOwNM/rkB0wmU9PwcC/QKx/M7pePCbzxGTFIvSZFneRRQGxiDOmQhU5MvsTP2StladgDwbxQxFYShmIc9FMQsJFROQ56KYhYSKCVTkuaiMwlBck3mIFQdvTx9kZmeYJ5TzKoAUgNT0lHJKm8S4zvLOG7hWqGQRFgJCQAgIAacgILMLTnGbpJFCQAgIAY0AD9wrqyxwARVVFjhPeZUFlhWFgSmIEwJCQAgIASEgBISAEBACQsAqAVEYrGKRSCEgBISAEBACQkAICAEhIASYgLtgEAJCQAgIASEgBISAEBACQqBiBMgQGF98v6timZxUWmYYnPTGSbOFgBAQAkJACAgBISAEhEBNEBCFoSYoSx1CQAgIASEgBISAEBACQsBJCYjC4KQ3TpotBISAECiNAG+rKk4ICAEhIASchABtceri41e5xrpS3uAGtJWRHYb1Hp5w8fIq0Q6xYSiBRCKEgBAQAkJACAgBISAEhIB9Cbg1aopGsz9GxoFDSHjjNb1w35tuRb1bb0ZBahrg4Y74d95F3tmTerqLpzcCH52GwDGjcOnuSShMS9bTfG4Yh+DJdyM3PgHuQUGIf/cD5Bzer6drAVICGn74ITzDw3Fx4i3maYarwEenw3dAX95vFZkHDiN51kwtzCJ2UEUMNUlQCAgBISAEhIAQEAJCQAgIAXMC9PY/+KmnkPLTL2bxbs1aImDMDbg8fTquzHgCSQuXInj6Y7qMS1ADhM38AHkxMUBunh7PAbdmrRE86S5Ez3gasc/Q5/U30OD5Z0rMVPjfficy9x80y2t54X3tMHhd0x6Xp02lzzR4hDeEz6gxJjGa/RCFwZKYXAsBISAEhIAQEAJCQAgIATsS8B48HPlJScj6Y49ZqQWJCYh99e8ozDSd8Jx/ORquvt66jCstD0qY+THSV6+gF/8FFM/nS5ucV5fOSN+9F4VJCVpEXsQ5FGRkwqtnHyUCt4aN4T98KFJXrNDjrAV8hw5GyqqvgTxSSvLzKLwKfoOv00VlSZKOQgJCQAgIASEgBISAEBACQsDOBGjQH3TfPYh5+VW4N21mVnhhWgotMaLZgvAmcAtriMC77kTSki90mfwrUeAP6C0//Sn6mJILkpLh1qC+LssBzxbNSEkI0+MCH3oISYupvJwsPa5EgMr2aBwOVlaUy6OwR9PGpktaoiQzDIqM+EJACAiBWkRg+rQptag30hUhIASEgPMS8Bt7E9J/24WC2Ms2O+E3YQLqPzkdBZmZyD17xqacMSH7yCF4t28D35tvo+VJrRDw8FTkJyTQkiQfTcy93TVwDwtF1o7NxmxWw271g1FAyotyhWlpcKc45URhUCTEFwJCQAgIASEgBISAEBACdiTg4h+IwJvGIW3VylJLTflkLi5PfRTp6zYg9I3XS5VViYWpSTRr8Rq8O3dEyEsvojAlBambtyHv8hVtRiLo4YeQ/PlC3XBZ5bPm58UlwDXQoCAE1ENuTKxJlGZIZEmSNWoSJwSEgBAQAkJACAgBISAEqkjAo3NXuAXVQ8P339NKcvXxhqufH9z++y5iX3we7i3aoJDsBvIjL2jp2Xt+g/tzM+AaEoaCODJ0Ls25uSMv+hIS3vqXSYqWFoX8+21k/fY7WFHx6doZ7k89YUrjLVc9PRD+6WeI+etLKIgvUgY4lZYc5UZGwb1ZM9qd6YQm70bh3EjTEiV3Wi4lCoMJo/wVAkJACAgBISAEhIAQEAJ2JZB7cB+in3hKL9Ozazf4jRiORKVAkN1CvTtvQ9yrL6MwOxvurdtrsgUJcXoeWwG38KZo+NabVP6TZAeRAs/uveFGykjuqWNAQQGiHjXstuTji0bvvo3Y1/6BguRE2ifVDd7DRiJr60YydM7VZjaCHrivaPmSCwJvvw1pa37Qqs6LuiQKg62bIPFCQAgIASEgBISAEBACQqAqBAqzMpEfdVEvIr9hI9rJKIMMjMmQmVzO3p3I6ngNwufPp3MY0uFC5zDEvP5PbcCvZ7IRyI88j+Rv16DRvLnaDkxsFB3/zv9MOx1RHmO9LqQw8AZLKs6lfggaPPYwLh//U4vL2bcLmb16oNEnn2q7MWXuPYis7ZtMNefmwKWQnI12XPXoVDK4CPD3v+rtkAY4FgF5LhzrfjhSa+TZcKS74ThtkefCce6FI7VEngtHuhuO05YKPRc0hL44frx9Gk9Lhlx8/bWZggoX6OkJV1qCVJ5ZCbOy6YRoFJirAS5etKUrzT4UZqabi5pdyYUQEAJCQAjUCgJz5i2uFf2QTggBISAE6gQBWkLEy4oq5XJyKq4scEUWygJHFWZnlVAWOF52SWIK4oSAEBACQkAICAEhIASEgBCwSkAUBqtYJFIICAEhIASEgBAQAkJACAgBJiC7JMlzIASEgBAQAkJACAgBISAEKkigkIyM5/a4roK5nFNcZhic875Jq4WAEBACQkAICAEhIASEQI0QEIWhRjBLJUJACAiBmiUwfdqUmq1QahMCQkAICIFaS0AUhlp7a6VjQkAICAEhIASEgBAQAk5BgEbkXt60pWklnAud8BxYLxAubrRNqhXn6eUJH18fKyklo3x8fOBNp1FbOrFhsCQi10JACAgBISAEhIAQEAJCwM4EQsIaYMYTD+P8+QgsWLBCL33wkAEYOKAPsrKy4ObuhlWr1uDSRdPBbizkSecsTJgwCr16dcNbb81EenqGnnfAgN4YNvxapKakwj/AH19//QNOnTyrpbu5ueGOOyYgPDyMz3RDSnIqli77Gjl0orSl8/PzxX2Tb4cPKQueHp6IiLiE1V+vRV5OniYqMwyWxORaCAgBISAEhIAQEAJCQAjYkwCNuCfePAZ79x00KzW8URj69O6OmR9+gg8//BQbNmzDuHGjdJmAQH88/sQDSExKRn5+vh7PgfDGDTFs2CDMnr0As2YtwOIlq3DrreP0GYKevbqClYYPPpiPD2bOR15eHvr27W5WhrqYOHEMzp65gA/en493/vexFj3kugEqWc5h0ElIQAgIASEgBISAEBACQkAIVAOBXj27ISMjAydPnjErPSUlDQsWrUB2lumtf3x8IrxpCZFyvJzou+9/waaN21FIJ0sbz2Vu3bI5Tp06q80csHx05GWtnA4d2mjZY2LjsG7DVlNRBcClyGgEB9czXVv8bdmqOXbv2a/LHjh4FH369NClZIZBRyEBISAEhIAQEAJCQAgIASFgXwIenh4YTsuGfvp5U4mCM2h5UVJCMni5Urv2rTFm9Ahs3LRdl4uPTcA5evNvci68skh3aenpCKBlSMqRKQNCQxsgOMikFEScv4SYy7FaMts5dOzYnhSMc0rczE9Py0BgQIAeVz84CIGBdF2kKYjCoKORgBAQAkKg9hCYM29x7emM9EQICAEh4MQErh3UF8ePn0ICzR7YcgPJFmHChBuQk5ODqKgrtsTM4s+cPo9GjRpiyNAB2vKk8eNvQGpaOnhWwtJdP3Iw0lLTcOL4acsk7frgoaO4+aYb0aJlU7SnGYouXa/R4t1dTebOojBYxSaRQkAICAEhIASEgBAQAkKgagR4d6J+/XrRkqIdpRa05vtf8d67c7F//xFMvu+OUmVVIhs/L1z8JZo3a4K77riJljxl4siRY0hMTFIimt+xU3t069YJK7/83izeeMGzGn8eO0lKy41gBeeXXzcjlRQMtntgJ7skGWlJWAgIASEgBISAEBACQkAI2IlAmzYt4Ofng+nTH9BK9KTlSd7eXpj22P2YN3cRGjcJ14yZrxQtHTpy5DhuuWUMgmhJUJLFwN+ySa7uroglO4WlS7/Sk6ZOnYw//zypX4eFh2ICzTywnURWZpYebxngnZFYqdm4wbQcqnXblkhIKJ4RkRkGS2JyLQSEgBAQAkJACAgBISAE7EDg5MlzmEW7GC1Zukr7bNq8A5FRl/HVV2u00tkIeeLEsWA7B3bNmjcm42YgOSVZuy7tT2hIA7zw3HT4Fp2x0OGattoOSRfIdoEdz25Mvu92bXvU2CtxZkW5urqiT98ecHc3zR3ccft4DB02UJPhtlw//Drs/qPICJpiZYbBDJ9cCAEhIARqBwE2cBMnBISAEBACV5cAn3kQc6X43IP69YORm5OLODJmZsfLgHhJ0XPPTkMm7ZTkTucwLFv+FQrzjfshWe8Dz0rs3LkXzzwzVTubgX/3v1z1vb796lA634GNlydPuk0vICIiUjsDgs9sGDtmhHbeQgwpE2yQPYnkunbtRDMivvjz6AkcPHBUz+eSkppadot08ZoNsPW3v59fzVYqtTk8AXkuHP4WXbUGyrNx1dA7dMXyXDj07blqjZPn4qqhd+iKK/Jc8EzA2//5yC794VOafby8NTuEihbIMwK+tOwpOTGlQllZweCtWo2uHu2wlJ6Rrh/YptLcA/yLt2NSkY7kO3r7HIlVXWqLPBd16W5XrK/ybFSMV12RlueirtzpivVTnouK8aor0uV9LizG2lXCwzMKbLRcGcczFsn0qaizVBY4fzIdEGfNiQ2DNSoSJwSEgBAQAkJACAgBISAEhIBGQBQGeRCEgBAQAkJACAgBISAEhIAQsElAFAabaCRBCAgBISAEhIAQEAJCQAgIAVEY5BkQAkJACAgBISAEhIAQEAJCwCYBURhsopEEISAEhIDzEpgzb7HzNl5aLgSEgBAQAg5FQBQGh7od0hghIASEgBAQAkJACAiBOkeARuRe3t6V7ra3T+XzGiv19PLUDnwzxnFYDm6zJCLXQkAICAEhIASEgBAQAkLAzgRCwhpgxhMP4/z5CO3wNFX8YDpgbeCAPsjKyoIbHdy2atUaXLoYpZLh6emJCRNGoVevbnjrrZnaIW0qsVv3Thh943BkZmbBx8cHGzdtw54/DqpkgBSRQQP74sYbhmP16jU4fPhYcZoh5ObmhjvumIDw8DCAzv1MSU7F0mVfgw+eYycKgwGWBIWAEBACQkAICAEhIASEgN0J0MB94s1jsHffQTSg056VC28Uhj69u2Pmh58gm056ZgVg3LhRmDd3kSYSEOiPhx++F4cO/amf4Kzyenp5YeItY/DRrM+REJeIwHoBeObpR3H8+GmkpaZrYvdPvhN5efmIir6ssln1e/bqClYaPvhgvqZkTLnvDvTt2x07tu/W5GVJklVsEikEhIAQcG4CfIKnOCEgBISAEHAMAr16dqOD2TJw8uQZswalpKRhwaIVmrLACfHxifCmZUHK8RKh777/BZs2btdOZTaey+xOsxE5uXlIjE/SxHlWgGca3N09VHb8eewkli37Siu/EMbcuogWiImNw7oNW02RBcClyGgEB9fThWSGQUchASEgBIRA7SHw2NTJtacz0hMhIASEgBMT8PD0wPDh12rLkMJoWZLRZaRnIIMmA3i5UnBQPQwdMpCWFW3XReJjE8Af0zsgF14tpDvOe2D/Ydx5503488+TaN++NU6dOoekRJMCwYJ/7D6gy5vn1qO1QMT5S3oEv3Dq2LE91q8vUiAoRRQGHY8EhIAQEAJCQAgIASEgBISAfQlcO6gvLRM6hQSaPbBUGFRNAwf0Rrt2rREXG4+oqCsqukz/8pVYdO/eGfUbBCOoXqCZslFmZhsC148cTEua0nCCljYpJwqDIiG+EBACQkAICAEhIASEgBCwIwEfXx/069cLH3/8Wamlrvn+Vy29a9eOmEz2Ax98MK9UeU5s1rwJRl4/BB/PWqAN8Lmux6ZN0ZY1naaZhsq4jp3ao1u3Tpg9e6FZdrFhMMMhF0JACAgBISAEhIAQEAJCwD4E2rRpAT8/H0yf/gCef346GSmPRcuWzTDtsfu1Cho3CUfD8FC9siNHjiMgwA9BwUF6nK1Ac1IYeMclng1gl5mRidOnz6FFi6a2spQaH0btmDD+BixZuhpZZAthdKIwGGlIWAgIASEgBISAEBACQkAI2InAyZPnMGv2AhqEr9I+mzbvQGTUZXz11RqtBjYsnjhxLNjOgV2z5o3JuBlITknWrkv7w+W0atUCAYEBmpivny/atmuFyMjSd0RiYVdXV/Tp24MMpE2LjXh2YvJ9t2P112sReyWuRLWyJKkEEokQAkJACAgBISAEhIAQEAJVJ8DnGMRcMZ1lwKXVpy1Vc3NyyVYhQSucdzFq3qwJnnt2GjJpW1Xe+WjZ8q9QmG97RyPVqvNnI/D7zj144vEHkEEzAr406N/zxwEcP3FKidj0/QP8MXbMCEREXKL2xZGx9QDUp1mNyZNu0/NERETq50W4FJLTUxwskJqWhgB/fwdrlTTnahOQ5+Jq3wHHrV+ejeJ7M2feYkyntaziAHku5CmwRkCeC2tUJK4izwWPoF999d92gebi5gIfL2/aejWzUuX5+fshnbdboi1Ry+t4N6TyqgEyw1BeqiInBISAEBACQkAICAEhIASqgQDPKFRWWeDmpKeZDmqrSNPKqyxwmWLDUBGyIisEhIAQEAJCQAgIASEgBOoYAZlhqGM3XLorBISAEBACQkAICAEhYGcCtfwVvCgMdn5epDghIASEgCMQ4LWp4oSAEBACQqAaCdDP7NbmudVYgeMUXcv1IccBLS0RAkJACNQkgcemTq7J6qQuISAEhIAQqMUERGGoxTdXuiYEhIAQEAJCQAgIASEgBKpKQBSGqhKU/EJACAgBISAEhIAQEAJCoIoEvDy9K12CF23Jasvx4Wzu7qaD4WzJlBUvNgxlEZJ0ISAEhIAQEAJCQAgIASFQRQKh9UKw4o6p2Bl1Aa/8uEwvbUL3QZjStR+Ss7LgSYP7VzZ8g4uxkXq6h4cnHh80Grdd0wOjF72LjKziLVT7tu6MFweOQlJ2JoK8fTDrjy3YcmK/nnfadWMxrHlb8KFru6jemZu/09NUgC3eltwzA/W9fVUU3Okk6AvJiXh09VwtThQGHY0EhIAQEAJCQAgIASEgBISA/QnwoPxvQ8dj1fEDaBYYrFfQqH5D3N6xJyZ9OQc5OdlgBeAv147GjG8/02QCfALw8U1TsPb0EeQW5Ov5OODl6YU3h03AvavmIzE1AYG+gVh+13TsiTiF9Mw0DGjXFd1CG2PSilmgI9rwn7H3YWTHPlh/bI9ZOaxM3Lf8I7O4iT0Ho4GPnx4nS5J0FBIQAkJACAgBISAEhIAQEAL2J3Bt++5IyEzHjojTZoUnpafiqbXLNGWBE6JSEuHn5aXLeNLswj+3/oDVe7eggI6WNh625ubihpz8PCSlJWryqRkpSMnJgoebaT7gxtadsPDg7yggRSO/oAALDvyGG9p00su2FeA6J3Xpi5Ukz46VHVEYNBTyRwgIASFQuwjMmbe4dnVIeiMEhIAQcFICHmQ/ML3PUMzaub5EDzKzM5CcloQQWq7UqWlbPEvLi2bTsiLl4lPicTr6vHbJA3fjltkZlPfrEwfxlxG3ok+rTnh62M3YGnGGFIgkbZDfLLC+poBomenPlZQEtAyqry5t+jd26oONF06CFRB2/r4BojDYpCUJQkAICAEhIASEgBAQAkKgigTGde2PjedP0LIh00yAteJupTf6Lw8eg/TcHJyNi7YmYjXudHwM+jVugYd6DMJQslU4FXdZlwvz9Ud6VoZ+nUF2DqE+/vq1tQArN1O69ccX+3foyQ38gyA2DDoOCQgBISAEhIAQEAJCQAgIAfsR8PHywb2d++B+sjMozc3f8RPm0xidZwreH3sP7ie7g7Jci9CmmNFvGKasnq/ZLHBd8yY+hIs0k3Ay8iyi0lIQSAoCzziw8/f2Q1S6adbAVtkjr+mN3y+dR5JBuUkjpUOWJNkiJvFCQAgIASEgBISAEBACQqAKBDo3bqXtPvTprQ9jGe1ExEbK/WlG4MNbHtZKbdygERoGh+k17Dt/DCE0yA+it/pluc7hTbWdj9jAmV0mzSBsu3gW3Rs113ZFukSKQ4v6IXoxTYNDaeejBP3aMuBOtg8P9hiIxfu2mSUlpSeLwmBGRC6EgBAQArWEgHGday3pknRDCAgBIeB0BA5FnsG9qz/Bsz+t0D6z92zF4dhovLHpW60vDQOC8MrQCfo5Cc1p1oBdMg3Sy3InqZyBTVpqNgYs6+vliyHN2uB4jGlJ0/cnD+E+Wg7l5uYGN9om9f7uA7DmxCGtWFe6HtahF6UVLzYacU0v7L98EXHJcWZV55FhdbGUWZJcCAEhIASEgDMTeGzqZGduvrRdCAgBIVArCPBWqTE5sXpfrpAhcgbZKcQnx2txBy4cxz6aKVh+95NIyTadw/D0zyvNdkPSM1sETl++gCWHd2PRbY8iKSsTwXQOw8pj+3Ao4oQmeejCCexp2prKnoECmnP4/dI5/H7apDD40yzGi4NG4c8rFxGTFEsKhRse6TkIT/+4wqIW06ULbc/E2686pEtNS0OAf+nGGQ7ZcGlUtRKQ56Ja8Tp14fJsOPXtq7bGy3NRbWidumB5Lpz69lVb4yvyXPAAesi8N+3SFp4V9vb0oWVFxUbKFSnYl+wTjAe6GfPywW+uLq7Ipi1XjY7rLK8a4M5gHNWlpRefZOeobZR21TwBeS5qnrmz1CjPhrPcqZptpzwXNcvbWWqT58JZ7lTNtrMiz4U937jzwL2yygITsqUscFouzWhYc+VVFjivu6O/wXf09lm7ARJX/QTkuah+xs5agzwbznrnqrfd8lxUL19nLV2eC2e9c9Xb7vI+F/ZUGKq3R1UvXXZJqjpDKUEICAEhIASEgBAQAkJACNRaAqIw1NpbKx0TAkJACAgBISAEhIAQEAJVJyAKQ9UZSglCQAgIAYcjMGfeYodrkzRICAgBISAEnJOAKAzOed+k1UJACAgBISAEhIAdCdhzxxs7NkuKEgIOQUAUBoe4DdIIISAEhIAQEAJCQAgIgbpMwMvTu1q670pnLLi7e5SrbD7Qzd8noISsHNxWAolECAEhIASEgBAQAkJACAgB+xIIrReCFXdMxc6oC3jlx2V64RO6D8KUrv2QnGU6uO2VDd/gYmykns7nKDw+aDRuu6YHRi96V99CdUiHnnhp0A26HAd8PTzw7K9fYf/5Y6QkuOPZITehJx0Ml1eQj5j0NLy2brWe3ywjXUzpPxIT2nVFQmY6vKmcF3/+UjvUjeVkhsGSllwLASEgBGoBAT6QR5wQEALWCfDyo3HL3rOeWN5Y2jf/4vjx5ZWuulxN11f1FksJBgL8i/y3oeOx6vgBQyzQqH5D3N6xJyZ9OQePrJ6Lj3Zvwl+uHa3LBNDb/k9vfRRRacnIpUG/0W09sR9jF7ytf25Z+j7iMjNwkk5vZnd9h97geict/whTVszCmaQ43NZ9oJZm+ad/my7o06gF7lnxMaZ9NR/z927H9AHX62KiMOgoJCAEhIAQqD0EHps6ufZ0RnoiBGohAWs2Exw3mE4O5o+9ThCuheicskvXtu+uvbnfEXHarP1J6al4au0y5ORka/FRKYnw8/LSZTxpduGfW3/A6r1bUEBKY2mHrY3p3Bfrzh1HeqbpUOZdESfx4Y6f9DwRSQk0A+Gpl60CrFRMaN8Nc/dsQV5erha949RBvPHzCiUiMww6CQkIASEgBISAEBACFSZgbeBb4UIcOIND9E/NLihf8bK8VvHiOxQBD7IfmN5nKGbtXF+iXXy6c3JaEkJouVKnpm3x7MBRmP3HFl0uPiUep6PPa9c8sLc1e8x1TO7aH8v379Bk+U9SaiKysjPRLLQJ+tEMws0dumP14V16ujHQIqi+tgxp4V2P4+eHXsLfRt6u2z1wvfoMA2uzyknYRKK2cFBvLNT9Nb61MPZRxduSN8Ybf0DLE891G8u3FVbtsSzfKK+mkUuTMcpLGKgrrOTZqDv3Wr7Xcq/t/Qyo/5HsG38zbcUX0rK/SRP6aclG+aqES63rpv48WkTTtWtN/09JWYigJVHcBl4apepln/+X8ocZqXguW8KmsW5pHCryf8R4v0oLj6OB/MbzJ5BIA3hb7tYuffHy4DFIz83B2bhoW2I242/o2AfbLp5BSnqymQwP9p8nO4dXrhtN6aeRlpVulq4uWgbWxwNkS/HXX1fj1i8+ghs9a08NLl5y50JTG8zNIV1qWhrKezy3Q3ZAGlUtBOS5qBastaJQeTZqxW20eyfkubA7UrMCeRAxlAamW6e9ZhbvyBfW2mwtjvtgK57WeeDihAloRgP4yjhr5XKcUoR4oGfG1LI+vlY2FDS4U+0otYzKNLSO5anI74WRtS1MPl4+WHTHNNy/aj54NqFr8/a4m5QDo9GzMW+fVp0wo/9w3E82B0bHz8O6R17GTUtnljBa9iDj5i/umYHHvlsMnpGw5nj3o4cG3AAPN3fM2Wb+zKpnbR7NTizdvUHLHuQfhCW3T8WEhe9o1/oMg7XCJU4ICAEhIASEgBAQAnWVgBoQKl/noAbrytcTyhdQ5Slf5VIDN+WrePGdl0Dnxq1Q39uXDJcfxjIa1L85bAL6N26BD295WOtU4waN0DA4TO/gPtrdKMTHHzxgL68bQcbNe6IiSigLnZu1g4+Xr1ZMQUEBfjpxEEObt7Fa7IErkTiTEKun5dBMh6ebG1jRYCcKg45GAkJACAgBISAEhIAQEAJCwH4EDkWewb2rP8GzP63QPrP3bMXh2Gi8selbrZKGAUF4ZegE3V6geWhTLT7ZYmmRrRa506D+4Z6DsHDfthIig5q3xaTeQ/T4vqQsHI+P0a5ZERjWoRfcaMaBFdevju3HLbRtq1IQxnbugz3RF8GKBiuw7t+dOqwX5GiBLNqP1tu7eg6xcLS+1qX2tKrXAN3CGtelLktfhUCNE5gzbzGmT5tS4/VKhbWcgOWyGCfsrvGtPi//4WU/1uK4a+pNf7mWXBlnGwxLhJwQkTTZjgR496OYnOI391fIViCD3t7HJ5uWDh24cBz76JyE5Xc/iZRs0zkMT/+8Ut/ZqKymDGvfE0dionAl0aQIGOWX7NmMV0ZMxPJ7n6JzGAoQT1uu/n39ak3En2YxXhw0Cn/SFqwxSbHYeuoAulM7Vk96Bsk5WcjOy8MLPy3XZPn74d4mKMRYdoXD0ekpOJVQspEVLshKhuycHHjlZllJqXtRXqQB9m/csu51XHosBISAEBACQqCaCVRIMajmttgsXpQQm2icKeFQxAnwRzk2JV64cx0W7VoPb08fzc5BpRl9HrSP/PQtY5QWXn9sD/hjzfEOSX//6QvtADc+7Vlt3cqyKTR+H0/2CcqUmWcSZm75HvPI5sLd1R1pmalmRVb5pOdGfoGapmRWqp0uavsMQ69nXsK+D/5jJ1pSjBAQAkJACAgBIeBoBIyzF0oxcbQ2SnuuPgEeuLNRdHW4PJotAPhj7pSyYIxlJcOaExsGa1Qs4v638RuLGLkUAkJACAgBISAE6gKB6hjkqzKVXxc4Sh+dm4AoDM59/6T1QkAICAGrBGj1gjghIASqi4BaHqR8rkeFlV9ddZdRrlJClF+GuCQLgXIREIWhXJhESAgIASHgXAQemyoGz851x2pha41GwLWwe+Xtkhq4K1/ls7xW8eX2WTH54QfTp5JnQZS7LhG0CwFPDy+bJzXzCc6enl7lroe3S7V16rMb7ZzEux/Z09m3NHu2zEnL4uVLL5BFutFZizOmS1gICAEhIASEgBAQAvYiUGVlxF4NkXI0Au7uHpjSdwSCvH3gQcbHv5w+Ct4dSblOTdtiQofuyMnPp5Oes7Hwj41mBspKjv1G9cMxpee1SCZbg1Bff3xxaBfOXL6gi4zu0h/dGzbVjJmPJ1zB9wd26GlVCcgMQ1XoVSEvGzyzU34VipKsQkAICAEhIASEQBUJ2GWQbYflSHZpRxVZSHb7EhjdqS8uJifiPTp74YPtP2B8+24IDgjWKgnwDcTtnXrjox0/4/3N3+J43GXc3HWA3oCbug9Cs9Am+vUDva7D/N0bMXf7j5izayMm9xiozzR0aNIarYJD8N9N32gfPgCue4sOet6qBERhqAq9cuRVBtPKL0cWERECQkAICAEhIASEgBCoBQRYAexHJztvO2M69yybzlrYcfEMOoU313rXnmYD9kRfQEZWunb9G8n1aNhMVwLS6YiBHG2XIzptmWYnvqUD1hJTEzXZhJR4eLt5wMPdU7vuRfWsP/2ndtga74C07vQR9LbTlvyiMGiIbf9RA33lK0lrMwNKRvlKVnwhIASEgBAQAs5EwLgVaGntVnLK12WV/YLy9YRaFLDDbEItoiFdsUHAg+wS2NbAuF1pLJ2BEOofoOUI8Q1ATHrxmQe8BSovS/Kj2QF2G+iMhSuJV7RwQUE+jtHJ0cq1CGuGCykJyCF5dmF+AUjISFHJSKJyOc4eThSGSlBUyoLyK1GEZBECQkAICAEhIATqCAFZZlRHbrSVbvrSYWxpdNqz0WXQAD+IDkhjV8/HBxkW6SzvV5RuzGcMs9Hz3V374esjf+jRXGaWoaxsqqdeGeXomcsIiMJQBqCqJisDaOVXtTzJLwSEgBAoD4E58xaXR0xkhIAQEAJCoBoJpNNhbIFe3mY1+JMSkZBpWoKUmJGOAIv0enSdWpRulrHogpcmTek7DL+cOUqzDzG6SEJmBnwNCoK3pzcSSylHz1iOgCgM5YBkKaJOZ1a+SmelQH1UXGV8mbmoDDXJIwSEgBAQAtVKQC0vUn61ViaFC4HaQSA3l2wQaPcjtcSIexUeUA8xGaZlSHHkhwcE6Z3lrVW9aVclderzPX2Ho1VDk72DEprQbQAukRH1vnPHVJTmX6GyQv3r6XEhhnr0yEoGRGEwgHME2wOlLCjf0DwJCgEhIASEgBBwKAJqqY3yHapx0hgh4CAEfiMj56Ftu2it8aYZgAFNWuFo5AXt+nh0BLqHNdEViuvadMHOyHPatqgsEJeehswiGwW+7t2qExqQfcOPR3bypZnbTfWMbNNRM452dXWlcGf8TnH2cHIOQxFFpSywb+/lQ/Yur6wbX++BR5C88NOyxCRdCAgBISAEhEAJAkYD5iHz3sTWaa+VkDFGVKuywLMZEyagmRxMZkQuYScjsOnkftzf73o8N/wWeNGBat8eP4DUIuNknklYdXQPnrp2NLLz2eA5B5/vWq/3cN2fxTYKfJ7DnbQFqysZUb85+h5dZjZtrxqdcBnnr1zEiZBG+AuteOFdko7FReNE5FldrioBURiqQq8KeS2XM1WhKMkqBISAEChBgP6fiBMC9iVQtCtQlQbwogDY955IaU5BgHc++uy3X8CzC7yjUUFBgVm7eeej41Fn4UU2B8bdlMyE6CIvLxd//WGJZbTZ9S9Hd2PDif3azky8HMpeThSGSpKUAX8lwUk2ISAEaoTAY1On1Eg9UokQEAJCQAiUj0BpygDPCJSWXr4aTFKsWNjbiQ2DvYnWYHnTv/4E6qOq5eVI7JSv4kvzH6dyzBw9tFbz24o3yywXQkAICAEhIAQqRsC4DKpiOUVaCAiBmiAgCkMZlNWuRzVth2DZLHsYQZdQDKgSVjj4h5p9zbFS8OCjWlD5pgT5KwSEgBAQAkLAuQiIIuJc90taa4UAP8QO4OqswqCMnB3gHjhNE5QCoXynabg0VAgIASEgBOxDoMiOwT6FSSlCQAiUScBB7NHqpMKglAXl881SMwjKL/MGVpMA20aoj6pCzS5YXSakhErx1QyC8ksRlSQhUK0E5G1fteKVwoWAYxOgGeyL48eDtm8x+UWtVb8Lytc7oeSUryeUL6DKU77KxeOvbbTz04+TnitzByiVR3whUNcJuGdkZFSZQVZWVpXLsFZAVo79rLutlc9xxrY/OWiM2bWtPDUd/9t//oFBL/0D0bM/BGzcL3Ufi4/rYFHTveUfS6NT8Rz37uhJeOHnZfgf+So+Y9ZMNHriaUSTb6zPWtnGcisSTk1Lq4i4mWxauul0RLNIuXAKAupZrMr9L62j8myURqfupslzUbF7r76nKldlv69BK1Yg6Z57wL5WBg38jU6Vax4LkywL2pA3llFa2Ga5RZnkuSiNXt1Nq8hzYfmM1WZq7r6+vlXun3dO1ZUOW+cfeHubH6dd5cZaFFDd5VtUV6XL0u6VtTQVZ/lAq3hjY8ziin6kzeKMwhQuLc1C1OplgL+/1fjyRlY1f3nrETn7ElDPYnXev+os2740qre0OfMWY/o02SlJUZbnQpEo21ffUyVZaXb0vySJCtHzF11blmuzvlLkh5bjfAib5aoGGNtmiJOgENCf2TJQWD5jZYiXmczbqmbn2P8lvBud/cBbbfP2rpV1Nb6tqi3FoLIdqMv55tz6qGaszL5yfGAbL10yHtzG069GGSUrvhAQAkJACAiBWkGAlAttuRN3RuwsasUtrY2dCK0XghV3TMXOqAt45cdlehcndB+EKV37IZlW7Hi6u+OVDd/gYmyknu7h4YnHB43Gbdf0wOhF7yIjq+RKi8Htu+Ot4Tfjf3SI23cHtmt5+dyHl+mwuDbBISig70hkWjL+SWWnZ5Zc5dE8tAkW3/IgMgxbss4/sAPf7jeVVeMKg957CVSIANs1tLGSwx6KwGyDwmGlijoTxW8KyvPWqs4AkY4KASEgBISAEBACdiHAL2//NnQ8VtEpz80Cg/UyG9VviNs79sSkL+cgJycbfVt3xl/o1OcZ336myQT4BODjm6Zg7ekjyC3I1/MZA37efnis9xCsOXXEGI3bSBGJz0zHaz8v1+IfGngj7iO5edt/NJPji3o+flh94iA+3rqmRBpH1EmjZ6skalGkcXbBEbtV3l2WeAA/hKadxQkBISAEhIATEpA3/U5406TJ1UXgWpoBSKDB+46I02ZVJKWn4qm1yzRlgROiUhLh5+Wly3jS7MI/t/6A1Xu3aLMEfMCbpXt0wEgsOrQLsRnmMwc+7h44EX9FFz+VcAU+7p76tTEQTApDnEV+lc7KjigMiob4FSdADy0vf1KfihdQiRxUZ9Ldd1ciY+lZlHKi/NKlJbU8BIRleShVnwyvVxUnBByKACsQP/xg+qxd61BNk8YIgeok4EED9+l9hmLWzvUlqsnMzkByWhJCaLlSp6Zt8ezAUZj9xxZdLj4lHqejz2vX/LPuYvHj3qhBOLo1bIL1x/ZoMsY/3x7dg5vbd8P1HftgaIeeuKdzX3x5eJdRRA+zwtDA1w+f3zkda+5/EY8PGQ9XV5Oa4OPl6xgKg9reVPmq9bwzUHmd2nrUKM/lqY8xXsJlEKCH0dosBcdpnwUWJ0OXUVxlktVgU/laGaQsWNuSrzLllysP1zdunOnDWwGW5VT7LOTM+mCRJpdCoLoIPDZVDJ6ri62Ue/UIqN9T5V+9lkjNQqD8BMZ17Y+N508gMTXRZqZbu/TFy4PHID03B2fjom3KGRNYgZjRfyRm7tyIgoICY5IWziQDal6S9ECPAXioxyCk0ZKn9OzMEnIc0YAUhtZBIXjupxWYtHo+mgcEY3K/6zXZQF9/x1AYrLVcKQDKtyaj4pSM8lW8Ld9RTm+21b66Fu9sP/zc3sG0VIo/smSqGp9WGwpYNdYoRQsBIXAVCPCgZyudi6D80pqgZJRfmqykCQFHIOBDhsf3du6DL/ZuK7U583f8hPuWf4Q1ZEfw/th7SpVVie0bt4YvLVk6eOG4itJ9/o68NOwm7LtyEZOXf4z7V87C+nPH8Y/rJ+oyxsDyfdvwVzLETiKlJiU9mZSQdRjWop0mkpSeAqczejbOQlztQ9aMoCVcTIAH1I9/XTwLoRtm0wBQ2S/wTEGzmpiS5kHnhAnVX5dhcFtjfStG7vyhmrpPzk9KeiAEaiUBqwpA0RImyw5blbUUkmsh4CAEOjduhfrevvj01oe1FvEAP8DTCx/e8jCeIsPmxg0aIZ+Mma8kxmjp+84fQ8iwCQjyD0ISLVUqzQ1rfQ3aBodg2T0zNLFgqod3QwrhpUW//YLejZrj3e0/6UVsO30YL197g7bUyHJGoikZX0cnxyGtaJekLJqN8KO2suOtXmvUhkEN9pWv96CKAd5BiJ3yVXFKoVC+ihffcQio2QXlO07LpCVCQAgIASEgBISAEKgagUORZ3Dv6k/wLC314c/sPVtxODYab2z6Viu4YUAQXhk6Ae5k58CueWhTzU+mt/xluaV7t+KhbxfoZa87dwLfnDyILw/8rmU9GhOFke266sUMadsNx+JitOVLbJ8wrEMv8BkN7Ho0bo5H+5uWIPH1WNq5aU9UBAfBYzSHmGGQAb12P+SPgYB6g1SrtzmVt+qGOy5BISAErgYBHgjUit9Zno2gWWvjjDL/H9lGS53ECYGrSYC3So3JidWbcCWwPjLITiE+OV6LO0DLifaFN8Xyu59ESrbpHIanf15JB53zt7N0x+cpGM9USCID6oTMDKRmpGgZ39qyBv8YMVE7v4FnHrj8v2/4Wkvz9/HHi4NG4U9ashSTFIvvDu/Ea9ffhqU0W5FHMx5JdCbES0XbsXKGalMYeBZBFAHtntT5P39s/B19RwysXg7lHHwbZzKUUlK9DZPSFQEje7b94DXLmuN7V2RULsu5FC3xhYAQEAJCoDYSOBRxAvxRjhWDhWQvsGjXenh7+oB3TbLm+H/oyE/fspakxy34/Vc9zAE2sn76u8+12QveXSmXFBXlUsguYfzCd3TFhBWbV3/6ArwjEstaHg5XLUuS1JIj5avGVadvuRypOuuSsitGoH5YSMUyVFRaDTiVX9H8JK/eRPHbKH0gW4lyLLOoQbLyLdPlWghUF4E58xZXV9FSrhBwTAJFswyO2ThplRAonQArDraUhdJzlp2aR3YJRmVB5bA2i8FtsFQWWL7aZhhUY4x+RWYcWAHIoukQb29vYxHarIXMXpghcfiLNl1MVvYVbWiJGQD+Z0B7eKempSHA37/s4gwKRLW/uS76R2WcDucGqj7Uiin/sonrEkYFSc0mKKVMF6qJAD8DNWH0XhN9kTqEgBAQAkJACFwlAtUyw3CV+iLVXmUCcdExiL4QiYunztdsS9RbJeWr2osUDO2goKIdmdQAXvlK1C6+Zf2lFaqUGeWXJlsX0xQX5ddFBtJnISAEhIAQEAIOQsD9TFJclZsSmWp726fS0sqqODsnB165WSXE7uk7HBUptyKyJSqrhRG5mdnIz83TPwV5pnCDVk1K9Db21EUkXIjWZAsoTx59Ahs2QOvrupPZfCF6GXKciYpC3NlIuHmYT1zpz5iFvCFrjQarRVmo0R7UssqKFC2ZCahl91W64/AErM0EcqOvymygw9OSBgqBuk3AfGRXC1mwcuHUjgbZBXn5KMjNR2Z+qjZw9w8NLtGluDORSItLJLliRcDD2wtthvQsIZtyOR6X9p/QBvY8uOePK32sKQwc3/CalrqMuybrVqJMjghp01T7cPgF9NZO2VbL0M79dgh+IUHa1re9nv2bfi6C3f4xVeTtPjewBp0oKDUIW6rSCdBXQpwQEAJCQAgIAbsQqPUKg10oVbCQwvwCFNIg39XLtKeuMXvmpTjk0Rt+TmdFoJAUAQ7X79fBKKaFMyPjkbD7GFxoj1xXdzekeHnCO9AP7Ub0KSHr5ukOn0A6upsG9G4ebroyUEKQIhq0aqx9rKVZxjVo2cgyqviaRiT73v83ej33suYXJ5iHLu49juy0TLQa1M08Qa6EgBCoNgKPTZ1SbWVLwUJACAgBZyRgzcjXsh8sUx45LR+/mSH5uuBEYbBxl7Njk7W39dqgngf2PMCnwX29zi1K5MiMTkDygbOkAORpcrQfFbxCgxBybacSsqCBfz4pDK7uNLAnBcDVzw0uNMC35rwaBqHJxOv0pCZ0uIctF9ysoa2kqxofdeQMkqNicc2N1bytanX0ku6j5b7eXI3dZkWqo83OWmYR6zKbTz/MagtW/p7VyGnhZTZKBISAEBACQsDRCfz3fzPx3/9+aLdm8taj0dGncOL1urEjndMrDHkZWdpbesuBvV/LkgPorCuJSD0RSYP6PNPbfVIC3AN8ETq4S4kHiLXLjAtX4EIDe367zwN9VxsDe3dfL4QM6aKlsyIAV9trAXzCg8Gf8jit3vIIXkWZvRtD8VPHZehDBs+hjcztTe5v1geRB0+h440D4E4zIOKEQLkJsDJAO2KJEwJCQAgIASFQVQI8prOnslDV9jhj/hodxRXkFy/BUctxvELrleDGb/fTI2KQn5MLlwKaGqKBPb9NDB1SfLy1ypSfkYOkA2eKB/U0sOc39tYUBhdKC+zYVFcC+NrW233vsCDwpzzOo55fecRqncy54/44/VMICgtcsD2uKfreHYWmrYsPHAlt1ww+wQHwIqXM6HgZUzNjhISLCfAbdNkGtJhHBUI8KTxu2Xt2PUejAtWLqBAQAkJACDgxgVGjhuOaa9rD19cHqalpOHHyFDas3+LEPbJv020qDL2eeQl7aWDHu+mwIa2nn0+JmlNjEpB6mZbjpKeZluzw0h1atmPtdIechFTEbT1MA3R3GrDTQJ0+/AY9dGhJJYDTvBoEgkoDG+6ynK23+14hgWg4sqRhb4nGUgSXKc4+BC6e9sWeJU00ZYFLzI7zwO+fNUOvSVFo0ylVr8SfDJ2d2smyF6e+fdJ4ISAEhIAQEAKlEXjyyal46KHJiIqMxp69+zVloXGjcIwfNxrv/e8tzJ+/ELNmf1JaEXUizd3yELT0+GScWL9b2y5zz+IfNSNaL38fdLlpSAkgvLtOPi3vYSXAzcdLVwIQdbmErGewPxrfMqhEvLUIluWPtq2qp6c1EYm7igSiLvhi19ImZIvhinbjY3BqbRiaDUvExc3B+OPTpsi+Nxqd+tjeavcqNl2qrqUEeHaBD4hjpw6K0y7kjxAQAkJACAgBKwRCQ0Mw84O3kV+Qj7vufgCnTp4pIdWuXRu88cbL6NO3J55//hUkJCSWkKkrEdrBbaw0KMdKwCO/b9Aup+3fht733mhVWWAB3+BANOt1DQI7NIV/m0bwaxEGnyYNVFHmPr2pFef8BGIivbFrWWPkpbijGykGbh48VAPNBOWj9WjTmR6HvmiEA9vqO39npQdCwIkJzJlXNwzxnPgWWW+60bDfukTlY6uz7Mq3SnIKgRonwAbL77/3bxw7fhKTJ0+1qixwo06dOoNJkx5GRMQlUi7+U63t9KDxd3h4SftbVWlAgD/c3KxvksMyDRrYHnf5+/shOLhqKz40hUHtlc8V8rad4oSANQLxV7zw2xeNteVH7W+K0WYRXN1MCkN+rgv63RCLDrdc0bIe/6Yhdv8aaq0YibNFQP0zV75Rrrxxxjx1PayYKb+u85D+1xkCxhm3OtNp6agQqAABXoZUWFiAf/7z7TJz0b8Q/OMf/9YG648//kiZ8qUJtGvXFhcvHsPKFQvMxB5/4lHs2rUJS5bMx66dG9G+Q1s9vUuXTti65Sf8+MNq7NmzBW//5w2wcqFc9x5dsX37L/j2my/w24516D+geOt9T1qlM3/+h/jll2/ww9pV+PLLRWDFw5rr3acnLcs6gTOnD+qfp59+XBd1H3LRA7sXrdUjOGA8vdeY9tj+7Zjbs3ibT5VJi+9hiG+uUoDIr7YXX0ioSgQir+IkTVZuEC5fuBkF6V7wCt+DvAub6LkB4pLoxGeEI/rwReyOW6f1L6BFd6ReuAFnfw5B5L5LaNLIFK86/+JdN6tg3fWLbCPEwLnuPgLScyEgBISAEKh5Ajy78OgjD+CWifeWqJzTLtNWqQ3DiwfsLMS7LL35r3ewbMmnmD370xL5yhPh6uqKd//3Lyz/YhVatCje+qVNm1Z46MH7MHToGM1+4glSHv7+youYPGUa7ffjgnfeeVOzoVi58mt4eXnh22+/wNixN+K7734AKwSzPvof3vr3u6RQ/Iqhw67DRx/+F8OGjUNGRgbuvOtWeNDunddeewO4/qWkkEy67y7MnfNZiSbzDMXyFau1pVeWidwO979PucMyHrGkGCin0mOffVqLYuUg9P2ZKhl6/IHtSH7tVS1+64HiAeI9Nw3TZSsayMrKgre3d0Wz1Vr5tsFX5419bIob3lsSSsqCN7r0S8Pzd4UQY9Nzs26fH764AFzTug2evaN4umvjoRgsWRSG7Jge8G7eFs/fHUu7zV5FjccRnwriIecIOOKNkTbVdgL8Bn4o2bxsnfZabe+q9E8ICAELAtdfPxQXIiJw9uw5i5TSL08cP0XnLlzB9SOH0e5Jm0sXtpJ6550TER+fgPUbt+BhUhCUy6WNhZ5/4RVNWeC4/fsP4Y7bb1HJ8PXxwdGjx7XrnJwcevt/TtvJiSM6dGynHQ7FygK7rVt2UB2J4FmH33/bhZO009OePfu0tIKCAuyjsps1baxdW/4JDWmAmJh4y2j9WluSpF9JQAhYEEglw+aPVobg8llvtOicQcqCyU5BiXm4879eICfX/FEa0S2DNPgrtMNVIf7c449/LmiIlAxzGVWG+EUElAKhfAVGLalRvoqviz6zofMZtM/a4plRVkV58Kf8uojGss+ESpwQEAJCQAhYEOhAW6fu23fIIrY8l4XYf+AgrmlPg/QKOl9fXzz33JN4458l7SAiIi5iy2bTi3r+3R437kZsLrrmmY133/sYb/3fa7jt9pvx7LOPo3nzpvjxR5OC0LJ5c1w4H2HWmgvnL6B1qxZa3O5de3H82EktzPYPo0ePxGZSKqy5EFIYwsIaYPu2X3D8+B78j2ZD1NInboe7yrRg028qCNx0lxZ+cPggPY5nFXg2gX1rsuO/X6nLGgPbDpwyXmrhwT2sw66oLE+RFLtCXNfdernbD54uFtNCtUd24ebfS/TtgWHF982YWBlZekbQimbmWrUtxG39rzMWp4VZYRgyfrkWXrhZJReC2zCoYyZ8pl7G/KVhOH/UF/9eEIYOnYsM7PV2F+KxqVNURjN/7vwlZtc0KVj7ZXlAbBgIM4C5nywFbr7bdPw8P/PzF+OxRyfrJx7zyccqjyMxu9ellXb/eJ2oLVft7S36LQMK8JiNRlR7G/R6a/b55e9VzfUN9N2crPfUGCjZhpqXXfZF0e+OsWE2wo7Q3h8m3Enfc/Pfv4rwXVZoenNqtmMY/ZhrfeOy2SDe7P9nSRiOwEHaYLovwqHqHHjAq1y9wADEJySoS23Zz5XL5uPEmCtntHTOp5YncRG8S5J/QICet7yBqVMfIDuCjTh/LgLtS1E4hg4bjBtvvB6jRhUv3Y6+fBn16wfjyccfBQ/qf/55PTIzTQflhoWFUpuMu1IWIiExEaGhJVekvPji0zSDEIt1v24s0Wz+OeCy27ZpjUmTH0FBfiE+oKMVXv7bC3jjTZOS45J54lQxRUMRSjkwROkKg2WculZLkqYbliTN6TFKJVfYlyVJ5shqckkSfzH+sywEJ/f7025YefgrDfybh+WZN4iudp30xtx54WjRMQP/eCSmRDpH/HnRE/O+CEVKjAfa90zD3+6Lg3d70kIq6VLT0hDgb91op5JFOn42uiFm9g58TYqC5qwoGVe7Q/yjorY5ZbW+ppZ+mD0bDs7oat+julS/2XNBHefn0+qSJMvv2dWAVMU22PzuWfk+2JS9Gv2+CnVaPhdXoQlSZQ0RMA782UagYVgYXnv9/0rUbsuGgQV5UP3mm6/SsqTLmh0Dy0aTvUO4hb2DZaE82N+wYQ2uv36CpnDcQAoBL0m66+5KdzSfAABAAElEQVQHzURbtmqO775ZjgcffgL79h7Q0nhmYs8fm7W4XTv/gDvZI8yd+z7OnDmPf5Pdwpixo3D/5Htw9z0PafLcpvnzZ2Lduk1k4Fz8omQsyb3+2t9ww40TkZycbFavuuB2ZmVla7YPHNe1e2fMmfUerrvuRloC5Quba0SMdgqqMGtxKk382kXg8HkvTVngXZCmToq1qixwjz2L5qhy83hYaN11apaDp++PQXCTHDRvnGNdSGKFgBAQAkKg+gioFwvKp5r4V3sbLeXjT00p9dXXQSlZCJSPwHHaSrV3nx7lEzaTckHv3j1x/ETJlTNmYhYXgwcPQggZFP/889fYvXsT3n/3LQwa1J+WFa3WJXnb00UL5mqG1UpZ4MS27VojKzubdk76Q5PNo7PPviVj5/79e2vXFy5cRJu2rbVZEi2C/rRr2wbnLxQvU+rYqQP+7/9ex+T7p9pUFjhvp87XoF694tmT1JRU+PmZdk7ldthUGFTF4tdNAu1pcD9+YjwefegKurfKtgnBw9203CQ3p/RHqXV4Lt57LgqTRqTYLEsShIAQEAJCoBoJGJSFaqxFihYCDk1g48ataEQnORu3Li1Pg9u1b0OzCWHYuGFLecR1mY1k5Dzyhptp16Op2ue992fh4MEjmDHjL5oM71406+N38RMtNfpq9Xd6Pg6cPHEa9en8hIGkYLDjGYaJt4yn/Ee1a05PSkqmHZ9MKw7YINvN3Q37i2w0eNZg0cK5eOrpv2hlaZmK/rDcfZPv1nZe4qiBA/rhlZdf0JWPSffeqSsqXE/R+2FjERIWAnQehyfZLFyXWiYKzyKj5zw6h0GcEBACQkAIlI9AXV8OVD5KIiUE7E+Alyd99tlivPbqX2nA/KhZBcalS8YEXurz+msv4bNPFxujyxVOTU0D77CkXMuWLZCenk7Lis5qUSNo16YxY0bRkqVhmDb1QS2O29GufU9aIpSlLUfiQ+PyaDclnon44499ePfdDzU5nnF47rmXMX/eTDxLZybwtqtPzHgeubm5WvqMGdPQskVzLF44T7vmP7v/2Iu77noA4Q0b4h/Upz/omts3f/4CzJs7UzsHIjcvF0mJyTofbocoDDpCCVSGgIcr/9sDPciiMFSGn+QRAkJACOgEDHYGxs0M9HQJCAEhYBcCfJYCv1F/441X8LoVWwZjJaQr0AFvryCfBuezZn9iTKpU+BeaSeCPcuvJ3iCsYRt1WcLfRDMi/foN105qTktL15UBJXj48FGagRiJxo0bISoqWkVr/htv/If6WHJnJk6MjIyiWZZe4O1W2SUnp5AtxIOagTXvqBQbG6fFqz92VRh+/WKNqdxO3qp86HF6TPkDPBSVYaiJV6PQ+mh7Z/G+vOWnWL2SHh5FCkMZS5KqtxV1oPQaXkpQkJmBrIvnkB19Cbmx0chPTkA+vWFwoalTN18/uDcIg0doOLyatIB3k+b0RS19SVoduEMO18U5tBPO9GlTHK5dV7tBxjf7lrsIqY0EjIN1lrdqIF3THWFlYsIEfUe0mq5e6hMCtYkAv8HnZTozZ76NpUs/1QbVp06Z75TE/e1AJy7/4/W/ITs7h+T/elURJCYad0Mq2RRLZaGkRMkYpSwYU3gnKGvOnU+Cq6yLTvTAZ+2XwcclHY9eewSTPfO1osw212tc2dKBLDqgwptOsRNnIlCVe1VdDAtyTDpnHtkyV6R9ubTTUWVdGk3l1XlHP3ZGx7t9VNXlpyQh48AupO/ajMyj+5GfEAf3nEy4UcFcm6qRlXj+ZBcUwrVeMNzCGiOgz7Xw6TsE3h27w4XeTChZEtOcPdqnyirNN3s2qoFRaXU7YlpNcXfEvhvbZHwubD6bNp4XJW9vlqpc1U6tfBtt0GSK0spqh9VyVSXimxEwPhdmCXJR6wiwgmDpeGA8efJU8K5JX65cQG/nL9PBZge1w9X41OM+fXqSzUJDfPLJwkqf7mxZpzNfu/NWSZVx6dku+Oy7hog+w7MJ/vgwywuPjTyJRgGmvWErU6a1PHLSczEVj0req+IS7B8KLDC9Wc6ng9sq8ix5V3Fb1Dq3rarlraMfP+O7hqrwyL4SibjvvkDiuu9QEHWRTuQ2HfnAKkJOyd9YvSWsNBSmJKKAFI20M38iYdXn8O/cCw1umYR6w8fqchyoSvvMCirHhV6XHRmVo1qHFNFZOGTrarZRioXlI63iYeN5UfK6nGo2yVfljb8qVxWnlW+jDZpMUVqJdqgCinyr5VrIyGUxgbJ4FktKyJkJWFMYVH9mzfoE/GGD4Q4d2oHPabh8+Qr++9+ZYANpcSYClV6S9OGXDYqUBTrsoVEqoi8G4d01nTF11Am0D6362065Qc5BgI2eeevVglK2VbXsiTdtASau+gjwgKE8SygKsrMQ+/USxCyfD9eEGNA5LcijQYmaHnAjjcCLtQdyXCYnseP1nKwm8qpHls/VPhRfkIesw3/g4qE/EPfNErQLD8WpRk04izgh4JQE+JFX54mUZ/lSlTvJSw/pJPMSjr5j1pZLlZCjCP7G8jap4oSAEDAn4EkrVnJo5Yott2H9ZvBHnHUC7pU5QGvm/HycPFCIpt2AS3S6dk6+N1p1zsC5o374aG13PDIpBn3a2d6K03pTSsbm0nIpR3yrXrKlNRNTmXtV3S1zp7Pc3LzzUECrhByxfdXdf2ctP/PCaUS+9xoy9+yggX/xTAIrCe40aOHlRm6NmsGrWWt4hTeBe0hDuPn4ojA/H3lpKZpdQy7ZN+SfOwX31CSalXBBHuXJoQ8PWLKP7MXjR92wqWNn/NKjp7Nicup2s2InrvYTYKWmPC8Iaj8J6aEQsE2Adzl6+qnp+PCjuaUqDbZLKJnCZZo5y2uzRJMyz1H8neWcRe/gOKqEM6YbwyyoarWW3zLNMm+JigwR1mSNcRWeYVi4Mh871xQiIByY8YQb/jotH1kZrnjtoRj8b2UIju72x6y5jWhdWAxG9Ki8fYShDxJ0YAK0XB1uHgBv4EVjRW05iwM3V5pGBJJ3bUHk2y+hICaKlhyZfnJYUXCjHzvX8KYIvG4UgobcCO9W7eARHGKTWSHtGJEbdxnph/ciYeMPSN29DV7ZGZrSwIqDm0sexvx5COFJCci560l4kqG0uJoj8NjUumXwzE9yrR0403ez2dq1JZZAcZ+tzoDU3GMmNQkBpyHw4otPgT9lObYTKu9SNf4Odnjz/rKKhIe7BxbeOR1PrlmCpsGhuLtLX7zy4zKzfCH1QhAWEISHel6LFUf3YM/Zo/D18sXX9z2N0Z/9W5cdRjsb9WrcAu9tKj7JmRO5juX3zMBDX3+GlPRkTbFYfM+TeH/nBjxFuyyF+wViS8Rp/Hfzd8ijbVONjhWDT+6Yjtc3fYfIuCgtqUFgfcy5aQruXPqBdl0hheHbnwvwy1LGA0x7ypVO7eUqaLCY7obUTBe8cFcc5vmSQrG5HpYsCaO4eNw8sOy9/LVC5I/TEnAvskvPoefPW2zUHfo+Jm1fj4h/PgvwLEGRssDLjlxCwhFyx4NoMPZ2uJeiJBg750IHyHiSgsGf4FE3I+PkEcR8+TmS1n0PV/ox4vKz6dM76hLOvTwNrf41B560s5I4IVBjBOj5U0t5kooG3Tbr5nRry4FsZqhaAv/3lKVDVWMouYWAsxAY17U/Np4/gcTURE1hsNbuW0mJGNK8Lc4kxuFsnGl71EBffyRlmb98T87ORAjtVmjpbujYB9suntGUBZXWkgb9D3QfhL/+uprG5Ol4bvBYPDV4fAllg+XDqK50Q10ZVE+oj78qqvwnPW/8rQArZ/GqZeD+513Ru6vJ2NWD2szjjvQs3kuFFIkJiRg5LkELf7u6AZZtqKeF5U/tJcAzDOxKWRpoEpC/V5VA6qHduPivZ1GYlqwN5nnAwsuP/IaPQ9tZq9Bw0mPlVhaMHeFXCPyW07d9F7R89T20fvsTuDdvo9s/ZNJsQ97RfTj/5tPIzxD7JiM7Cdd+Avz9GEzfD/6o2QB79Zq/w1vJXkH59ipXyhECQsB+BHy8fHBv5z74Yu+2Ugudv+Mn3Lf8I6w5cRDvj71Hk01KT0EDH3PloD5dX6GXfkbnQS/wHugxAEv3bTdGa+HdUedxJTEGGVnp+Pj3dRjeol0JGY6IojIDDQqCv7cfoqh+5UyjfnVlw997uACfv2dSFsY94ILRw4qzefuZtlJNoxkG5SaNSMHE2+O1y/U/BmPu98EqqWI+DWbEmQi4+vg4LAoPL1PTeIZBnGMSyImJxoV/PQ+kppChsmnpmBv9wIQ9+jxavvERnafQ3G4NDxwwHG1mLsNBMnj2LDKaziKlIXf/Tlyc+Wax9bTdaqxEQYY3z5XILVkcjIBSWpVvr+bxfyCeBeAPD8zFCQEhIAQqSqBz41ao7+2LT299GMtoydCbwyagPy0p+vCWh7WiGjdohIbBxUt2950/hhAauAf5ByE7JwtZNGPPYeVa0SqACNqh0OhGdOiNPVERiE8xjb1V2gHaBfFMQqy6RE5uDjxpLbkrnalkdPzbeSklAS3qFy9D5qVTF+gMJuXKXJJ05kIh5n1YgHyyYe4/3gX33WaaSVAF+NWn5UgxtCwptDkZvRYP8O9sDwS3JkXjnQLs2lIPWR5BeOlp87yqDFs+79Vf1e03bZUt8fYjoJYkZWt7cBY/A/arQUqqEgE6xTFy7ttwoR8TXiLEd8iVfjDCn3gZDe96pEpF28rsGdYIC4eMwOTtm9Er8qJmRM2G1Lk/fInE/kMQPGK8rawSLwSEgDUCNpZU8fdZlBlrwCROCDgGgUORZ3Dv6k/0xnRv3BJj23XBvzZ/r8U1JLuFB3sMwnNrF2u2Bc1Dm2rxyWSHwAP5b04cwt1k1zB32w/wJ0ViPOV96JvP9fLc6f/5wz0HYcYP5jYRnPerY/txyzU9sOvsEe1E57E007En+qIWZqVhSLse2Hb6EPLz8/D9yUN4ou8w/Hb6sPZi7/7uA7Dy6N7ievSQlUAcKTCzZuUj9TLQbgDwzLSSA36yodBcWjo3zXywOGqwK/xpJmU+zU4cXF+Iv6fk4Z9/L1NHsdISiXJkAvSiWnOyJMkx71LyH1uRzGcs0ICdnQe9WAi+61GTssBv2qvp9Ngs2sLui0FDUG/dz2idFK8ZQ7tSfVGfvofAfkPg5l/04+GY2KRVQqByBKrxO1W5BkkuISAEriaBnJxsxOQUv+W/QnYFGfSmPz7ZNBtw4MJx7CNbwOV3P4kU2u7ckwZVT/+8kpb7m/5nL9mzCf8efQ8W3/0EvOkN7Ue7NyOBZgOUG9a+J47QJia87MjSbT11AN2p7NWTnkEyzVZk02YlL/y0XBNj5ePFQaPw55WLiEmKxaELJ7CnaWtqxwxt98TfL53D76RMsOPRvc3RO5WJD2fnIfoYnbPQBnj2Seui/oFcTCHSzG0yuHzNDexFSsPfXTBnZj5O7wbWbSsAKxLiag8BD2X0bHt749rTWWfrSUE+riydC7dCmiWktnvQW0qvbn3R+GEyfOaBzXjTm372eRcW3ZVz0MM/Z2pdNvvqTad668m71ox853OcfupeuJL9AhtCu0ScQfxPqxF2x0N6dY4c4D464+47c+YtxvRpUxwZ7VVpGz+bYmx8VdBLpUJACBCBQxEntI+CwYrBwp3rsGjXeto4xgeZtNug0eWScvHCmkXwowE+pxXQqgGjW39sD/hjzbHszC3fYx7ZUbi7uiMts3gjohSyTxi/8B1dMeH8n5AdxcLdG2jHS1dtOZQqk/8P2hy5f/drPk7tBDz9aftUWkoUbMN2WR3Ym5Zm0oRU4Ua/awcX/OVvbhh7v4soC0YwtSFM/32LlyTVhg45dx/UAF75aUf3I50OUsul2QUeKGWRTcFb4WFw9a5+mxilNPh16oH6N99LMxscYzJhiP9xNQrorUutcwYlrNb1TTokBISAEBAC1UaAFQdLZcFYWXpmWgllwZheWjiLdjwyKgtKVs1iqGv2WUFh2wlLZ1NhaNrIBS17AY8+54r2rUz/6C0z83VAgCk2nQ7uKs21bOaCybeXXNJUWh5Jc3wC/GTQ1r+ay861rTQ6fk9qRwvVIF35SVt/hSetTeQ7wwP2Y42bYuFrsyvX2SoMhsNunYx8Wr/IOgOfDp1x8k9kHDNNdVauMeXIpdZ8K19lUf1Qvoqvqq/KU35Vy5P8VSfA9562Sg1audJ8Bq3qJVsvQd175VuXklghIASEgNMRsKkw9O/pin+/4Y7r+toU0TobqC1Jom1VZbdEp7v59mqwpycPT2lb1Vr4wthejOxejhoEK99KBYW0s0LqH9u0XZE4OZ8GMXtbtbUiWf1RXk1aIKD/UG1JFCsvXi6FWtuqv2bHqEHN+DhGa6QVVSagvnfKr3KBUoAQEAJCwLEJWDdMqECbA8s5w1CBIkXUyQgUzzA4WcNreXNzYqORHXWRZhcKTWsPaSeGs+FX7+C0wAFDkb5hjU49/dRR0/okGnQ5guNBvUPYKvDb6WoyRHcEzrWmDaIs1JpbKR0RApUmQP84hkQULbOodCHOkbH06YNy9CGAbBzYpZdiw2CSkL+1lYBH0XdFdklyrDucczkSBXSyI40/4UaDG286TC3ds+jQjNKaqpZTKJ9lVVj5peW3kebToi1ySbtk9SCf2pRz+RLyszJtSDtGNCsRbMytfMdoVflaIQbP5eMkUkJACAgBIVA2gSrPMNQLML0dpHGJuDpKQBQGx7zxeclJcKVdkng/BbYd8GgQik2Pv1Hc2KI3pCXeZtuKL85ZqZB7gzC4+fiiIC9Hm/XIT0lBIRlXgeKcyRmVB/71UztDOVMfpK3VRIC/O2QzYXT8jMiuTEYiEhYCQsAZCVR5hkEtSSLjbXF1lICnMnrWDm6roxAcsNs8GOeZBR7g8qDFtTyzCxXshxowK7+07K50LgMdL6mJcJsKqH2FpNA4m1N9VX6l21+F2ZpK1ykZhYAQEAJCwDEJ0L9HL29vm23z8fGBixv/57HufP18addK6/MA7nS2g600y9I8vTzpPV7JnRStl2yZu5TrQH9T4w1bu5YiLUm1kYCyYZAlSY51d13ogAw2dOZvqDZApwNhSrii2YQS8ZYRdph10LZRLdo/mtvkSlNTrm5V/gmybKnDXRtnJPSzKgzKQokzMByuB9IgISAEhIAQsAeBkLAGmPHEwzh/PgILFqzQixw8ZAAGDuiDrKwsuLm7YdWqNbh0MUpL9/TywpTJt8M/wA8eNODatm0ndu4sPoE5LDwUd94+QcvnS0rFvn2H8csvm7S8rGTceecEhIQ0QAGdx5SSnIqVX36HtNSSy4Lc6MToO+6YgHDaep0HDiy7dNnXtKGNaUebKv+39itSQrLpLIhcOuzNo8ol6vwk4CQE+MUxO15dIu7qE+DBOC+TSd37GwrooBbQtqq8LCk3IZbOPsihmYaiG1ZaU8urSFAZqr7SiuO0PKo/PysDtEESXKh898BgsFJTra4C/ajWdkjhQkAICAEhULcJ0AzCxJvHYO++g2hQP1hnEd4oDH16d8fMDz9BdlY2unXvhHHjRmHe3EWazPhx1+Py5Ris/XQd/GgW4amnHsH5CxdxOToGbh5uuOvOm7Fx4zYcPXICnvT//eFH7kXzlk0Rcf4SBg/pj7S0dCxa9KVW1rhxIzFixHX4/rtf9PpVoGevrmCl4YMP5tMbPWDKfXegb9/u2LGdTl0mZ1ofoKQr6bvQ8Qp59PIyRZYlVZKgc2dTSmJ2rnP3o7a13rNRU7j5+tHg3LSlalbEWeQlFx8nX9P9zTp3Ch601SsrLzyr6hneBC5etqdfa7p9ta0+awfy1JY+GmdtakufpB9CQAjUbgK9enZDRkYGTp48Y9bRFBo8L1i0QlMWOCE+PhHetCxIuS5drsHmLb9pl+npGdi//zA6dWqvXTcKb4icnFxNWeARfQ69FJwze6GmLLCAJ60ZjyZlQzkOeyrDUxVZ5MfExmHdhq2mK/pHfSkyGsGGU5vtojD4BJnKT0vnn3FxdY2AOochV85hcKhb79mwMTSlgeYA6KBnIDUZaQdNbwquRkOTd27RZiNU3T7tO2kzDepafCKgliopn6FweNw402f8+HJjmjt/SbllnV1QzXIp39n7I+0XAkKgdhHwoIH78OHX4qefN5XoWAYpAUkJyeDlSu3at8aY0SOwcdN2Tc6XbAlcXFzNlhDFkUKhZigaNAhGbEwsbrllDF7/+wt45pmp6EwKhnK7du1Djx5d0L9/L/Sh2YIBA3pjx+97VLKZzzMSMZdjtTheBdCxY3ucOnVOl7GPwlDPVF5ahl6uBOoQAaWsig1DDd/0MpbbuJB9QGC/wXDnURQ59hN++Yasjfkdf8267KgIpOzeglwa/HJzcugHMLDv4JpthCPVxveOdtPRPmvXFrdM3VPlF6fUyRDruWz3IU4ICAEh4MwErh3UF8ePn0ICDfZtuYE0mJ8w4QZtliAq6oom5h/oj/R08+3HMzIyEVB0pkFwUD1SCLoiJSUV/3n7I/z40wZMnDgGoQ1DtPyZmdlgheTaa/vhuuv6kz1CDjIzzcuz1p7rRw4mJSUNJ46f1pPtYnHgR4e3xVORphmGotGJXoUEajsBZZRPs2LiHIxA0JAbEbvyc7gU5CCHphnydm9FKs0yBPQcUKMtjf1qEdzTU5FNI0APGgx7tOsE32u61Wgb7FkZ/8qV2E61SAmwrIdlZVtNSyqVvzYqEboRORVn9Z5UvhrJKQSEgBCwCwHecahfv174+OPPSi1vzfe/auldu3bEZLIf+OCDeUhOSoW/v69ZvgB/PyQnp2hx6bTEyZV2H9y40TQjcfLEGRw/dgrt2rZC7JU43HbrWFy4cAkLF67U5AcO7IM777gJ8+fZnoHuSMudunXrhNm0tMno7DLD4BdoKpLsKsTVQQL6Lkk8GhTnUAT8OvaAb/e+8KCDGPjuuOXlIWreOyiwtmNSNbU87cg+JHy/XJtd0KqgkV2DMbdXyzav1dQFKVYICAEhIASEQKUItGnTgoyVfTB9+gN4/vnpmHjLWLRs2QzTHrtfK69xk3A0pJ2OlDty5DjNIPghKDiI7BqyaEOhXC2s0kNp6VJ8gmmmIjExGfwxumxa7qHsFFq0aIYDh47qyQcOHkXTJk00JUOPNAR4x6UJ42/AkqWrkZVpvrOiXRSGgEB+t0MzDGL0bMBed4Jqoxs6j0ucoxGgHQ8aTpqOfFoCxN/SHFoSlHN4L6I+fa9GWpqXFI9L774Kl4x0zY7CgxrhRidOs8LgSE69tVa+ahsz45kE5at48YWAEBACQkAIlIfAyZPnMGv2AhqEr9I+mzbvQGTUZXz11RotOxsWT5w4FmznwK5Z88ZsuobkFJMicGD/EQwdaloVwFurduvaCYcPH9dkz567QNOrhWjTtqV27U9LlTp16oCztG0ruyiqp2f3LlqY//Qke4bLV2JoZXKBpjT06dsDfEYDO54JmXzf7Vj99VptdkKLNPyxy5KkAFqSxE6Mnk0c6tpftSRJtlV1zDtfj+wY6t04ERm/fIWs/ELtTX/c8vl08nMYGt79SPkbXcF19XmpKTj/r+eRd+qopqjwoLvQ1Q2NH30ebv5FPxrlr71aJfMM58ex0vDNzwWYONou71Oqtd2lFT592pTSkh0+zai8WS49kiVeDn/7pIFCQAgUEeBzDGKuFO8KU5+2VM2lNdxxsaZdC/88dhLNmzXBc89OQyZtq+pO5zAsW/4VCun/Nbt167ZiypQ78Cyl865HGzZsQ3ycKW9BXgFWf7WWzmG4CRlkmxBICsP2Hbv0XZK++uYHLa1Xr/9n7zrgo6qy/n9KZtI7KfQiKFIVFCwo2FFAVERdy7q6ClhQsSv2vrZvbYvYRV1cwLLqYgOxYUMRFEWQmt7LZJJJMuU75755k0lIQgIzYTJzTn4z8969993yvy/v3XNPG0lMiEfFefjPkndVvcxcnDz5GOzcScbOpL50NMWCSCWpxvnnnqHy+WvnzjxfvIjAMAzxWt12UUnygRxJBxbeNiYShiFEZ50W+r1n3YDNG9YiKmcrGsmWwUO7CwVP3QtXbQ2yLrgcRl2vLEBDqC/Kx84HbkD9mi9Rr1w0kXs3UotKmHIWUiadEqBWAlMN7+TMu5aCyAxtqu8/T7uxZYsH111OPqOFBAFBQBAQBASBACHANgb80YkZg+XLV+LDjz9DDLkaZ6Nmf2JXqc8//7oK3MZMATMJ/rRjWw4eeewZcoGajKqKarhcTTtgFWWVePbZV5X0gj0fsdGzTtVkB3HPPY8rRoLTPiQPTvxpiwKyhZaYoC0YhWFoC+bwTtfjgAnDELrzHNUjC31veQSITyRvSeRmlbrKIsmSFx7HjjuuhCN3e8A6X7V6BbZec14zZiGamAXLQYeh9xW3BqydgFREzMJLi10o3bJrbT9+6MFV1zjx22Ztl2fXEuGbwiMW70ThO78yMkFAEAg9BJhxaMks+PeSozO3ZBb0fL62vLSiGbOg5/EvSzT8mQU9rzPxegLCMOgqSbU1kfdi1UGP5F/drarEYQjtuyB+xBj0vf2fMJA6EHsq4v9WJ22v2z9fjs2XzUDRoqfRWNYU4KWzo6nd9Ct23HMNtt10KRp3bPFJFphZMA8fg/63/x9M7FIthIgx+OSN5s8t3v647DYjknoBxeRR7t55Tbs1IdT1sOoKz4AwKGE1pTIYQUAQCDMEAqKSJBKGMLsrOjkcr50OnE0qep2sQYp3FQLJhx8D473/ws77b4C1JF8t6lllyESMQjF5Typa9ipSJ01G4mHHII7cnpoSvVEZW+sgMRsNBTlgL0iVn30A2w9fweSoJcmFB7zE5t0I9s4UTXX1vekhZTPRWjWhkHb8Xwx4SfNSp7oz4VAjhgw04PlX3Ph1lQe93r8F99W4cOu14a+i5L9497cdUAHkpkzRposYzj7+8SOCMInMuImtQhCAlSoFAUFAENgDBALCMCR5bRjqxEvSHkxB979Ej2AuDEP3mEsOmLbf/y1CzmO3w/3j18obA0saXPQxlRSgaslLKKLYDRwp2tq7P6LJq1FUegaMMbFkhOWCi+IpNBbmoW77ZvVLSpMUiZJUnOh6p3eznu0VPBYrUmdehOyL58Ggu9IKQYj6jAIuOseEM+2347ILnXAR4+u5FMhMNygGYfF+Lrz7vEcxDrM3O3H/g2aktsNHhcoQWdTMOquhQK6aajQUF8BJjGljVSVcNvrU2OBmsaTLjRd+/goTyaPX9defi1unnA9zSjosPTLBqnSGANvXhAIe0gdBQBAIDwRYVj+bnl+RQAFhGBLitZdSnS0SIJMxtkRAN3oWhqElMqF7Ht1vPwx65GWUvv0aSt98HqaiPGIYNBUlZhz4P9pVnA8HLfIa1n6jzvWlJ/ME/GFbZjcd8XWcwPnMKPD11hFjkUWMQuLYIyg1dInX03fN1x6DHBsnmdSQyraSZ4h8D/r10kZ89qkm7DfAjUUvu1G8Gbj8fCcuudmIYw4PiEZn0MBZsHAROuIpiafvaIqmvEsgur3oGTMHrKJmJxe+9g0/oyF/B5zENLjsNYgmWBl3uk18dDodKbTpa+fqr+AkN39mCvBjSk5BzMD9EUf3U9zQEYgdMgLG6BjfdXIgCAgCgoAg0DUIBIhh0DrrEAlD18xaiLXCRs+8AOCdWaHug4CRdv0zSAKQcswpKH33DVR++l94dm5RRtHMBPDC38WcgN/CruXoeMnMTAIv9hop1oOFFnY9pv8FyRNPDtnAbJ+t9uA54zt4yH0att32X/SJ1kbF93B6JpQB9M68JoaBc8eONGLwnUa88JoLPyyn6x8gVaVpHsy9JPxVlDR0dv/tJElT9Xefo3LV/1BDjIK7vETZyvC9xEb25JuL3YXD0c79pLdiaGyEu6oMnqpy2OmedFCd+SYzLL36IemwSXR/TUbcsINhoAinQoKAICAICALBRyAgDEOUt5YG0gG2kzcoCmgnFEEIWCnWiJGYBneTt64IGn33H2oUrZKzL74GPc78G2ykolT19QrUblwPV842igzdSLYIxBDQYpqZAiZe7ynpAksiyOuSdeAQxI06FMkTjkfs0FEw0MIuVOnP7R48/4jXJR0N6KhxzRecPbIM2EgjzCGGoSUlUUT7eZeZ8M5AN5a94MY3//UgyuzCnL9FNtPQQJKo0vfeRPnyZXCTTQvxj0o9je8Rh1eMwPeOiW4iXt/riHtnwQczl+GPfn8xs8pMq0rgPHcjnGRMX0UMRNmyVxA78hCkn3EBkg4/Fsz8CgkCgoAg0K0RoGekIZpUf+taj1FgiI2Hh+wEyVAwqMM0kGtXkCqoh9SP/Slgb/aoONphpDHayFNSXAw/9oUiBQFSPYbJyzDwIoEXDELdDwEzGThzjAT+sH55Y2khuVvdRobNuXBWVsDtoN0AmlxjTBwsxGRYe/eDpWdfWNIyyUZBi1AZyqNuJEvsF19xkVs6IK0/9XTbrr3NJAkDU16u9tva93QK6DZooAFvv+NCiDl9aq27QUtz1dWi9J3XUPzmCzDQvaKrtPECnx8B7L6XnwVsH+Oml48psxfZJWSRfUIa+F4zJiTRc8MKDz1AXv5uBSxOJ2IpwNEJWX3JW1cJPKQm5y4vVVIKvR6ui+1kDOSX3PHTauwgBjf+4MOQedE1SDhIi4QatAFLxYKAICAI7CUCpuzeyH7mKdT+vB7ld93uqy122ulIOv1UuG2kqkO78GX/eBTOrZtUvoHUMNPm3w5TWgoMViuqFi9F3ccf+K7VD6KPPhY9bpiHsudeQu07S/Vk7Zc2VTKfeAKWrCzknDa9eZ5+RqqgKVddC8ugAeoh7iwqQfmD9xOTQu9+IrOtJjB6RNGJFmIYjCgsqSWGgZ7oAaAaCewQABSDXwVvApqirGikZUJ5RQ10I+hgtSz3RbCQ9a+XVnrp2TDRJ2a0f3rzYxYqcRRL8CcEqL174/nXzNi2xqykJffd60D1ubzB0fz5lxTP+98W5O9wUp72kGxtWP17AtdcpuXw8z2gxP9QRL6+ec/1NnzpekI7vx0pqz+t/ct+cO48THn9MfCvL92vH06XA5vnXYDGX35oZuxuotuGGYUGkiOY9jsA0eRpK2bEISSF2h+mpBQY4+J3kUBx+8vrK9Uo6HKKMjoP7noH3GTz4CwtQh0FHHT8thbu39cpxsRI9XPwwQb6cHnH2m+xZd759LL9K9LOmUU7dLuKuNu7L1TD8hWRCMh9EZHTvttBd+q+8Hsu7rZiErGmzJ2L6uUfwZyd7Stu6tMfCZNPQOGcOSRdqIV1/ASkzJmNkuvnqTKJF12C+q3bYJt/MwwJycRwPImG3zeQFsB2Xx2cnnzeObCtWOVL8z+InzETdWvXwTI5yz+52XH0UcfSA9yEostmE8NgQOqttyPmuBNQ+74WGdqcEO91cdTsss6fxCXTC7aApMeeWOhG0J2vZdcrAtW/XWuWlEAhwP8vUVYnHFShxRJP8x+omtuuR+6LtrGJ9JzW7o3N2z34/gMSMdAK86q7KMZCYjxIg5Lu1eY364B+vHx1oTzPRHnWfQMl/UPx8tnXN++53hlfup7Qxm9HDZ71+AenEIOgGz7rTESztrz9qG+0obYuD8ZfnGrRzs0zo6BUjrJ6Iemok5B63DRYBwyBiTxr7Y70tvRyqk2el7R0oN9AYMxhKstJ0gYbGeCXffQ2nN9/SRKJBtU+uwU2NtTD/uZzcO3civ63PgJzcqpene+32Vh8qXIQ6QjIfRHpd0Dr4+/wfdHi+dx6bVpq9IRJcFVWwvHDGsRPm+or6q4oR8n82xSzwImuwgIYY5uM6+InHon8v89S5T3kYc720QpEjz8Mdj+GIfHCv6F62TskyfWKyX2107OZPB7GTzoaRdfdgKTJJ/rlND905uxA9R+/a4k0rvo/NjWrT1cnbX7VHpyRKrOiGgnetgfodf9LWCWJiYIJCgkCIYfA4P4GjJ9qwIXXGTHuoLYfe9mZFJGa1qqsXkkaMkItEGggZsFeS/papNfFC3Xe4beSvpA5PQs9Zt2IIQv/i95zb0fsgaM7xCy0qL7dU3NqOlKOnYr9/vEihjz9H8QdM4WkFSYl0aCuaDFFvqEo47dfTip1zA4KCQKCgCAQIgiQKhFLAKpefHGXDnnoeeUmNUwTbbhYRh6M5Ev+jspFb6hybCdI3h3gqa7wXdeYXwBzTxJze8nUdyBJcwej9uPlelKz38SLLkLlq1RfA2/rtk3OzRvhytupFTAZEXvEYaj/8SffBW2/OX1FOnYQl8CvDqCmdVuNjlUipbotAroKe0NDy/3Cbjsk6XiYIXDVpSaceFT7j7wYEiokeyXF7Fo1JIhEwypImv67jzpVt+NP2GrzyNORE420+8RIslQh4fjpiG9IQuPiD1B4wYVd0ru4YQdhwN1PY+ADz8FEsULYUxeTgzgHJ9k27Hz8DmJqSKIkJAgIAoJACCAQd/I02Fd/B3dJYZu9iZs6FalXzIG7rg6NW7eockay93JVN98AcduqyRYsWauHnsFJF1+EihdfafWZZx58AMwZPeD4elWb7baWEX/mX+AqLUfDz2t82e2/PX3Fdn+QkKCVqbGHyEt2912WEgFEwKxLGFipXUgQ6KYI0LOXTTdUjAB2rbpPaB8zBq2N2UOL77yn74cZzCwo9VbyTBSFzDk3oe/8x2BiN2kdJWI2cvSI0R29po1ySUcehyFP/BsxY44gpkErxExD9YfLUL7y/TaukmRBQBAQBLoOAZYSJE47BTVL3my30ernFqDw0ktg/2QFetxFmx5E7oqyJubAezXHp3GWlKqzqANHUmwaKxp+/M6b6/dD75JkYiaqXnxZe6n5ZbV3aBkzjlSYjkLFow83K2ZudrYXJwlelSSxU94LELvxpT6GQVSSuvEsStcZgQxSS/qNXP205lo1pBDyX3gHmcmw/fAVar5dRd78NCaKHclmXHIdss6b06kXUTDw44jk/UnasPXGi+H59UdlEM2RQYoW/QtJRxwfcNWoYIxB6hQEBIHwRSBq2AgKQpmEzMcfU4M0xkSTA4g4mB5+lAybr4W53yB4SAfWlbdD5devWQ3zvCthTM9QqkpuciqijkuLVb65b284CwrUcczhh8PSvy+ynntenZvI/7eH3g2mlBTULP0POZ0YBvPcy1We8mttiULW8y+g+MabVN1aRtO3iWLdpJGUo/gWtqlorjIUMIYhUakkeUQlqQn3yDmiXVlWSeKlRL0wDJEz72E60kxiGPhuzsvr3gPkl4aBRSYBIDY0jvK4NccGVGcMxT7I/sulna/Zj8lhKYNStep8LbtcYSYPTH2uuw+bLz8TRhLXs/tV15+/q0jTiYdO2KW8JAgCgoAg0FUINK77CQWXz/U1ZxkxkmywJqFCZyAyMpE08wyUzr8FHmIOzBTbiIndSrO42/bxCiTMOBNVC56GISkVCWTAXDjvOlXG9p/FsH/QJE2NnzFDuWateXuZiqOQfwl5PPKSgZxQZD/6EEpuv5MCY5JNhNGE6InHwfHFSjLaIz+XJAnpcedtKH34Mbgopk5LChjDoHvGqW3OkLRsT87DFAFys65Is2EIzCIlTKGSYYU4Apk9tA4W5Wi76SHe3Ta7t2DhInTEU1JrFfB/sO4xiV2c1v62Tot/QOlOcg3IEcL5ZdNp8kpCckhXV2cWuK0vZzX5I+90nd4LYvYbisQjj0fNR28pA+hoqthOEgdhGPYUUblOEBAEAoEAxzFw5TctwF2Z2XDX1pI3pHxVfcOP38Ix9ABkLVxIi307xTUyo/iOe4hjcKv8mtdfQ9oddyJzwbMUBykaFa+8DnexJmHw0MLfxYt/L7mrbcoTk6eyXKX4t8sMA+/s6mkGciSRNvtiFG78TaXFn3YGonpmI8MvPkTdht9RTkwEu1kNGMOQ5LVhsIuXJH3eIuaXX/hRFv4m3+giYYiYeQ/XgWZn8L0MlO4IrxEy+3P0s3f7GIGOjs5dW4OGsiK108XIGChaXez+wzt6eZeWixsxBlUfvqXa5FdtfSu7ZF3aIWlMEBAEBIEWCDSs/R7l9PERMQa2V1+E7bWXoaI5t/Dy5iHvRqW33gRDYooWfdnVtgs/28uaapKvbr8DjvHgH7TNQxKMvLPPIsZE2xyzLXoJ/GmVSNIRMKPnxHjtJSsShlahDvtE5SWJ7jkKwCokCHRrBHqRSpI1iXZh6oE6+oQD8euA4y3ov/qY+KnNkgT9V09v9ksvCgN9FFFBA7nbM5h2v9fUsq1mdQbpxGix0Bg1d6/chKedF2uQuiDVCgKCgCCwZwgQ48AuVtsi5Vo10M80L7PQVpv+6QFjGPT4R44a/+rlOFIQoKjjikTCECkzHr7jNNNaOMXrWjUn1FyrdhR2XuDri/yOXtNGOSOJsU0URZTNIbhKd40NjpxtbZTuQLJXLakDJTtdpO7PjSouAzMr/HKLSt81iFGnK5ULBAFBQBAQBAIoYYjjPSrakbMJqpGIgJIw0MAp4KqQINCtEeCFcXqWQS2OQ95TUrtI87J578kYHYvYwUN9C3EzefMo/9+Spop1BkD/pRxuuTWJRtNFgT9qrChBxarlytaCa2f3r7H7jwx8Q1KjICAICAKtIcAvjzD+BE7CEKehV08Mg9dOozU4JS1MEdAZBvGSFKYTHGHDyvRuTHdnhmHK+0sDM2v0AkyeOBkuL//BQdsq3l+MytUr2qyft492q+rU5tV7kEEenPL/9RBQnE/9JJeC/N7ukYXEgw/bg8rkEkFAEBAE9gABFsGG8Wf3iqidwMxItTkp8nQ1qSUlJ3biQina7RHQGQaJ9Nztp1IGQAj4XKvmhjYcrK/vdjXA6a5H8bJX0FBcSN43tF0be10BCl97BpbMXrCQb21rYwPqdd3BTg4rZdLJKHzzeRi3bEQD6byy56TcB66H8bb/Iy9ER3WytsAW95A7wDxiFio/WKLcqXLtUcTkpJ1xAQU8SgtsY1KbICAICAIRikBAGYZoilRdS25jq8lTUnIi7zEJRQoCTQxDpIxYxhnOCPhcq+Z6t9VDbLC1m35F1Rcfo7J6C0l02dOACw3/d7u2ueXtKz+Byxc8BPYW1BhlxQ0UsGcLufP7pV8/uBy1MJGqEZMuDVAnbXwZY+LQ57JbVHA0EzEeLG0wlJdh6y2zkH3pdciYft4uV3ak3l0u6mRCPbkqzH3qHti/+EhJFvhyq9EA09DR6HH6BZ2sTYoLAoKAICAItIVAQBmGWJIqMMNQI7EY2sI7bNNpLaJIvCSF7RRH1MCyvK5Vy3eE1rBr1v+A4n8vhO2HL2Em395sLMBSBpaC1+k6Q6102UgSgUxyzdfLXoPDtmzCph2nIv20C5B6wnSYyE1qRyhx3NHInnUDCp++H0ZSAeLgaCaKBFr4z7thW70Shsau83jhrK5EOblPLXrjWRhKC0nCwigAFmIWkNET/W55pMPj6sjYpYwgIAgIAkFHgCSjBtrIaRlhWW9XuVylzZ629P4NtLHT3rX8omgrX29D/ZLnD4PJpILI+acHlGGII4aB+AXY7Pzo5v0loUhBwBeHQYyeI2XKw3qcvbMpmnEK4KjUNkDivTZa+2rQDRSkp+CFx1D50TswORvofeFRUZe5P8obEC2U+ZelCbqXPH4C8/qZyUmPZF7g84eTGolpKHx0Psrff1MxAR1VK8o851K4ScJQ/PxjMJJ7P66XWZa6NV/BRTqpW264CGknn4mEQ44MyoK9PmcrKj7/EGWkfuSmY7caE/dBkywYe/ZDv7ufQsyAwVqifAsCgoAgEEIImLJ7I/uZp1D783qU+wVIi512OpJOP1VFaQYFbiv7x6Nwbt2kem6IjkHa/NthSkuBwWpF1eKlqPv4A9+oooaNQto1c0kd1QETBUXjwG6OlR9p18YnIf2O22Gkl5gxJgaOXzag4on/o5dAKz7wSWU1+Yq5iB42FB5ybuEqq0DZgw/CY6MXIVHAGQautKbrNpq4OaEQQIDub0XiVjUEJkO6sNcI8KI6pSeQT8/JnAIPhu7nXXnvdc2dr6D6h6+Q+8it8ORtV4wCh+zh3vBuOi+YXaCIy6YYxE2eAmtWb5gTklDxr38pyYPb3YioQw5C3ZY/4M7fqa5ho2X+qC35jb9g6w1/Q8Zf5iD7oqtg0EO2t9PN7AuuUO3kP3UvTOUlyqaB7RoM1FYtGULbvv4U5p59kXjIBMSPPQKx+x0IS88+MHag7pbNukgiUrftD9ipn9VUd+1vP8NEfspZmMLMDxMbOJtoZy567JHofe29iO4zoGU1ci4ICAKCwL5HwGhEyty5qF7+EczZ2b7+mPr0R8LkE1A4Zw5JAGphHT8BKXNmo+T6eapM4kWXoH7rNtjm3wwDubjOfuZJNPy+Aa6c7fTwM6PHjdei6Ob5cOXtBEdv7rnwWeR/86WqK2Xulaj7aS1q/v0avTgMSJl3A+JOPR32pYt97esHscedqMoUXvp3tfOUNPtyxJ86XQWU4zLeZZ5efO9+E5TdgkdUkvYOxm55NcVLUiQqSd1y+qTTLRCg5yp6kGvV/A0e7KRYDPuKYSgj96W5j94GA6kfqUU+9ZMNejmgumX0OKSdeBotzI9CFHkEYhGyIlpIO15agvennIkp7y9Bn4deQGNlOWb/3804ePtWjMzZgZT6em2hT2WNjY0oe/VJ1OdvR98bHoIpdvfiFFZlihkyDAXPPYbGz5cjiriPRmIaFONAnXCRbUH1f99A5btvwBOfCHN6BmL6D4a1d39YiKkxEVPD7RjI+MlAL1GPy0WG1PVw2W1wUvRRjtBct30zGugF2FhWDKur0Ss9YSmJNkxmFBgLD70g08+6BJkzL6L6vA8irYh8CwKCgCAQMghET5gEV2UlHD+sQfy0qb5+uSvKUTL/NrXA50RXYQGMsdFaPj3j4iceify/z1LnvNtv+2gFoscfBjszDJRfdPNtilngAp6qclrsu4iRID1xyoseORyVCxaoa1klyb7yM6TNvaxVhsHxw/eo+2KVT0zdmJtPmz9Z2rVUV0AZBj14W41SSdLakO/IQEC3YWis977NI2PYMsowRiDD61o1dx8ZPpctX4qch26irfRGtUim9TGiSKpgOfAg9LvwSrBNQUciLvMUmZNTsSm7l/qsGDYS/zREkzrSf0gsXa/qZmak9tP3sJ1EhANu/z8YSQS+O2IGYOC9z6Dqu1UofvNFNJJakpVsG/Tdf17Yc58NNVVwklTAvuNPkNWFclPOZZjB8NBLSCWQL25mACx8TqSrVlHcU4oyTaphKlWrT9kp0LkhJR1JJ5ymjJutvfp6S8iPICAICAIhiACpEiWfdw6Kb5kPc+8+zTrI0Z09pJljyuoFE714Es+aicpFb6gyBtpwoV0VqCjP3qsa8wtgHTFcO6P3gytvBwxJqXR9FuKOOx7VH35K9VWpZ6urohLG5DS4aSOGyZyVCXOPdJWnjN+0WtS3u7RI/ZoHDoaZHGTEn3Acyu6/T6VxPwLKMCR6befsYvTsNwWRcehjGFpRi4sMBGSU4YaAZvjsQd4+YBhsP36NPJIsMLPAi2u2RWCVnrRzZyOLVII6sqBvaz5KE5PQZ9btSDzyeOSQHYORdvNZMuCgD774ELlP34e+8+7RXihtVaKn0wI/afwk5Vq1dsNalJEhMhtku3N3KOaGalSqQ0p9iE/8iFkDAzEq+kuLm6/jcz/iMqxuFEUHnOUkDKxDR1JciJORTK5eLZmkNyYkCAgCgkCIIxB38jTYV38Hd0kh0IJh0LseN3UqYg8Zg4aduWjcukUlGxOT4aqu1ouoX7etmlxGJzdLsx48BonTp5FaqQnlTz6j5dFDs2bl50i96gqUP/UMSS1iEDvxaC2PVJn4/bIL0fM2edYsWHr3hG35x3BXEeNBxP0IKMOgqyQJw7DLFIR9gq4JQNoNQoJAWCCQmaENozi3a4fDKjg7HiTJAumyaswCuQmlHf+e196DdDIoDhQljZ+I6Mdfw7Y7rwQ2rldMQz2t2hvfXoT4UeOQelyTyHx3bRqMJsSNGKs+zqoK1P6+DlXEONRRve7tf8JdUeazNdCjhTJroLMHzBgw8S+nMfPgoiMPMQgmUmGKHjAECSPHKsbE2ncQjLoOJF8kJAgIAoJACCPAu/OJ005B4ZVz2+1l9XMLUP0cOXAYdyR63HUHisiOgZ+dLZkDU3IKnCWaxECv0PHZJ+CPkdQ/s595GvmXzFLqSbqtQuqVl8NJ0obKF16A5dabW2cWuDJiMkpvvI44BBMS/nYxEi/8G6r+9ZTWD72xQPwmelVfaykOg1BkIWDlLUAi0nAQEgTCAoGemdo9Xb69a4eT//zjMBSQ7j49uLkHLFnodd19SJt8Ric7svvnMNsUDLhvAbZe/zd4tv6h1IR41z/vXw8gfvQhsKR79Vc70bI5KQWJxIzwx8OelMh+oqEwD46dW8hOYicaSorgZsNlcg/InjjYRSCrVrHBtSk+AWbaybKQaD6a+mbtO5BelukqrRNdkKKCgCAgCIQMAlHDRsCUnITMxx9TfTLGRMMYFwfTw4+SYfO1MPcbpHklItUipvo1q2Ged6Va/LvLSpR9FzMC7tJilW/u2xvOggJ1zKpIrOLUuGGdOucydT//Auvog+H4/FMYLFbYly2Gfcm/VX7UgSPJNky7ViX4fVlGjSEPeptJnYkkGmQHUffJp+RhaT5YxsDuWAMrYYjXXrAiYfCbgQg51Df8WvPUFSEQyDDDDIGsHgbE9dBiy1TS87MrotfXkjegCrJd8PAWOxHbLKSec0nnmQVa9E95b0mH1IqsFAm6L8Ut2HLVX2AkUTfbHkQX5aH0ndfR8+/X7tWsMiMQlZahPnHDDtq1Luqn0jUiw2chQUAQEATCEYHGdT+h4PIm6YJlxEjEHTMJFToDQXYLSTPPQOn8W1TsA/PAIQoGZXdAz0jbxyuQMONMVC14WtkqJEw6GoXzSArARBsuPebfRNKLq4mhKFJelKyDB6L6Dc0GIvnqeWjY/Cfsb5HNGi3Uks4/DzXve12ykhQheuJxcHyxUkkcrIeMhXXsGNheWKiqto4h9ait29UxP6cDzDBo9daR8YZQZCHgYxhEwhBZEx/mo03JBuwk+WXXql0Rvb7knUWIojgLbOTLQjvT4GHI/iupDAWZ4g4YiR7nX4ZSigzN9gws3SghD0ccLTkqlbimYBEbOfNHSBAQBASBMEXAQ17u2HOcTi4yKHbXksppYb5KavjxWziGHoCshQspDoOdvL2ZUXwH2ZERM8BU8/prSLvjTmQueJZiKUSrOAtuis3DxF6Typ9agMxH/kG2DjUUhyEeVUvegpNUQZmqXnwR6bfdhjiyXTCnJKLmi9VwfP25yjOQalPa7ItRuPE31b+af79BblevQ9YLL2oSj8oqFYdBFaavADMM2oO/zqZXL7+RgoBu9ExrHSFBICwQ4HUsu1bNXe9Bbp4HI/YP7sK2gXaHqr74mOwWNOkCKeogixbxxpjYLsEzY/p5KPvvmzDnbVNSBgvFWKj+ZhXSTgmc3USXDEQaEQQEAUEghBFoWPs9yunjI2IMbK++qOIdqGjOrBLkR54GB0pvvQmGxBR4yPU0SNXTn5gBKKCPgYK0eex0rfcdwmXYyLp47uUw0saP20bKRX5qIB7ynJR39llUSHvncN3l99xBu1UW5aabGR1/CqgcOMFrw+AQCYM/xhFxbLVow/S7FyNi3DLI8EYgw2v4nEMMQ7DJvn6NMlLjZ72ZeBMLGfomHXFcsJv11W8iw7y0U2Yor0ScaCCOiV2m+r98fIXlQBAQBAQBQSCwCBDjoOwH2qhVuVZtwSz4F1WuVP2YBf88N20A+TMLvjwvs+A75wNayLVkFjg5oAyDvmhsIAbHIaopjG/EkMVr9OzUHaZHzMhloOGMQJbXqoRIjwAAQABJREFU8Dk/pwsYhg0/EaNAgcgIUP5NPPQomKze4D1dBDLHdmhkA2Rqj12h2n/5Ec5a2QHqIvilGUFAEBAEQhaBgDIMPEpLvLYhVS2ekkJ20oPRMd2GwSWMYjDglTr3EQJs+MxUnBfcDnhoZ8nB7kepGW6xgbiG2OGtGAl3ohv+LA7X+QXFXtB/26ommrx1mMkzEsd94I2nxsoyOL3BfNq6RtIFAUFAEBAEwh+BgDMMMUkaaGS3IRRBCFgpCrmRLGLczVXrIggBGWo4ItDT61W0ssleLSjD9FAAnQYyYtOlw56oKHIrOmDP2iLpRJ/338cHU2eqX72S3TELXM5IEg1rn/4keubSRI1ONHpd+WkJ8i0ICAKCgCAQiQgEnGGI9TIMNSLFjqj7yWQijy5Wbcj6oieiAJDBhiUCPVINiPcyDaUVQRwiSRjctXYOVaYaMZJakDnB+zANYrMtq+YAbOaERJ/jIg/54uZ4CUKCgCAgCAgCkY1AwBkGirujSFSSIu/GMpGUgalBoj1rQMh3WCCQRgwDL+NzybVq0IikAmCu20sesh/goGd7TFwffzpL3K7T1XQV1cHMi5AgIAgIAoJAZCMQcIYhLlF7SYmEIfJuLLPXU1KDuFaNvMkP0xHzmjudXKsyxxBUT0nELJgSk0gRSHt+eshLRUNZUZejyqpRzrJin2oUB17j6MtCgoAgIAgIAkFGgF44hhivu9FWmmKXq9iHQS4DvnWU4H231NiDuBvXCpCStO8REAnDvp8D6UEHEaAHM+v5d4QyM7VSubnBe6YZzVGw9uwH18b1KgZCFKkCObb8gYRR4zrSxYCVcVKkZ0fONjK+1sZqIG8GURQJWkgQEAQEAUFg7xEwZfdG9jNPofbn9Si/63ZfhbHTTkfS6adSrATS56fAbWX/eBTOrZtUviE6Bmnzb4cpLQUGqxVVi5ei7mNvtGZvDcb0TKTdeAOMsTEouvwyLZXec1nPLoQpJdnXDomM4czLR9HcK5rSvEfmQfsj+/GH4a5v8l5T+cZ/YH97CUzZvQIbuI3bTEzUWraL0bN3CiLnJ8prw9DALl50o8nIGb6MNEwRyMrgXX8PCoIciyFm8IGo++w9haKRHvS2td+qSMt7CuucWRd0+lL7b2vphVWpQi+YqA9RZHhtSU7rdD1ygSAgCAgCgkALBEg6kDJ3LqqXfwRzdrYv00SOJhImn4DCOXPgqauFdfwEpMyZjZLr56kyiRddgvqt22CbfzMMCcnEcDyJht83wJWzXeVHDR2BNCpb8+lniDtivK9efpAXXnpJ0zkdxZ0+E0Z/BsIv10gL+Orln6DqX0/6pWqHroI8mG0B1h2yRLEebhQqKhthq2keJW6XHuwmoUa4jt0gFFrZBqOFllVGmvtaJMQFbzdW7ovQmvdQ6k0w7o3EBNbctKBwh4eeacHz5mAaPBz1yj+RC430oK/+4StU0A6TOaNnl0Fc/NE79PQG9UMLHhc96hDYeLfJb8epyzoTwIaCcV8EsHtS1T5CQO6LfQR8iDfbqfuCntUdpegJk+CqrITjhzWInzbVd5m7ohwl829TzAInugoLSFLgjcFDGzfxE49E/t9nqfIe2tCxfbQC0eMPg93LMBjMZhRfR9KF5BTEHd62VNpgjUHSqVNQcNXVvrb9D4zJyXBVtO3dw5wQTzpRAaS0NPYk7kZDQxQS4vc+6FCg+xfAoUpVLRCwRjuVXCEqKpbmXtPFblEkYKdyXwQMyrCrKND3xpCBDJETNUUGuq8D+7z0Bz/u4HEopejOjVt+V2pJlpoq2D9cht6X3exfLGjHtZs2oPbrT+EhN2f839tA330nnhTUMQdtMK1UHMy5a6U5SeomCMh90U0mqou72eH7ghiGyo70jVSJks87B8W3zIe5d59mV3B0Zw/tRZmyesGUkYnEs2aictEbqowhntR2DEaoKM/eqxrzC2AdMdxXR8Mva9WxMTm1XWcXMSdOhv3b7+GpLPdd639gTEpS6kuZTz8DU2oK7F98jaqFC4iD0RxwBNzoOcH7Pq2VwG3+8xARx1Fk9My8dr14SYqI+Y6UQSbT8zrRu8lfWNLx3aTO4mO0WJE2ZSZYFYiJIy2XvfM66jb/1tmqOl2ePTLlPf8ITA0OFTyOI03HDDsYccPGdLouuUAQEAQEAUGgOQJxJ0+DffV3cJcUNs/wO4ubOhWpV8yBu64OjVu3qBxjIu36V1f7laItebI1M7ehVtSsoP8JMSxsI2FbssQ/tdkx2zpE9e2LkjvuQuHlc5XaVMK55/vKBJxhSPTuLJNLcaEIQ6DJS1LwFlURBqkMNxQQoPV7GjEMfFfnFgb33k478XR4snrDTG1yPBNDrQ07H7kVrhpbUJEoevMF1H29Ao3eICoeYhiyzpsNox7CPaitS+WCgCAgCIQvAiwlSJx2CmqWvNnuIKufW6BsDuyfrECPu+5QZd0VZbswByZSPXKWlLZbV8vM2ONORO3a9XCXtu19r2bJf1B2522qjLu8BJXPv4DYcYf6qgo4w6BL7OuCp+rr67wchBYC5OhFkcRhCK15kd7sHQK8398jk75pAZ+bt3d17e5qc1IKel5yHRXTHKzyAr5xw0/Y/sD1tOvUuQBqHMuhI1S6fCkKn/0HXFScr7AaSWf2qBOQdPixHblcyggCgoAgIAi0g0DUsBEwJSch8/HHkPXc80i/9irEjh6BHg8/qq4y9xsEU69+vhrq16yGmVSCjOkZZNdgV16L+Fgnc9/ecBYU6Ke7/yX1j6QzT0fNm+0zLOY+1IfoJreubIDNXpd0CjjDkBjLr1fAEdwNMb3/8htCCFgs2qJK4jCE0KRIVwKCgM+1apA9JXFnU4+fhsQTpquFO5/XE9NQ+/lybL3jCjS0szvEZf1pwcJF/qetHhcveRE5D95E+k+NPlUkT2oGel9+Cwx+geRavVgSBQFBQBAQBHaLQOO6n1BAKj6s6sOfikX/hmPTFpQ/qjEMRrJbSL16rnKZypWZBw5RdbrLSYpAGz+2j1cgYcaZKs2QlIqESUej7qsv1XlHvmKPPQGODRvJmDq3eXFysRp9zInUoLbby3YRiRde6LODiD3+BNT9ssF3TeDjMHhtGOqJYeANLq86rq9BOQhfBETCEL5zG+kjy+zBGyHkWjWIsRh0jA30EO9z9Z3YkrcDVnJzygxDA30Mq1dg6zXnIWvOzUg+/Bi9+B791hfkIP+5R1H10dtqXCxdMPEQrdHoe8P9sPbqv0f1ykWCgCAgCAgCzRHwOOrgys/xJboys+GuraUFfL5Ka/jxWziGHoCshQvJPsEOA8VhKL7jHtJLZSdCQM3rryHtjjuRueBZGGOiUfHK63AXd1DCEBWFpLNmoPj2u1Rd/l8GUm1Km30xCjf+pvpnf+9dpFx/o4rd4HG64LLZUHb33b5LAs4wMINgJGbF6aBBkh2DbgTta1EOwhYBui8ViYQhbKc4YgfWk6M9ExXv7BoIWDWp/11PYfv82TD88QscxDAw4+AmN6vbbroYyZNOoRgNf0X8CDJK7kTkT2YUyj9+F6XLXoGhnCM6e5QaEttMsMu9ntffh6Qjj++aQUorgoAgIAhEIAINa79HOX18RIyB7dUXYXvtZXA0Z/aa5E8eckZReutNMCSmwGOn3Xiv1yL/Mnzs3PpHU9A2PbOxEQV/u1A/a/brIQlG3tlnaQZzlMMqSOV33wGfZyZy4epPAWcYuPKYJMBOkpRqivYcbPea/oOR432LgM4w0P0pJAiEFQK9s8mmwETPtZKuG5aVIoIOuH8hdj5wAzxrvlQGyRyfwUA7P/YV76Fy1XLEDh2N5AnHI/aAkbD2HYiolHTFQBho58ZArIDTVoWGglzU0Yuk+rtV9PkCpuoKslfwKJsFHg3bLICCs/W69l6kTDq56wYoLQkCgoAgIAg0IUCMQ0tmoSmTFvT07A440UZUS2qrD0FlGDjCNTJbdkXOwxUBi0/CsOsNGK5jlnFFBgLxsbSmJk9Jlbmap6TeXolDsEdvyeyJgQ8+h/znH0XZ0ldgdjYo9SSWNhjcjaj/ZQ1Kf10DBwV8i0pKhjEuAab4BMU0DCejuN/+9zSJlckFX0Odiq3AhtD13n9Pdt/KkgXLyEPQ+6o7Ebv/8GAPR+oXBAQBQUAQ6KYIBIVhiCO/5SRgoKio/GaiN5JQRCDAcRiYxEuShoN8hxEC9BhLywYqiGHIK/CgqxgGRtAYHYPeV8xH4viJKHrlSTh//AZRJBVguwaWODTSY9YAF9yVZSogj4uu4acusQ1kyKxxBw1eJoGSEEWMAgsVDJm9kD7jQmSc8VcYKAaEkCAgCAgCgsBeIMA6+WFMQWEYODAdE9luCEUQArrLdrFhiKBJj5Ch8msgnVyr/kkL9Jx8D8Yd1PUDTxx7JBJGj0clRWMu++A/inEw1teCNKWUepGLmAO2SWDS+QPuNxszM4PBxNIFy+ChSD5uGlJPOgOWdBEBK2DkSxAQBASBvUXA+/zd22pC9frgMAwJ/HIiV1CskiQUMQj4GAaxYYiYOY+kgequVfPy9t2oDWYzUo4+SX3qc7ah6vvPUbN+DRp2bkVDUT7ZLJCxnIc8a9CLy2AwwkjRPU3EFET37ofYIcORMP5o9WuKafK1ve9GIy0LAoKAICAIdBcEgsIwJLAsnKhGqSRpx/Id/ghERWmMYmN9+I9VRhh5CGRlaPd3YRe4Vu0IutY+A5DBnzMuhNtBLvrsNerDAd485EXDFB1LNg3xFHgnDuYE8kQhJAgIAoKAICAI7CECwWEYvLEY7KKStIfT0j0v042e6xu6Z/+l14JAewj0Ik9JTMU72iu1b/KMzBzQJyqtKRrovumJtCoICAKCgCCwRwiYzMqlqaeqvNXLOWibp5ZUdxpbWWSR2qnKryJPSt74Da1WsheJQWIYtJ04YRj2Yma64aU6wyBuVbvh5EmXd4sAu1Y1kSewOnoeu8iyONQDIbNHJHavKiQICAKCgCAQGgiYyF129jNPofbn9Si/63Zfp2KnnIbE06fBVVUNU2wMSu68By6Km8NkHrQ/0m+9UQV1M2eko3LxUtS+u8x3bcwJpyDl/LPRWFYOc3Iyyh79PzT8staXrw7IK03mE0/AkpWFnNOmN8/zP6N3RuzkqUi95CKUPPgI6r/7ypdr9B0F8CBelzCISlIAUQ39qnxxGHS/jaHfZemhINBhBKLJC1hyL614LnlKCnVasHBRqHdR+icICAKCQOQgQEE2U+bORfXyj5qN2ZiRjcTTpqDosstQcs1VqH5/OZIuvFArQztTGffcQUzAP1F81ZUouPgSJJx4HMwHDFP5pj4DkXLuWSi48iqUXE2fO+5C2rVXw9DCTi1+xkzUrV3XrN3WTlLn3wHryBGo/3NL82zqR1AYBj1YW62oJDUHPMzPdKPn1qRlYT50GV4kIECb9WlZyp4Y3YFhiIQpkTEKAoKAINBdEIieMAmuyko4fljTvMtuF8ofewIeR51Kb9i8CeYszYOdqWcfuO21aNygLfZZJcmx7hfETZqkylqHD4P9+x+VS21OcO7cBndtHawHjVX5/GWieD7xk46GbfFiX1pbB7Vff4OKB++n+D015LqoaWOM+xEchsHrgKNOvCS1NSdhmW5VRs+tq9eF5YBlUBGFACv39PAGbBOGIaKmXgYrCAgCgsDeIUAe65LPOwdVL764Sz3u0mI0eBkCzow5/AjU/fiTKucmz3emJHJaYWQH2kSkMhQ9aiQxARpD4a6sgiktVcvzflv69aH8Jnu2xIsuQuWrb1CQLEezcq2dOFZ6pR/UDv/pxP0IDsPgVUmqs+lNyW8kICAShkiY5cgeo/4MzsuNbBxk9IKAICAICAIdRyDu5Gmwr/4O7pLCdi+yDBuFuCPGoWbZElXOQ0bM9Zv+RPJV18DcdyBijj0JxphoZefABep/XY/oIYMQe+oZMJHXvISLL4WrvJxUkmLU9ebBB8Cc0QOOr1ep8z394n4EiWHQuBKHSBj2dG665XU+o+dWDPi75YCk04JACwSyKHgbU6i4Vm3RPTkVBAQBQUAQCDEEDBTNOHHaKahZ8ma7PTP2yELa9fNQet9D8Ni9O+7kvKLs/vvgoYi4aTfdAMuBB6DildfQWFik6vLYKlF8y+2IHjYU6TddD091NWyrvoST80lKkHzxRSTVeFnTpW239d1kUj+C4iUpxqo13FBFEhAK4qUvJHfTHcnu5gjo89y4e6lXNx+pdD9SEejjda1akhP6CMyZdUHod1J6KAgIAoJAmCMQNWwETMlJyHz8MTVSlhAY4+JgevhRlFx/rUozWGOQftttqHjuRTi3bmpChNylguLqVD39BGhJrSj+7PPgzMvXTsgVq7MgF+X336udE5OQ/sBDcKz+RrlojRkxDOa5l2t5ZHTNC/Ks519A8Y03wV1WoqV35Jv6ERSGgdu2UPC2BmKQONpzWkpHeiNlujsCVvIiw+QUCYMGhHyHHQLsWtVMkt56enJzvBH9ng+7gcqABAFBQBAQBAKCQOO6n1Bw+VxfXZYRIxF3zCRUeBkIJQmYdy1qv/mGVIc+95VTB8QQZD37LEruexDOzb/DkJqOhJOOR9ENN2nZWb2Ref/dVP8V8NRUwzJqDEzEjDRSWY7HkH/JbF99hphYZD/6EEpuvxNujtdAdhHRE4+D44uVtHCj3f32iPoRNIYhJtnLMNg9xDBoYvz2+iJ53R8Bi0WbZ6dIGLr/ZMoIWkWAYy8k9wTKtkJ5ShrUT55trQIliYKAICAICAIKAfZ+5MpvEku7MrPJk1EtXIWalIAX+fFHHgaMOwRJp3tjJJAKUN7ZZ5EXmUaUPfZPZNx2CxrLK2BOSULFS4vgLi5QdbvytqPqnfeQ/ewC5YGJ9JBQ9o9HiAFwavl+7TLDwI6P9L4w85E2+2IUbvzNl9bmlFE/gsYwxJGEgcUn1WLH0Cb+4ZahGz2LhCHcZlbGoyNA0l6kk3OKUnJRzZ6ShGHQkZFfQUAQEAQEgY4g0LD2e5TTR6eGn9cg55RT9NNdfhvW/4T8C/8KY1oGqRGRbYK7yd0pF7a/vQT2D96FkWwl3OWlu1yvJ3jqapsFbfNQWcWUtKiPuQr/oHL69UExeubKqd+KakjCIBQZCLANAy+oXPWRMV4ZZWQikOF1rZrXDYK3ReYMyagFAUFAEAgzBEi9SHlY2mVx7x0nGUW3xyy0iUZb9bVyQRAZBk1UzzYMQpGBgJnUNYxeO4ZO3IORAY6MMmwQyNQZhtzQHpKHRNpCgoAgIAgIAoJAIBAIHsPgjcVgq5GXViAmqrvUYfIyDOwdS0gQCEcEemZpoyrMC+1n24KFi8IRfhmTICAICAKhiQCrWITxJ2g2DPFkw8BUIxIGDYgI+TaTS91GmnOSjiHayzxEyNBlmBGCQC+vhKF0R4QMWIYpCAgCgoAg0CoCHjIyXjD6yFbzwi0xaBKGhHhNJUkYhnC7Zdofj5nsGJhEwqDhIN/hh0BvYhgsJEFttJOxWV34jU9GJAgIAoKAICAItEQgaAxDvFclyU4vVaHIQcCnktQQ2uoakTMjMtJgIJCcrbzTKU9Jwahf6hQEBAFBQBAQBEIJgaAxDAlehqFWbBhCab6D3pcoXcJAKklCgkA4IqBcqxLDwP6s2bWqkCAgCAgCgoAgsLcIGM1GJCR6F8+tVMZ5ZkvblgSxcbFt5hspynN7dfs3FxMTg2iKRt2S2m65ZclOnifEaSpJtSJh6CRy3bu4WYyeu/cESu87hEBGpgG/EceQH8IMw5xZF3RoLFJIEBAEBAFBoGsQSM9Iw5WXX4zt23fipZcW+xo9csI4HDZ+LOwU0C062opFry1FSVGpyu/TtxfOPutU1NU5kJSUiC+/+hZffP6t79qMrB6YOWMqTOSqMpYW+z/99As++ugzX/5JJ03CqFHDYLfXIop2dV9/YxmKvXX7CtFBHDEc550/AzHELFiiLNi5MxdL33ofzgYtCFzQGIb4OK0bdWL07D8fYX/MDAPvudaLl6Swn+tIHmCWMnymSJx5kYyCjF0QEAQEAUGgwwiQTs9pp07Gjz+tQ1pqiu+ytPRUYhbG4J9PPI+G+npMOGocTjphIhYtWgqDyYALzj8Ti998B1v+3K52/mfPvgA7c/KxfetOmKJMOGvmqVi58kts+PUPWCiC7sV//wv69u+NndtzMWr0MPQf0BePPf4sGsm49KCDR+CkEyfh1VeX+NrXD047bTK2btmBTz75nHzkA2fPnI6jjhxPdX+ligRNJSnRa/TssOldkd+wR4CESk0qSaKqEfbzHcED7OV1rVqUI/d5BN8GMnRBQBAQBDqMwMEHjUQtSRA2bdrS7BqXy42331mumAXOyMktQFJKsiqTmdEDdY56xSxwgoOkDNuIURhNEgOm7KxM8krZqJgFXuQ3kIvKfz3zsmIWOP+g0cOxYsWXilng/LUkfWiNWeCyzFh8v2YtH1I0aeDndRswduxo7Zy+gyZh0NWwHNW+tuQgAhAQL0kRMMkyRPTO1lQuxbWq3AyCgCAgCAgCu0MgyhKFSZOOUGpIGaSW5E+VFZXgj07DD9wfWzZvVac1NbVIiI8F2yC4Kdoz0wBa2FdVaYvrtLQUlBSXYPr0yUrtiNM/+fQLYiA2qrKpJMlgqcPVV19K6kwJxKxsxdJl72sMhCrR9GWnthITElBVodWdSkxLYiLFSGDRAjVttgXR76kpKhqueqCo2I7Y2M7vxNWIi6WmmewmR0YjWT17TKiudsBWo93cge663BeBRjR86uuqeyOW7MGsiVY02AzIK7QjMb7zz7fwQT30R9JV90XoIyE99EdA7gt/NORYR6Az94Wng4/+Iw4/BBs3bkZ5WQVaMgx6u/y73+ABGDp0MJ56+iWVXGOrIdXXQsyYMQVffv09+vTOJgYgSjEBXCAlOQmjR4/AqlVf48GHnkS/fr0xc+Y0FJeUorS4FMxQTCD7iH8vfpviotVi+qkn0uckLFnynqrf/2vd+g04ddqJeO/9j2G1WjF8xAEq22w0w+l2wpyg+z/1vypAx9HJTthLaP1oiCUOSduR62zVwexfZ/si5XePQEysiwp5YDRF05wHTeON6m7bk8DueyklwhmBrrg3+CWR0suJQtrEqbTFQg/mFkq4eqiTBnbpJKQQ6Ir7QqDufgjIfdH95qwretzR+6IjDENMbAwOPfRgPPXUC+12PSUtGWecMQWvv74MdbVNQX5ef/0tTJ48CWedOQ25uflYQfYK+w0aoOpiI2mWPuh2Bpv+2IKNv2/G4P0GKIaBC7EKU1EhLcaJPli+ApfPucgnNVCJ3q+Vn2m2ClOnngh7jR0ffbxK2TE4nUE2eub2Y5MosBH1sZoMn8mIWygCECDDekUc6VlIEAhXBJRrVfKUVPg7GT6Tp6Rhg0NvYb5g4SKIp6RwvQNlXIKAINBdEBg0qB95IIrBnDkXqi6zhIA9Ic2a/Vc8u+AVb5oF5507Ax9+uBK5ZNCsE2/6uNwuvPXW//QkHHf8USgjSQVTRUWV+vgy6aCeFmAWMihlZiaHGIwiUlnSqcHRQLamJtIyIhUn1jPyI/aM9NnKr7FyhcY4DNyvP8rLtXa4WPC2gKnyuEStJzaJxaABEQHf9H+gqFG8JEXAbEf2EDO9hs/5+R2USUc2XDJ6QUAQEAQiEoFNm7bh6WdeIlepS9TnM1IfyssvxLJlXrUgWonPnDlVSQbW/byhGUYsPbjmmlnoR16PmBLJreqYMaOw9udf1fnWbTsAgweDaHHPFE9B0A4kG4it5LaVac2adRhz8EglheDz8eSNaceOXGUPwXWPPWQ0zGbNnPlMUns6euJhXAxsc3HspCPx/Q9eI2hKC5rRMzcYT7YSTCTZEIoQBJokDLKIipApj9hh9hTXqhE79zJwQUAQEAQ6igC7Si0uIoNeL7EhMrs4LS0pVylDBg8iu4UhGDJkEA4/fKxeDHff+xhcLpYufIBzzj6N7ELtiKdYCZ9++jnKSrVr3U63MmKeOWMaauvqyGg5Hl99/Z3PS9JPa9ejH8VxuOHGKyiOQx1cThde8bpUZebi5MnHqHgLHJdh+Yef4dxzz8CIEQeqmAy/bfgD/gxMUBmGuAQW03tokL7xy0GYI+BzqyoShjCfaRmexjCQU4dcYY7lbhAEBAFBQBDoGAJsY8Afndju4NZbH9BPd/ndTJ6NHnr4KTJwTkZFeSWpGjV/5+zYloNHHnsGKeTViD0cMZOhEzMUy5Z9ALajMFNgNxvbCHipmjwq3XPP47762CD7SYoFkUSG1HaKuqwHbNPLB5Vh0O1SRSVJhzv8f8l7lyKxYQj/uY70EfbyulYt2x7pSMj4BQFBQBAQBIKJgMflUR6W2mpD5Zc22Ru0LOdvRO2f15L54Lyqyir/Ir7joNow6AyDvYmh8TUsB+GJgI9hEAlDeE6wjMqHQDoF6owhd9oe2swpa3Kh7cvf1wdi8LyvZ0DaFwQEAUEgfBAIKsOgu1IVG4bwuWF2NxKLRfMW0yheknYHleSHAQIpZPjMwmH2lCQkCAgCgoAgIAiEKwLBZRjiNNhqbPIyDdcbqOW4dC9JDU32PS2LyLkgEBYIsGvVHmz4TI83YRjCYkplEIKAICAICAJtIBBUhkFXSSLbCaEIQUBnGMStaoRMeIQPU3etKgxDhN8IMnxBQBAQBMIcgaAyDLpKUl11mKMow/Mh4POS1CBSJR8ochC2COiGz/l5cr+H7STLwAQBQUAQEASCG7gtMV5DuE6MniPmVtONnsWGIWKmPKIH2tPrKak4J/RgaM37Rej1UnokCAgCgoAgwAgYzUYk6AvnViDhPLNlz5ybmkwmFYytlWo7nLRnLXew+vg4zQDWYevgBVKs2yNgjdLm3ClGz91+LmUAu0egtwreBpTv2H3Zri6xYOEiiKekrkZd2hMEBAFBoG0E0jPScOXlF2M7RWJ+6aXFvoJHThiHw8aPpfgHtYiOtlJE6KUooWBqTH0o8NrZZ51KgdccSKJIz19+9S2++Pxb37X6wcFjRuKM00/Bx5+swuervlHJzGCcPv1kVYfb5UYNeSF6499vw96KN6LefXpi1qXno9FPp/yLL77FqlWrtbr0hoLxGxej1VpPDAPHkSAGRyjMERAJQ5hPsAyvGQJJFM0+rgdQS8/14jIPMtI0hrlZITkRBAQBQUAQEATICOC0Uyfjx5/WIY2iPeuUlp5KzMIY/JOCpnFU6AlHjcNJJ0zEokVLYTAZcMH5Z2Lxm+9gy5/bER0TjdmzL8DOnHxs37pTr0JFZp408QisX/+bL40PDh17EAzkoeOxRxeoAG2nTj8JE448FB9SVOeWFB8fi59+Wo+3317eMkudB9WGgVuwJmnt+gWX0xLkOywR8Bk9i4QhLOdXBrUrAinZmmvVXHGtuis4kiIICAKCgCCgEDj4oJGoJQnCpk1bmiHiop3/t99ZrpgFzsjJLUASRW1myszogTpHvWIW+NxBUoZtxCiMHjWMT300efIxWL36B9hszW0Afv9jM/773se+aM5lFM3ZYvVG2PVdrR3ExcXB1orkQS8WdIYhNlFrymYXo0Ad9HD+1Y2eG8WtajhPs4zNi4C/a1V6xgsJAoKAICAICAK7IBBFu6mTJh2B5a3s7FdWVOLPzdt81ww/cH9s2bxVndfU1CKBdv6Nxqbl+oABfZGS7N2Np1LZPTPRq3c2vvvuJ18d+kEFRRXlKM+sbjRy1IE46KARirHQ8/1/WcIQHx+Hq666BLfeejWmnzZZ2VXoZZp6oKcE+LeJYQhwxVJdSCKgM65iwxCS0yOdCgIC2SRhYMoXCYMGhHwLAoKAICAINEPgiMMPwcaNm1FOO/zt0X6DB2Do0MFY9blmg1BDEoO8vELMmDEF2b2ycOi4g2Ah5sOi639TZSedOAkff/w53G53m1WffPKxmHLK8dhM0g1mQlqjeJIw9EhPw6uvLcFTT7+EVJJynHj8RF/RoDMMcaTjy2SrEQmDhkR4f1t0o2eRMIT3RMvofAj09Bo+F+aG1jNODJ59UyQHgoAgIAjsMwRiYmNw6KEH47OVX7fbh5S0ZJxxxhT8e/E7SiqgF3799bfgdDpx1pnT0LdPL6xY+SUqK6tU9qD9+ivm4fffNunFW/1d+OwiPPjgkzBHmRWD0Vqhzz77Gi+/8iZYKlFF9S//cCWGDNnPVzSoXpK4lbgENgL0EEfja1MOwhgBnel1OsJ4kDI0QcAPgd5e16pFIeha1a+bcigICAKCgCCwDxAYNKgfGSXHYM6cC1XrLCFgT0izZv8Vzy54xZtmwXnnziBj5JXIJYNmndhg2eV24a23/qcn4bjjjwLbIjANI/WlHj3ScO21c9R5LDEn7FKbVYs+eP9TDNl/EHJJX7bWXqskED/+9AvOPecMVbblV1Z2BkpKytHY0KiyHGSAbfWqjbBKVPAZBm8sBptEe245N2F5bo3ShiUqSWE5vTKoVhDQg7dV5bWSKUmCgCAgCAgCEY3Apk3b8PQzL/kwGDiwH0aOPJCYgA+0NNL1mTlzKjb+vhnrft7gK8cHvFC/5ppZWLz4bezYnotEcqs6ZswoPP/866rcSpIKfPvdj75rjpownoykHfjyy+9U2v5DBpGUYCDef+8T7XzwQBQXF6tjrptdsf689lclwRjQvy/GHDwSS5a9B5B20yFjRmPHDm0njNWdgs4wxOsMg6gk+SY0nA/MdEcZ6eN20oc0NIziZTKcp1vGRgiw++iELKCmiOwYijzomSk3vdwYgoAgIAgIAhoC7Cq1uKhJTzuVXKryLn4p7eYzDRk8iOwWhtDCfhAOP3ysdhF9333vYxSSgKULH+Ccs09THozi42Lx6aefo6xUu5ZtHPijUy0ZOHMsh+oqLQDapyu+xMwzp+K66y5Tkopae51SeeLy8QnxOJm8K+3cmUv9K8VXX39P7UzHvGtmg2M2cNyHVxct0auGgUQXQVW8fet/Liz5lwdHnW7AnL91LhCDjfSYEnSOw9dlOQhlBPhu+us5TjjJpubFpWZEt+69a6+GIPfFXsEX1hfvi3uD7/mb73Bix8/ANfcYceiooJuGhfUcBmNw++K+CMY4pM7AIiD3RWDxDJfaOnNf8PN//vwHgj50jseQkpyMivJKn4vUzjTKAdyMBpPPdat+Las8tWQDWK3JQNKHlsHdgv5mi4/XdtvEhkGfnvD/NXnVkhokFkP4T7aMkILiABls+EwvjrwQcq3a8iUgUyUICAKCgCDQPRHwuDzKw9KePtedDc5dmAVGorX6lJSilXgMQWcYSOKhqMZGb1OhiEDA7JUqeO1mImLMMsjIRiC7pzb+/PzQec4tWLgosidFRi8ICAKCgCAQMASCbsOQ4JUw1IrRc8AmLdQrapIw8OJJ9LlDfb6kf3uPgOZa1YOivNBhGPZ+VFKDICAICAKCQIcRCPoWfId7EpSCwWcY4rR+11UHpf9SaQgiEGXVOiUqSSE4OdKloCDQyxuLoSg3KNVLpYKAICAICAKhiADtiX7RV3NDGordC2Sfgs4PJcRpO8yOJiPuQPZf6gpBBEQlKQQnRboUVAT0WAw2smFoJ9hmUPsglQsCgoAgIAgIAsFCIOgMQ6LXhsGheXgK1jik3hBCIIpsGFgxoz4ymO4QQl66sq8Q4Ng2SV47hpwCUUvaV/Mg7QoCgoAgIAgEB4GgMwzsl99EKiouckFb1+SGNjijkVr3PQIkUGpSSZKF076fEOlBlyBA930qMQzsYi+vMDTu+zmzLuiSoUsjgoAgIAgIAnuPAAdSi49JaLMizjPzonoPaHd1+1cZRbu+0VYKMNSC9qzlFpXs7jQmiYIaUWA5GwVvi7FqKkq7u0byuy8CUbpbVZEwdN9JlJ53CgF+qmVmG7CNZGt5ImHoFHZSWBAQBASBSEGgR1I6Fp95Kb7N34Fb/6dFa+axnzLiMFww8lCU19Ui3hqNecsXo6SyRMHSP6M3Hjz+DFQ56tAzPgnPrVuN//78dTPIUhJScNexp6lrL3rzmWZ5F4w7DlMHj6C67YimBdr1H/4Hxd66/QsajSZcP2k6hqZnkrsaA/JqqnDnJ0vQ0KDt9gddwsCdiSWGgckvGJ2WIN9hhwAvnKIs9E2brGL0HHbTKwNqB4Ge2VpmQQjFYminu5IlCAgCgoAg0IUI8Pro5qOnYMlGivLpR2mJqTiPmIXzlyzAnLeew5sbfsRl445VJYwU6OeJyefgjs/ew6xlC3Hm4idxxv6jMSirn6+GwdkDsGDaBfguf7svTT8YN2g4xmb3wzmLn1LXL/zxK8wZr9Wtl9F/jxo8ClEmEy4khuPCN59GI0WZPm7/g/RsdA3D4LVjEIbBh3tYH7ANA5PEYdBwkO/IQCCbJAxMRSEUiyEykJdRCgKCgCAQ+ggcMWSU2uX/euefzTrrIk8Zd656z7eT/3txHnolJKsymSkZsDXW44/8rercUe/AN3nbceKQEb46zKTKdMk7L+PLbX80C8TGb6SpQ0ZiwZrP4XRqKh9fb16Huz5c7LvW/2A7SR2e+2GVSmLF2l9L8tHT2w+uq0tUkmK9Klk2O3dBe6mqHslXWCJg0RkGifQclvMrg2odgd5e16rFO1vPl1RBQBAQBASByEQgyhyFOWOPxhXvLULvlB7NQKisqQR/dJo4cChW525RpzZSI0qNjgXbILiJseAV9Phe/ZBna4pV8HueVjaFFtsGkkj4U7/kVKWG9PJZlyErLhGfE7Py8Kp3fQyEf9ntRTm+U5ZsHNtvfzztZSDiqe4ukTDEJ2gDqBHXqr7JCOcD3YahUWwYwnmaZWwtEOhDEgaDCbCT2mkoSNc8bIEtJAgIAoKAILDPEThlxDis3P4HKmwV7fZl/14DcdyA/bF47VeqnL2uBr8W5+PaidPRMy0bk4aOQSz5ro/Xd2bbrQ3oT+pOF446HDd+vBSnv/EkTMQIzJ0wZTdXATPHTEQxtf1LziZVNi0+GWZbF6ziLRYWZJhRWu4gOwb3bjuqF6ixS3hoHYvu9UurJkTBZqun+XYFvOtyXwQc0rCpcF/eG7w+T8y2oCrPiD+22NG/975dsL/2+ls479zTw2Zu92Yg+/K+2Jt+y7XBRUDui+Di211r78x90ZGnfAx5HPrLsLH465KF7ULChsv3HnMq5pFRsqO+TpXl+m8jw+NLxx+P+487DeuK8vHkmlU4jBiLjtL3+dtRVEGeh4ie+uYTLJpxKR5r5+JR/Q7AKYOH4+9kT6FTjaMW5oR4r4GBnhqE35QUXjR6SD/LioR4Xkx2nLqifx3vjZTsCAJxcdp8G4yWTs93R+rnMnJfdBSpyCu3r+4NfrD36OVEVS5QWRWDhAO6RIDb7gTvKyza7dQ+yhQs9hHwId6s3BchPkH7qHsdvS86wjAM6zlAqRU9f/rFajSxZOiZYLHiiekXY+47L6g0C6X948Sz8OjqT5FTkucbNasYudwuPPH5f31pZ4+dhB3V5b7z9g5+LsrDlnLN2xKXa2hsgIUMm3UVp5bXZpHNxK0TTsLl77+OerKX0KnSXtU1KkkJ8ZpKkggMdOjD+1eXlImXpPCeZxldcwT4KZfVU3vWiWvV5tjImSAgCAgCkYrAerIx+MvS53ANuUrlzzNrvsAvJQW467N3fJDcSO5MV+74A99u+cWXxgdGgxFvnH05BmT2VemJZIdwxtDR+GTT+mblWjthZmbZ72sx/YDRikHgMieTpGNNQY6yh2CmYeL+B8Nk0syZWRLy6OSzMX/luz6Xrnq9Tpeza4yeE7xCjBqJ9qxjH9a/PoZBbBjCep5lcLsi0FN5SvKgoHDXPEkRBAQBQUAQiDwEOI5BcUPTLn8R2RXU0k5/WVWZAmN4n8E4YcABmNRvMP5Ktg5MvNg/+aWHlHSBXao+csIMlNhrkBobhye+/wzlHZQwfLH5Z4zK6o2l516NqgYH6p1OXLf836qN+Jh4XH/48fiNjJ05LsOZo49AX/KK9MRJZ6l8/vqxMJfiRbymzjW2wpcVnANd68lOgduEwh8BSxTvsnpA/w9CgkBEIdAzSxuuuFaNqGmXwQoCgoAg0GEE1u/8A/zR6deczZjw7N366S6/v+X+iRmvPY5kMjxmb0ptObTYUZKLlkHb2LPSP0md6VmSHpiNZtTUNe3cV9urMeXlf/jqe/W7T8GftqhLGIbEOE1MX9vUz7b6I+lhgIBPwqAFBwyDEckQBIGOIdDLG4uhZEfHygez1JxZFwSzeqlbEBAEBAFBoIsQYCZhdx6W2uuKbkTdskxbzEfLcnzeJVZ5ukqSH2PTWl8kLUwQUE6xaCziVjVMJlSG0WEEemUaYLICdeQ5r7bJXqzD10tBQUAQEAQEAUEgFBHoGobBK2FwNMWZCEUspE8BQsAX6blBVNACBKlU040QSM7WOptbIPd/N5o26aogIAgIAoJAOwh0iUpSfJzWg3pSSWJf5S0C0bXTPcnqjgjoKklOsWHojtMnfd4bBEj7Mr0nULYdYE9JQwZo6ph7U6VcKwgIAoKAIBCaCBhoUfvGf78Lzc4FuFddImHgPkcnaT23hVG05y07PPhzu+witrwnNaNnwCleklpCI+dhjgCzB1m9NCYhXyQMYT7bMjxBQBAQBCIHgS6RMDCcMYmAowqotnuQmLDvd93KKoEtO9w4dFTneSaWkiz7nwvvvODBkdM5qEZTHYP7G8jfbeTcQK2NVJcwiJek1tCRtHBHQHetml+wb0fKxmwc9EdIEBAEBAFBQBDYWwS6jmFIAMgOEDX2PevythwPHrqPIwg3p1lXGHHQ8M6v0D9a5cJHb3pwyBvGDqlIMZOwaZsHP6x1Y+33/CIGhowHigs9eHOpC+wSt3g78NyrZlgtzfsYaWeWKG3EwjBE2szLeBmBXl7XqsX5+1b6uGDhIoinJLknBQFBQBDoJghQADVDfCI8Va1HcTYkpcJTS2o6bSyu1LU1bRgLk3GpwWiAp74D7iuNJhgSknbpR5cxDLHEMDBVq1gMnd/1Ki71wBIDXDLbpFXk/e7vFf83S+zAydnTTJg8qeP2FGs3uLH6Ww9GjzKgXx8DMtIN2H+gNo5fNnnw9KMuXD3fGPHMAkOvMwxiw9CBG1GKhB0Cvb2uVUt3hN3QZECCgCAgCAgCe4GAKbs3sp95CrU/r0f5Xbf7aoqdchoST58GV1U1TLExKLnzHrgoIjOTedD+SL/1Rrhtdpgz0lG5eClq313mu9bcbxDSbrwOcNMmlcmIssf+Cefm3335iZfMQez4Q5QRcd3Pv6Dq6X9qBsW+Ek0HCef/DfHHTYSrshoGWsyV3nMfXPk5MGX36ppIz9yVOKWG5MGe2jCUkzpTZm8DRuzfOrOx6hs3vvjSjbFjjHh7sZsxw8WX0wKegog996wLtlJg2DgD5l1mojDYwOof3fjkEzfuukXjmW641YmppxqxYoUbO34Dho83YMZ0I/p5GZKDSYpx8HAN1FySKtx/jwtTzzRizQ9u5G0DLrvahJFDW+9b01RExpEuYRGGITLmW0bZHIGMNAPMtLnBTh74eae7lW5eSs4EAUFAEBAEIgoB0ldPmTsX1cs/gjnb606PADBmZCPxtCkouuwyeBx1iJ16GpIuvBDlD9xDDIAJGffcgZL7HkLjhnUwxMYj45GH0fDHRjg3bgCiopB2w7WoePEVNKz5FlHDRiGdzouuuFxJE6KPmAjrAUNQOOtSjqeL9LvuQczxk1H38f92gT768KMRPXI4Ci+9VLv2qGOoH39D+f13E/OS1zVxGLhXuqekmj00eq6o8CCJDKeffdWFudc48dATLvz2Z5PIv7aWbBJ+Bv7c4sF1N9PinZiDZx52Y9FrLlx0iQlzrjViw3cevP+pW4FURz7Sy4ub8KooBF5/2Y2jjjbiyhuNKCny4JXXm6tAcXtL3nNh8VI3eDH8zr/dGDiImJDrTfjjT7di7ppqjNwjn9GzeEmK3JsgwkeeTJ6S+OnEmwtCgoAgIAgIAoJA9IRJtHNfCccPa5qD4Xah/LEnFLPAGQ2bN8GclanKmHr2gdteq5gFTmCVJMe6XxA3aZKWn92Hfg2KWeCExt/Wk5TCBtOA/VR+7NETUL3kLfJC4wRcTjpegrgJR6q85l8GxB53DKoWva6pLZHeveOLlYpZ0Mt1Xvlfv7KTv/Hx2gU1ZPS8J1RJBhBrVnmUdOD0mUYlQXjoNhe27mxe3xV/NylVoYvPM6GepBLTSGpw0DADxh1kxMjDDdjWjlejCccZcMzhLEkw4ixqY/MPNHF+nn62k1ekHJIQ9esPXDHPhAULzEhNNeCeG12oICPqSmqvnH/bUCHbk3F3x2t0o2dnB1TluuP4pM+CQHsIsH1TZi8qQY8micXQHlKSJwgIAoJAhCBgtSL5vHNQ9eKLuwzYXVqMBpIe6BRz+BGo+/Endeq2kYoS75aTXYEiesFEjxoJU6aXocjKQqO/hw0yuG3MyyMJBu1aUdmonllwFTZ54HDScVRvymtJ9N6ycHp0NDKfWYBe/1mClOtvhIH6rVOX2TDEe20Y9lQlafBgUkcabsCEQzUeZ+JhwN12J/73sRvMJDCl0kta91DEajEGGl0PUg/QiftQwZbXbVB/sk3QafAAI5wON8oqPcjuoaWffKwRJx8L5Bd7sO5XD5a97cL2XwjkWOC7FR76ONFIkouEdODpp7oMWr3LIfNr9Ro9C8MQMlMiHeliBLJ6GrCBOIa8fWj4LAbPXTzp0pwgIAgIAm0gEHfyNNhXfwd3Camz9GapQOtkIZWiuCPGoWju1aqAp6oC9Zv+RPJV16Bm2VuIGrI/jDHRys6BC5hSUuCykf6rH7mqicmgdCZTagrcfobQHlLzMVNaaxTVqyeSZs5A6X0PwF1dhWRSkUqcfQWq/vmoKt5lq9p4Fe3ZA3vzcbXW51bTjp+wqzBk1GgjvlipqRi1elFz4UOrRfwTdQZOpe3aHNb/TsbNj7tU8LmDJxhw5gwTht1s8HlZqqax3XKLE3+5sJWL/RsK82Mz3VU9D+y4QXmYwyHDi0AEeinDZw/8NnYiEAUZsiAgCAgCggB7L0qcdgoKr5zbLhjGHllIu34eSu6+Dx59sUwSg7L770Pi3y5C2k03wLHxD1S88hqiDz5I1eUqLYVp3KHN6jUTs1BHTAaTs7QcxkRiGkiKwWQk70eNxSXquLWvurXr4MrbobKqXngeWU89gaonaNOc+tFlDEOCV8JgV16SWutm+2nPkS3CAUOaJAxcuqzcg7TMJqlA+zXsfe5wMried6MJQ8g70p+knvTu+24cOJjcT1HV7C72ngedOJjUng4nw+tIJlbJuJqMwIUEgUhFoGeW9lza165VIxV/GbcgIAgIAqGCQNSwETAlJyHz8cdUl1hCYIyLg+nhR1Fy/bUqzWCNQfptt6HiuRfh3LqpqevkCpVtD6qepoW7NzX+7PPgzMtXZ67CQlj69tZ2aGlRr9SQ+vaF7d131SK/kcqZ+/ShOv9Q5U103JjXpKLU1BDFSvv9Dzh37Px/9s4DMIoq/+PfLem9QiDUEIpAgNBDB6X3oqiIBRuW80Q9/9aznZ53Zy8UCwoiVUFBRLrSe2+BEFJJ7z07M//fm2U3m7KQQMom+T3d7JvX5s1nhuT95v2KuUi4YNXoSWVEQ2taRao9o2c3Z+Mf0NybNHp2J4HjRzJKTkg2bhtcJFuEv35T0KuXcVzzFdZgRqg7dSAjZ7EgDmqlQRapK32/UsJf+2XM+7sBPWguD8zkhbK4BS3oDav4cGICjZGAybVqakxjvHq+ZibABJgAEzARKD5xFFef/BuS//mm+klfuhwF4RFI+8Co6iMWlZ7znkPevn0o2POnqZvxm2IzNF24EPrgTuqxxtsXbqPvQN6O7eqxlBBLKkk5cOw3SD2279YTGp0GhkjjDkPulm1wnzaJfLPS/gAt/t2nT0PuVmNfYRfhOHyUWi52ELI3/gHXUXeY7SWcR5E3pdPkNpSMskWqvR2Ga0bPeTepkjRjgg6JiRKee1SCAwkPwlZg1F0ajBxc+2/zC8iY9xx5TGreUoPNyxQEhih48TUdguiYExNgAkzA25Nsm+h3XjHtPAqX0N5ks8aJCTABJsAEGh8B4SpVxDIwJalJAGRy7SklGHcJxCLfdSAZ5vbtDY+pk43NaAEfN/Mu+iNSrMZV8H/tZRSnpUPv5YH0xUshJ13bJZCEh6WPKU7D/8HjnruMsRP+Q4KI8IpEqejoAeSHdkfAV1+TTCCTMfUJFOzeodZpPL3g8/gcJJw/q86v4M9tcOjUEc2+/04VQhTy+pP8zzfUtuKH5mKkrLRrXfML3RQyNn56tgEufsDX31ZOTskm4ww3k3ula1MuLCKjY3J5KuIjmAyczVdTgxnhjnXDahmF5L7VzpEWAAFAz96kItVPi6bXjKJr8PQ8tAWBip4Li2rONmICtvJsiJ3hef8wIIF2gV/6D7l57ljzv2PL3vZru9Nlixvlsa08F40Svg1fND8XNnxz6nBqVXou6BdtzPjxNT9bWvBqffwhpyYaA7RVcEaNlw+U9NQKamix70ALV9pRUPLpLZZlEipPIuCbRdK40Ft52o0oG3Fav/UvGZJc8pY+mISHmliIu1/bYSi4RZejwvtRGwtvRhbXWKPZEWR0HdZLC1JDg+DLiQkwASZgjYBQW/SnlxoJ5+ktEcViqAuBYcGiJWBPSdbuEJczASbABOoRAZlifQkPS9dJ1oQF0UUpJLWcilIZYUE0MRtcl2mvT6I/ZivXSMhKA5KuAF8t0cMUqbdM21s6pAjTaG006r6lceqqsxO5ohUfTkyACTCByhAQgTxPUsP4OnStWpl5chsmwASYABNgAjcioH/9H3qcCid3oR9I+Pur2hoRFkyTeO+tyqkimdrzNxNgAkygvhIwu1ZlgaG+3kKeNxNgAkyg8gTE1nIDTvq3/2tAXCTwBLnBDOnUsC+2Ad9HvrTrEIggF7hCn7s2bHWuMw2uamQETK5Vk412bY3s6vlymQATYAINn4BCQsI9E/s2/AulK9S3JTehd03XUuRiGV066lg/v1Hc9vpzkakZQESUjD7dSuxsKjt7IST8tFHCum8UDJysqRVbncrOjds1fAKB12IxsGvVhn+v+QqZABNgAg2dgN7bW4O3X5QwaIIGGdeiQgijZ0/3hn7pfH01QSAyWsH77xp99lqO/9hTWvToUvVF/x87JWxepaD3Mq0a/8JyzIryQkgIj1Rw6JiMYwcVtU/7fmSfY2GrkxwFLPq+Zmx1KpoTlzVOAiJ2jAM5SSgiRw/JFGTSj37X1mZig+fapM3nYgJMgAk0bAL6FQtl2DsDB7Yp9DGo8Q3cfIEvPmd7g4Z962vm6pJSFdg7AY88XjqAXWvyGHMzaeZEHcYMU4MXVqr7sTMy9u5X0L2bBq3Im5a/rwYdKDK3SCZbnWdeqVlbnUpNlBs1CgK+FIAzjuLexJLLbD/vRnHJfJFMgAkwASZwEwS09Lbe2cEFOfkVByyzt3egsAxFpGJNb0bLJA2pRrk6uyGHgp1VVF+m+XUPteR+VczFYCgu1U7/3Y9685vbLJrjyy8bcM8DVX8TXGpUPmi0BESQqiaBGnTtULGAsHOfjL92yejVU4u1K2To6FGb8yQt4O00+GqhhOwUoHNfDeY9oYOOZI69R2Rs3SLjjZf1qh3Ci68acMcoLfbsMSCKFmJd+mkwfbJWjcshoIfSLkZoFyP+mKsK3ntHwoQZWhw+JLOtTqN9KuvmwoX9WxMSlOPOkGtVehZ7dK7430TdzI7PygSYABNgArVNwM/DFytmPIr98VF4ZeMy8+nHde2P2SF9kJafB1eKmTDv9xVIzkhW65t6N8E7w6fQWl0DNxIatkeFY9HeTZDJ1apId9zWG3N7DkJSbjZ8XFzx+vZfcS4uAobwXOwAAEAASURBVOIvztK7n4a3I+0KXEt6EgSiMtPxyJoFpiLzt56iQT87eCJ6NA2EgaI7J+Xm4PUta5BXYIzdoBdyihg0h47f/rcBoWEahNFijhMTuBkC6ekKPEgNY+ESCWeOUTTsNhpMGKvFbe2MiyUKboiI46Ty5qng+Zd02LZTxpf/leHbEnjoER2KChXM/5CC5LWXMYkEg3xyHZxm/DejTied3BCvISH3rtkUE2MCsGqVjO+XSRDevkzpLEXhPnNORlQUBTukQH/rlssYPIptdUx8+Lv2CAQ0M54rngQGTkyACTABJtB4CYhV0EtDxmP1+eNo4e5lBuHj7o1ZJCzct3oBiooKMT4kDE/0HYE3/1ihrs9fHjwOi0/sw56LJ6CnN6kfTXgAoa064nDkWTTzborHSFi4/6evkZ2XheY+Afh47EzMWjUfhRR7Ydbyz8znEZkpPQbBx8mlVJnpYESHnur57qU+Ypdi7qBxmNatP5Ye2Ko20X6/UsJf+2XM+7sBPXpp8MDM0qokpoH4mwlUhkAGRfQ+vFNRdwem3qlVdxDef13CZbJtMCXx5vWph3WqqtBD9+pQSLsSEyeRjQO9ge0bqkUICa2RV0ram/qZvvsNlTA8TOwkaHEn7R5cOkx64hY7Z1fIK1IMRWFv1ZrOM0+HBQv0MNnqpJMRtbDVSRPftxhE0DQf/mYC1giYPCUlsGtVa4i4nAkwASbQKAgMaN+NdhBysSf6UqnrlWin4I2d61VhQVScS4pDczdPcxtHvT0uiwjPlAwSracyUuFkT1GMKXUNaIVdNJ4QFkSKT72KXBI6uge2U48tf9jb2ePeLr2x8vhey2Jz/kB0OD7d87tZpSk6Iw3O1MeU9JuXKQgMUfDiazoEtTS+BTZV8jcTqCqB4GBSR+qiwaA+xl2qof2Bt3IN2LhZVoUEMZ53c4qWfW0TSwQJ1FBQPz+fkmfPlYxF00nwsJZaNC8RJoLbkJ5dgYzUDAUBfsYxxo7QYuwI+oeTpJD3LwU/rZVw5RTK2eq4+wGff1ayM2HtfFzOBG6WgDEWAxk9x93sCDffT6i5CuGcExNgAkyACdQtATu9Heb2GoKn1i9FoBctPixSRk4GxMeUhrbthL2xEeqhWO0sOPInXhg4GqvOHEEzD0/anfDEl3vPq/XppC7k50KLJosU5OmLAGpTNo26rZeqzmQSLsrWZ2QbF14t/JpTfy9M6tANL21ZrTYTf0r0H32rQ9NrC62ynfmYCVSVwB2Dyquzdeuuxa4dRl27CscrWf9XWF22kOxxSlL50+HkOQpE+JGk2jyEDtJgxnQdOr+kMS+eMkkQf+UVttUpgci5miIQGGBcsafRjldtpwWLloA9JdU2dT4fE2ACTKA8gXFd+2L7lQtIp0V5WYHBsnWH5m1xe5sOeHDNInNxSk42PB2d8GD3MPg6u2ArjWOQjGoVZyiQ2ksDRmFi9wE4FB2B8Z16IDkvBy52Dub+IiMEltkhffHIuu9KlZc9EH+xngsbiTaePlhDqlM51+wXRDstCwtlcfHxrRD46gcJuw6WFg5SyaWkt3/tversQgbX817UYeEiPUYM1mIT7W6YZJLsHOCd99lW51buMfetPAFnR8CZvM4p5Gn4Ku14cWICTIAJMIHGRcDJwQn3dO6FH4/suu6Fe7l5kXHzJPxj8xoUFOarbcVC/1OySXj7z9/w2E8LMf2Hj+BJ490VOkStz6UF/ZO//Yju/oH41+1TkFGQh40RZxGfVVpN4/aOPbEv9gpMuwjWJiL+Sv39l8WYsvRDOOj0eKjP7WpTUV7B+1lrw3A5E7gxAeF7/sfvZSQkGxdHFykmwl+/KehF9jG1lYS6UwcKSCjUMdq20iCL1JVMtjrPPcu2OrV1H/g8RgLCtar41xBLsUA4MQEmwASYQOMi0LlZG9VT0ddT52AZeS16a+gE9G3WCp9OnmMGIewL/jPqLnywdytiLHRY/cmrUqHBgMjEaLWtMEbedOkMQpu2UI+F+9OkzGS8tXklHiJD5zWkvtTZtyliyROSKelp4f9g9/5YcvT6AkvnFsFwcjB6VBIemH6/cAJDWgaZhoE+O4deudpoyskl102c6hWB0cOAmDg9nnuUbAZcFbIvAIZNNaB/KLlMpUetoFAHWdJR3vjcCT1rKI7IzcunMuPORFGRnvz/aug4HwUFWiiyXm0v2sqyA5UVmNvm5gpBxAG5uXnIdiq9ICso0uDiZcA/QIfNy/Ro1tmAp58zoHWgQu3rFVaebCUJ2OLvDG8/PaIVPS5fKUTHtuWDGlby0m6qmenf2U11bkCdbPG5aEB46+2l8HNRb29djU68Ks9F6VVHxdM6SS5O71nzlbmyW7PWGBvcBe/s/NVc9uKwyWRfcAH7I8jg0iIlkmtVoY4U1LQVIhKiVNeqY9p1xpkUCu5DSQgUn4+fhftWLUB+YR66tGgPN9qBiLgmYIg2wzuG4lhCDFIyyW+9RRLCxuDg7th16SQkyYCwlu3Qv0UQviaXrSL1JmHhfGqSmhcrLQ1JK5W5XrVDbf8Qf+zcXF1r+7R8vmogUEjuTOMTFTU+gsnAuRqGVYe43nOxYSu5ZF0tg/7dwI7UQbwDgJ69yQi7n5ZtdarrBtjwONd7Nupq2ivWSfjlGwWDpmrwxIO6WpvG/IVsw2CCbYvPhWlu/F13BPi5qDv2tnzmqjwXYgE9eOFbVbqckJYdcFeXXuY4DF3ozf78sXejmGIfFJEXJJHEuGMXv696LOrYPAivDR5LsRFkuJB3pGMJsfjvn7+avSpN7jEQD4b0Qyp5YBKxGl7Zulb1liTG0ZHR5/J7nsYzG1fgahr5pbdI7i7uWH7nXDy49lskkWDiSILGKxTvoZ2Xr3quVIoJ8drWNcjONXpgYoHBAh5n6weB6/1jzi8E8kn1z9OD9O2ESMypURG43rNRVyCE2+r5/5LRvh/w5ivslasu7oMtPhd1wYHPWZoAPxelefCRkUBVnoubERhulrNY0BdRpGeZBIuySU+2Ds6kTpSVS37jq5CEgFF230AEcBPRnkVMCMvEf70saXC+3hNwIscA4sOJCdgKgdAQLVqHygiyEv3cVuZZmXlEUIwTsSfdrjVL45XhxW2YABNgAtVFwGQIXdF4BkMxsgxVExbEOGWFBVFmIJsJ+imypRILDKVw8AETYAJMoHoJuJIN2Xtv1v6v2lRy6x0RJaNPt1v3bSGEhJ82SlhHqlUDJ2sgySVjBpPwUN1qh9V7B3g0JsAEmAATuFUCtf9X7FZnzP2ZABNgAg2QQCRFQ3//3fJbzY89RVHQKap5VdMfOyVsXqWg9zKtOQZJVcYQQkJ4pIJDx2QcO6ioYwi1qiTy9rRyjYSsNApIFwUs+l4PEYCRExNgAkyACTRcAiwwNNx7y1fGBJhAPSKQlKrA3gl45PHShtGtm9+c+s/MiTqMGXbz0Z6PnZGxd7+C7t00aNVCA39fDTq0Nc7lVDgFR/xAwjOvaFlYqEfPGE+VCTABJnCzBFhguFly3I8JMAEmUI0E0kj9tEmgBl2t2Drs3Cfjr10yevXUYu0KmbxfAHOepAW7nQZfLSS3xeQxr3NfClr4hA46kjn2HJaxjbyGvfGyXrU7ePFVAyZM0mLbNhlRZ4Eu/TSYPlmrejKr6DJCaVcjtIuxJuaqgvfekTBhhhaHD8mg4KJ44u86hHS6OWGmovNxGRNgAkyACdgugarvc9vutfDMmAATYAL1lkB6ugIP8u61cImEv1GAwfc/lXD2EukFXUt55Co44jhwKULB8y/RYp2Egy//K2MpRVd/6BEd5s7T4swBBcK1sEinj/2AtORrnekrnTzqLftOxuAhWjz9ohbJ5Pb4+2XlVaBKekA9/+r1Elb+JMNArpLXLZfRloIizntBhwuXZMgl07PsxnkmwASYABNoYARYYGhgN5QvhwkwgfpJIIMCcx7eqai7A1Pv1Ko7CO+/LuEy2TaYkohe/tTDOlU16KF7dSikXYmJtGvQo7MGfUO1CAnTIPJKSXtTP9P3oNs1GB4mdg60uJN2Cy4dBrnpM9WW/75CXpFiYoBWrem883RYsEAPb28N3n5RQjoZVWfQ+dPEt9FNd/kBuIQJMAEmwAQqRUAEUnN1crPa1t7eQY2zYLVBNVXoKDK0cK1aNpUvKduCj5kAE2ACTKDGCQQHkzpSFwoy2Mf4Hmdof+CtXAM2bpZVIUFMwLs5xRe59ppHGBpr7AA/nxK1IFf6W5NOgoe11JpsEUwpuI2WIrHLSM1QEOBXUm6qF99jR2jpQ0EYkxScOK3gp7USrlAgUnvy/HRgm0IfA4opmru7H/D5Z/znxJId55kAE2ACZQn4UWTmFTMexf74KHPgNtFmXNf+mB3SB2kULM3VwRHzfl+BZAqmJlJT7yZ4hwKqiZgJbiQ0bI8KxyKKxixTIDfxm/vtMfegV0BL2vE1viwSP8d/9x/hMxVL734a3o70C/ta0tMfkKjMdDyyZoGpyPwt4jy8TBGngyhwmxgrLicTb29bi9z8HLUN/4Y3o+IME2ACTKDuCNwxqPyGb7fuWuzaYVQxqnBm1jcTKmxOsXhKUvnTldRdy508R8bNH0mqDUToIA1mTNeh80sas9elTNpZeOUVA+55oBKDlRudC5gAE2ACjYeAWNy/NGQ8Vp8/jhbuXuYL93H3xiwSFu5bvUANljY+JAxP9B2BN/9YoQoELw8eh8Un9mHPxRPQk4HaRxMeQGirjjgcScZolHycXDB9xRfIycs2j2nKzFr+mSmrfk/pMUhtX6rw2sG0bmFqtOjXNy1XSx7qPwqzeg7Gwt0b1WP+LV8RNS5jAkyACdQyga/IFmHXwdLCQWqaAm//it/+32h6VZQlKhyuCxlgz3tRh4WL9BgxWItNtNthGjebXjq9874BoaQGFUaG2JyYABNgAkzAOoEB7bvRDkIu9kRfKtVIop2CN3auN0dWPpcUh+ZunuY2jnp7XE5NVI8NEqmpZqTCyb7El7WXkzPyCnLN7a1l7O3scW+X3lh5fG+FTZwoWvSFa+cRDS6mJcKJzm1K/FveRIK/mQATYAJ1SMCd1Il+/F5GQrJxSX6RYiD89ZuCXr1uTmAIvm1Wla7mxFkFB0+UFliE+lMHMnIWthNtW2mQRepL36+U8Nd+Gc+RYXYPmtsDMy23Lap0Sm7MBJgAE2gUBOxoMT631xB8sX9ruevNyMnAhbjL5vKhbTthb2yEeiz+Giw48ideGDga/YK6YmroINqd8MTByPPm9kLNaHafEfhjzkv4csrDaN+sjbnOMjPqtl6qOlN2XsVGZ+vOHMak9iEY0akXhnTogbs798aqUwfMQ7BKkhkFZ5gAE2ACdUdgxgQdEhMlPPeoBAcSHoRtwKi7NBhJb/ZrOok/SitXS2hPOwp9upU/W0EhcI48NjVvqcHmZQoCQxS8+JoOQXTMiQkwASbABK5PYFzXvth+5QLSs9MR6EVGX1ZSh+ZtcXubDnhwzSJzi5ScbHg6OuHB7mHwdXbBVhrHIBm9VQhDaF9SSbqYmoQJSz9E9xbB+GDkdMxcOd9seyAGEgLL7JC+eGTdd+Zxy2byiwpUlaQHuvcj+wgFibnZyC3MNzfTKJTMRzaWyc7JgZurq43NiqdT1wT4uajrO2C7528Iz0YhuS+NJ5enrShgm8nAuaaJi78Cjz5swNPPl8RWEO5ZN6yWUUjuXO0cyeA6AOjZm4yy+2nR1IqRdE3P82bHbwjPxc1eO/ezToCfC+tsGnNNVZ4LsYAevPCt6+JyImPi72c8hvtXL0I+/ULt2rI9ZpJq0Csbl5Xq5+XmhUWTH8C8TasQkxyn1omF/up7n8GzVBaZGK0aPv/fiGlkuJyGHw9tV49dnFxL2S/8c9Rd+O3iaRy+fMY8/pgu/dDJLwAf7lhrLrPMiFc/b5Hx9LHEGPx8dJdaNbJzH4xp1xnP/rJYPeYdBktinGcCTIAJ1DEB4f2ojYU3o9qYjthBKKYXScJmwZRGkBF2WC8tPD3IM1NJsamav5kAE2ACTKASBDqTipDwVPT11Dlqa2eyJRDejj6dPAd/W/eNWibsC/5DC/0P9m41Cwuiwp+8KhUaDKqwII7FO/5Nl87g3q598CMdO9o7oZVPU5yxMHjOLiqEOIcp6clN6oPd++OJ9UtNRRV+9yRPSx/s/t1ct+vSKbw8YCS9uNKqHplqfq/bfGrOMAEmwASYgC0SELEY7npUW2pHw8mBdhXI7o6FBVu8YzwnJsAE6guBk3ERuGfNV3iWXKWKz5eH/8Kp5Kt4c8c68yW8SO5Mt0ddwP4I8lttkRLJtapQRwpq2kotFa5VxVv/MylX1WOhmvT+7VPg52lUc3J3dsfAFkE4kxBtHmV4x1AcS4hBSmaKuUxkhCAwtEMoxf4x7h2cSYrH7cFdzW0GtwvBuZQkVVgQhbzDYEbDGSbABJhAwyEgtsoruzHgQTYTY4by+6OGc/f5SpgAE7AVAkX0xj+pyBhTQcwpkdyo5hUXITUzVZ1iF7I7GNmmI4a1Csb9ZOsgkvj9PXbx+2SrYMAzpI701rCJMJA3JRfyjnQsIRbLyBBapGJDMV4nD0uLJs5GfHYmAlzd8dnBHeaxdeRL++EeYXhm4wq1veUPV1JleiHsDpwlNaQkEkze/XM93qB4D9M6dlfjMGQVFuC1bT+bu7ANgxkFZ+oLgaroF9aXa+J5Vg8BfjZKOM5fuARzH5tdUtCIc/xcNOKbf51L5+fiOnAacVVVnguxsL+RDUN1oRSB1YpI0JBlqdyQYufB09ULmbkZ5h2Bco0qKBD9ypoy68luQpQX07ksE+8wWNLgPBNgAkyACTABJsAEmAATsDECBRYei8pOTSz607PTyhbf8LissCA6GGjXoqLEe9AVUeEyJsAEmAATYAJMgAkwASbABFQCLDDwg8AEmAATYAJMgAkwASbABJiAVQKskmQVDVcwASbABJgAE2ACTIAJMAErBMiIYXC0nZXKhlXMOwwN637y1TABJsAEVAJs8MwPAhNgAkyACVQXARYYqoskj8MEmAATYAJMgAkwASbABBogARYYGuBN5UtiAkyACTABJsAEmAATqD8EtHot3NxdrU7Y3sEBGl1lo+uUHkan08HOvnKqU/YO9nBydio9AB2xDUM5JFzABJgAE2ACTIAJMAEmwASql4Cvvw+efnIOrlyJxuLFJcHUBg7qi/79eiE3Lw+Ojg5Y+sMaJCcaIzM3DfDHnTMmUiRODRxpMX/+wiVs+G0LZINcanKhPUMwbeo4bN6yE3/u3KfW6e31mDp5LFq0bA5ZkpGTk4sfl69FLn2XTUKomDFjApo29VejfmZlZuOHZT+jqLBQbco7DGWJ8TETYAJMgAkwASbABJgAE6hOArTinjJpDI4cPVFqVB9fbxIWeuKTT7/Gl18sxqFDxzB65FBzm0mTRmPX7gP49JOv8MFHC9CsWVN07tTBXC8yLi7OGDZ0AE6ePFuqvE+vHmoQtg8/WICPPlqIpOQUDBrYp1Qb00GP0K4QQsPHHy/Cx58songMBvTu3c1UDRYYzCg4wwSYABNgAkyACTABJsAEqp9AaI8Q5NEOQnh4RKnBJXrzv3bd7+Y3+TGxV+Hh5WluY29vj6sJSeqxVCwhJTm1nHrRmDHDsXfvIWRn55j7icy5Cxfx6/rN5mjOqanpECpHFSUhTGzZ9pexijYvYuOuwsvLw9yUBQYzCs4wASbABBoOgfkLlzSci+ErYQJMgAnUYwLCfmDYsAH4fdOOcleRkZ6BSxcjzeVdbuuAiIuXzcfbt+/GhHF3oFv3zuoY3t5eOHMm3Fwf0KwJmgcG4MCBo+YyUyY9NQP5efkIbNEMId1uQ48eXVXBwlRv+R19JRZJCclqkYbUnzp1ao+LFvNiGwZLWpxnAkyACTABJsAEmAATYALVSGBAWG+cP38RafSG35/sGKyldsFtaKEejM9JNcmUsrKy4UxGyIMG9YMrqR6do3EMUrGpGqNHDcPmzX9ClkvbNJgbUGbs2BHw9fHG0aMnyY4hz7KqwvyI2wchh3YrLpy/ZK7nHQYzCs4wASbABJgAE2ACTIAJMIHqIyA8DvXpE4od2/dcd1AvH09MmzYey1esU3cFRGOxM3HfrOlY9+smfP7ZN3j/v5/D2ckJw4cNVMcKatcaQmXp3NmSHYeKTrJo4VL8+9+fQW+nVwWMitqYyjrd1h4hIbdh5apfTUXqN+8wlMLBB0yACTABJsAEmAATYAJMoHoIBAW1IqNkJ8yd+4A6oD0JAcIT0mOP34+FC76/VmaPWfdOx6ZN2xEbE28+sa+fj2p8HBUZo5YpkoKTp84irH9v9bgzqS/5UZvnnpurHoudCEVR4Orqgt82bEX7DkGIJZuIvNw8dQfiyNFTuPfuaebxy2b8m/phwviRWPz9ChTkF5SqZoGhFA4+YAJMgAkwASbABJgAE2AC1UMgPDwSX3xZomLUtm0r9Q3+zz//ZjwB6frceecEnD93ESeOnyl1UuFaVQgBrdu2xJXL0WochpCutyGODJJF2r5jD/YfOGLuM5jUlvILCrBr1wG1rEP7ILRv3xYb1m8xHge3RVKS0YBaq9VCuGI9fuy0KpSInRCxm7Hm5w1ml67mgSmjz84pbVFtWVnX+Zzc8n5i63pOfP66J8DPRd3fA1udAT8bJXdm1r1TYcu/30tmWvM5fi5qnnF9PAM/F/XxrtX8nKvyXNDL/BsmEccgKdEYy0A0FkbLxUXF5O0oTe3bPjhINTBuT4v7sLBe5vHeeudDdSH/w7KfMG3KOEiyBAcK3hYTHYdtZAgtkrAzEB9TyiMDZxHLQcRQEGnrtl0Uw2ECnn/+CbV/Xm6+qvIk6lzdXDGWvCtFR5OxMwkmQwb3gzd5Z7rv3pIdiGg6lylehIa2LipxuWLo2k/ij52bq/Wod7U/Iz6jLRDg58IW7oJtzoGfDdu8L3U9K34u6voO2Ob5+bmwzftS17OqynMhVtCvvvperUxZ7AAUFRZBkqQqn08EcNNqdGbXraYBhDekyooBrJJkosbfTIAJMAEmwASYABNgAkzABgkI96g3mwxFBuoqPqVTZYUF0Yu9JJVmx0dMgAkwASbABJgAE2ACTIAJWBDgHQYLGJxlAkyACTABJsAEmAATYAJVJlDZV/CmcAkVta+ozlRWdkKm/hXVm+pEn7L1pjrL8orKRF9TOWVZYBBAODEBJsAEmAATYAJMgAkwgZslYLkAr8wY12t/vTrT2NdrU9U6a+0tyi1kB9MM+JsJMAEmwATqO4H5C5fU90vg+TMBJsAEmICNEGCBwUZuBE+DCTABJsAEmAATYAJMgAnYIgEWGGzxrvCcmAATYAJMgAkwASbABBoNAa1eCzd366EE7CkGg0anscrD0cnRal1VKvR6PYQb1rKpfEnZFnzMBJgAE2ACTIAJMAEmwASYwC0R8PX3wdNPzsGVK9HmgGhiwIGD+qJ/v15q0DVHRwcs/WGNOdpy0wB/Cr42EaCYCY4O9jh/4RI2/LYFssFoYBDUrjUmTx6DIgoGJ6JCb6NgbYcPHS+ZJ20NhPXvjVEjh2HNmvU4depcSZ1FzsnJSY047evrA1mR1eBvK1f9QoHhjEGUWWCwgMVZJsAEmAATYAJMgAkwASZQ7QRo4T5l0hgcOXoCPhTt2ZR8fL1JWOiJTz79Wg2sNmhwX4weORRLl65Rm0yaNBq7dh/AsaOnoLPT4ZGHZ6Fzpw7qwl+r1WIGCRPfLl6OpIRkuHu4Y96zj6p1hQXG6NL333cnRYyWEH81wXTKCr/FeXNycvH996vU+nHjbsfw4QPx6y9/qDsbrJJUITYuZAJMgAnUbwJzH5tdvy+AZ88EmAATaEAEQnuEIC8vD+HhEaWuSpJkrF33uzkKc0zsVXh4eZrb2Nvb42pCknosFUtISU6Fnb2deiwEhsXXhAVRkJ2VDVmWodfp1Hrx4+y5cCxb9hOEAKHQf9aSPY1pOo9oI/L2dsbzNPH3Y7eq1sBxORNgAkyACTABJsAEmAATuFUCYoE/bNgAVQ3Jn9SSLFNGegbEx5S63NYBERcvmw6xfftuTBh3Bw4eOgZvEiS8aXdi/Yatar3BYEAi7Sy4ubvBx8cTPUNDcJR2InJz88z9Dx0sUU/SwLoNxIEDR9XdCol2IyRZQp8+oaogIwbKycljgcFMlDNMgAkwASbABJgAE2ACTKCaCQwI643z5y8iLTUdZQUGy1O1C26DTp2C8fkXi83FWbRrIGwTBg3qB1cXZ5yjcQxSsbleZNq3b6uqNen0Ovy6fnOpusoe5OcXIo8EjQED+qg2DMJ2IT8/X+2ek53DAkNlQXI7JsAEmAATYAJMgAkwASZQFQJOtNgXb+s///yb63bzoh2CadPGq+pD+XnGhbrYmbhv1nQsW/4zoiJjVFuCmXdOxvBhA7Fl85/m8Y4cPgHx8fT2wDNPP4wPP1qkqieZG1QiM23qWERFxeK771aqrfv376UaWy9auFQ9ZhuGSkDkJkyACTABJsAEmAATYAJMoKoEgoJawcXFCXPnPoDnnpuLKZPHonXrFnjs8fvNQwk7hVn3TsemTdsRGxNvLvf18yGDZYMqLIhCRVJw8tRZtG7VQm0jVJGElyRTykjLxOXLUQimnYqqplY05vGTZ8zdjp84g8DmzSHsJDTkoYkFBjMazjABJsAEmAATYAJMgAkwgeojEB4eiS++XEyuUlernx079yAuPgE//bTeeBJaid955wScP3cRJ46XLNhFZXJiiqqO1LptS7WtiMMQ0vU2xMVdVY9lScLMmZMhdidEciGVpYCApkhMTFaPr/dDCAK9eneHiLsgUjzNqUe3LuYuPbp3QUJikmpELdqyW1UzGs4wASbABBoOgfkLl4A9JTWc+8lXwgSYQP0kUFRYiKREo4tTcQXCaLmYYiakJKepF9Q+OIjsFtqTHUIQwsJ6mS/yrXc+VHcXfiAPR9OmjFMNkR0oeFtMdBy2kSG0SMK4ecOGLXhkzizkFxTAmYK37d5zEHHkaelGydXNFWPHDEd0dCzNLwU/rf0Nd06fiFAynFYUBQU03qrVv6jDSCSYaKjQuo+lG52thuuzc3Lg5mo96l0Nn56Ht1EC/FzY6I2xgWnxs1FyE1hgKGHBz0UJC86VEODnooQF50oIVOW5ECvoV199r6RzDeaELURRYRHE4r2iJHYXcvPJO5IxnltFTcqVCVWjsmKAsJsQ5eJclol3GCxpcJ4JMAEmwASYABNgAkyACdgYAZMhtLVpWbpStdambHlZYUHUi92PihLbMFREhcuYABNgAkyACTABJsAEmAATUAnwDgM/CEyACTABJsAEmAATYAJM4FYINPBX8Cww3MrDwX2ZABNgAjZKgA2ebfTG8LSYABNomASqYDtQHwE0cHmoPt4SnjMTYAJMgAkwASbABJgAE7AdAiww2M694JkwASbABJgAE2ACTIAJMAGbI8ACg83dEp4QE2ACTIAJMAEmwASYQGMioNVr4eZuPZSAPcVgEIHbKky0mnf3cLNeX2GnqhWyDUPVeHFrJsAEmAATYAJMgAkwASZQZQK+/j54+sk5uHIlGosXrzD3HzioL/r364XcvDw4OjpQROg1apRn0aBpgD/unDERFBwBjg72OH/hEjb8tgWywWg00YaiQE+fNh7ZObnw8vLEr7/+gTOnz5vHFhkRzfmppx+Cl6cn/vnP/5SqK3tgrS0LDGVJ8TETYAJMgAkwASbABJgAE6hOArQLMGXSGBw5egI+FO3ZlHx8vUlY6IlPPv2agqUVYtDgvhg9ciiWLl2jNpk0aTR27T6AY0dPQWenwyMPz0LnTh1w6tQ5tV4IE98vWYWEq0loHhiABx6YibPnLkCRSuIyDxs2AJcvR6FnqKfptFa/rbVllSSryLiCCTABJlB/CYhIz5yYABNgAkzANgiE9ghBHu0ghIdHlJqQJMlYu+53VVgQFTGxV+FBOwWmZG9vj6sJSeqhVCwhJTkVIhqzSGI3YPOWP1VhQRxfvZpAuxAOcLR3FIdq8vHzRkjIbdi2bbepyOq31bYkLbDAYBUbVzABJsAEmAATYAJMgAkwgVsjIBb44s3975t2lBsoIz0Dly5Gmsu73NYBERcvm4+3b9+NCePuQLfundUxvGl34syZcLXeYDCoOw+mxh07BiP+aiLy8/NNRRgzahi2bd+F4uKKIzibG1LGWls3VzcWGCxBcZ4JMAEmwASYABNgAkyACVQngQFhvXH+/EWkpaZfd9h2wW3QqVMwdv65z9wuKysbzs5OGDSoH/r2DUViUjIMUvnFvzCYnjB+JH7buMXct2XrQDKG9sDxE6fNZdYy12vr5eXOAoM1cFzOBJgAE2ACTIAJMAEmwARuhYATLfb79AnFju17rjuMl48nppHx8vIV65CfZ9whEDsT982ajnW/bsLnn32D9//7OZydnDB82MBSYwnbhnvumaraOkRfiTXXjR45DFu27AQqEVTuem1zaT5s9GzGyhkmwASYABNgAkyACTABJlB9BIKCWsHFxQlz5z6gDmpPQoDwhPTY4/dj4YLvr5XZY9a907Fp03bExsSbT+7r5wOhdhQVGaOWCUPmk6fOIqx/b3MbkRHG1ImJydi755C53NnFGa1aBWLihFFqmYa8LOn1Ojz//BP4+ttlyEjLrHTbrIwsFhjMtDjDBJgAE2hABOY+NrsBXQ1fChNgAkygfhIID4/EF18uNk++bdtWqhHyzz//Ziwja+I775yA8+cu4sTxM+Z2IpOcmKKqI7Um16lXLkercRZCut6GuLir5nYDBvSBp6cHvv12ublMZPIL8snz0lfmMmE8/egj92HJ0lXIzsyBVqtFaM8QHD92+oZtJUligcFMkjNMgAkwASbABJgAE2ACTKAaCQhXqUmJheYRhdFycVExeTtKU8vaBweR3UJ7tG8fhLCwXuZ2b73zobq78MOynzBtyjhIsgQH8oAUEx1HRsxGj0cimNvo0cNp8a/Ba689a+67ZOlqRJKAkUQChymJtoqimMvcPdwxdsxwREfHqmXXayvG0FDnEketplFt5Ds7Jwdurtaj3tnINHkatUyAn4taBl6PTsfPRj26WbU4VX4uahF2PToVPxf16GbV4lSr8lyIFfSrr75XK7MTthBFhUUQb/urKwk1pcqKAXoBxlZTTm6urU6N51WHBPi5qEP4Nn5qfjZs/AbV0fT4uagj8DZ+Wn4ubPwG1dH0qvJc1OYrd5MhdHViqaywIM6pt/U3+LY+v+q8cTxW5Qnwc1F5Vo2tJT8bje2OV+56+bmoHKfG1oqfi8Z2xyt3vZV9LmpTYKjczGuuFXtJqjm2PDITYAJMgAkwASbABOqGgFA419TNqavzrAoFHCuOi0fevoMoOHoUhqtxQB5poNjZQeflB31wMJzD+sGpW2donV2q89RVG8taKOTruTQt28fU1rLcssyUFzMztTGViWNTXtx38bE8pkOYjBBu1LeCtiwwCCicmAATYAINjMD8hUvAnpIa2E3ly2EC1yEQszsJ6ZeykEaf1JOZSDmSDt+eXvAJ8YB3O3d40afFQP/rjGBjVZKMougYZP60DoV7/6LFrgxdk0A4hPSA1o0Eg2IDDAkJKDpMgsSf26Bv1gIuU6fAdcggaB3sa+diaFH+V8vyQdRq5+S1exYWGGqXN5+NCTABJsAEmAATYALVR4DeGm97/hAurTD66ncOdIRvdy/0/L9OSD6dgZgtCbiw+Ip6vnZ3t8CI//WuvnPX0EgyGffmHTqCzK++glJYAKc7RsFtwjjYBTYvd0aFdhtyDx5Fzs9rkbVwPgqOn4DPow9B5+lZri0X3DwBFhhunh33ZAJMgAkwASbABJhAnRGI2BiH7U8dglwoo8P9rRHyYBC8gz3KzSftYiZOLo7Ahe+vIHJdHIZ91htBY8ovvst1rIMCRQgL+w4gc+FCaAMC4PXwwzC0bY/dEQXY8VcaYuKLSSNJpiBkGrRzT8Lfm56Ba9ggOL/1OrI2/IHc9euQ8lEefJ99ioWGarx/Ji2mahySh2ICTIAJMAEmwASYABOoSQJXj6Ri6yMHIBfJ6Pevrhj6bmiFwoKYgxAiRH2/d7pCypfVflePptbk9G5ubFJDKjhzDllLlkLfug18X3oRSU3aYuXebBy9VIi8AhleHjr07u4EBycNkqJSkL3xZyT+721kkdqSO0U8dp/zMIovXUDaN0tIkCq6uXnUQS8RSM3Vyc3qme3tHSDcoFpLTg7O1qqqpZx3GKoFIw/CBJgAE2ACTIAJMIFaIkBqSBvv2a0atj4WO7XSJ+32YDC6PRCMhYE/Y+O9ezDn3MRK962NhsWJicjZshUUoQzu981CgZsPjp7KxenIIkzq54JT9hpk5UoY0tkREbEltgNyRhqyN/wMQ3IyPMdMhHR1NPJ27kDe7r1wHTG0NqZeqXP4efhixYxHsT8+Cq9sXGbuM65rf8wO6YO0/Dy4Ojhi3u8rkJyRrNY39W6Cd4ZPUYUFNxIatkeFY9HeTZBlo0VzM58A/Ov2KXSsQK/T4o0d6xGZSFGhqffSu5+Gt2OJIKEnoSQqMx2PrFlgPnfZzOguffF8vxH4v23rcDjyrLmaBQYzCs4wASbABBoOATZ4bjj3kq+ECZQlsP9/p2GghfPYFQPKVpU73v/BaRRT20GvdzPW0UpS9Ns4cw/EOP2e71KuT10VFEZEoujsGTgNH45E/yAsWZ+B8IhCGGij4JvfsihCskIRh4Gz4RTAzAA08W8C577TzdPVublDpsZO5DWp4Pgx5O7YCafeodC5u5vb1FVGLOBfGjIeq88fRwt3L/M0fNy9MYuEhftWL0BRUSHGh4Thib4j8OYfK9RF/8uDx2HxiX3Yc/EECQQ6fDThAYS26qgu5nVaHd4ZMRmf7N+O41Hn0aFZW/X4/lXzKUp0MWYt/8x8HpGZ0mMQfJwq9iQl5vfm6LtRRBGlz6YklOonDlglqRwSLmACTIAJMAEmwASYgG0SiNmViBMfh6Prk8Hk9aiJ1UlKpL7zx5P7ceKjcAT29yvVrsWgJtS/nTpOzO7EUnV1eVB4+jS0HmSsPHAovSU3INBHj8lDXdGmjR3uHumKvt0d0aWTPe4d4wZvPx0cmjSBx6QZ5o/r8FHQ+jWDHdk+OA8ZAikpEbl7DtTlJZnPPaB9N9pByMWe6EvmMpGRaKfgjZ3rVWFBHJ9LikNztxKDbUe9PS6nGu+RgaI8X85IhZO90QuUP7mVFWpKQlgQKTz+MtLJCLyVbzP12PKHvR1x69IbK4/vtSw254XH1R1XLuBfm1chiwzNxbFlYoHBkgbnmQATYAJMgAkwASZgwwRSL2Sqqkgdpra0Osv8lEKsu/NPXFkXj27PtkebO8ovIDtMbaX2V8ezOlItVlAUNAPtMOibNUeGWxPsPZ+P5EwDLicYkJQiIVJ8p0ukqiPhapqE/DyjSg5E9DSLj0LuVxUnR9i3aUOT1yB/375avIiKT2Wnt8PcXkPwxX5StyqTMnIycCHusrl0aNtO2BsboR6LRfuCI3/ihYGj0S+oK6aGDqLdCU8cjDQKCAG0UyFUjExJtI/KSkdzD29Tkfl71G29VHWm7Lwsc1nZzI7zR9UiIYSIHQdTEnlWSTLR4G8mwASYABNgAkyACdgyAVoRpp7LglMzB/h0KO8NSUw9/WIWNty3G3kxBWg2wh99n+1c4RWJ/k4BDup4FTaog0KZ3o7bteiBzHwF4WS3IBkUuLrqVOHgxMVCZGVQLAY74FBhIXKyZDhcPYOrO+eXmqmG3qQ79uoPj9vHQefnB0Os0d1sqUa1fDCua19sp7f36dnpCKRdAWupQ/O2uL1NBzy4ZpG5SUpONjwdnfBg9zD4UmC6rTSOQTLab/g4uSKjIN/cVmTSC/Lg4+xaqkwILLND+uKRdd+VKq/KAQsMVaHFbZkAE2ACTIAJMAEmUIcE0s5lwvu2EpUVy6lE/5WIrY8eQHG2AW7BLhj1RV9otJbvii1bk/ckGkeMZytJIUFA7+GGYkkhu2cNxg9xJfUbDXadKcDEvs44FVOEjBwZQzs74bst2SgMLz9zhXT35ewsaPR6aBwdoWSUvIEv37rmS5wcnHBP5164f3WJEFDRWb3cvMi4eRLmbVqFgkKjECAW+p+OnYlnqUw1ZKY3//83YhruCh2CHw9tR1JuNoaUiW4thIqzKfGlTnF7x57YF3sFGSSw3EwSOxcsMNwMOe7DBJgAE2ACTIAJMIE6IJB2IhOhLwaUO/OppRHY98pJKLTYFin7Yi4Wd1yv5jUUs6D/v0LQdVaQemwsJKNhigR99D9G9ZaSCtvI5WbL2Hwkj3T8QTsLEn6g2Av5FG+iiAyfIykWQxqpJ5V+j14ybyMBoamklNPFL2lVO7nOzdqonoq+njpHPaEz7YAIb0efTp6Dv637Ri0T9gX/GXUXPti7FTHJceaJ+ZNXpUKDQRUWRKG4nk2XzuDern3wIx0nZqWhraePub0QDdt6+mHFqYPmMr1OT7sT/fHE+qXmspvJsMBwM9S4DxNgAkzAxgnMX7gE7CnJxm8ST48J3AQBX1rkp5wpvyvQ9b4giI9IRVnFWDNhO7IvkYqPux63L+qLlmToXCrRqjrldCbEeLaSNORSVMrMgh0JOHraWUi8Sq6QrqU4CzeqOZlG+wU3sUKmt+6WSagk6dw9oNBCG2S8q/Ws2+s7GReBe9Z8ZZ5it2atMTa4C97Z+au57MVhk8m+4AL2R5wyl4lMIrlWFepIQU1bISIhSjVwHtOuM86kXFXbJVF9Jqkk9QnqgoMRp9G5RbDqWjU6uWSHYXjHUBxLiEFKZkqpsUXch8HB3bHr0klIwuXUdZIgzALDdQBxFRNgAkyACTABJsAEbImAbzdPRG8xLhgrmpfYYfjjyQOqsODc0hHjlw6EV7uK3YqmnEhHy1HldysqGrc2yrTOzjDExKJ7C3t8/Yy/+kb9+ucVQtDQUk2E/KAlNayi02cgJadAH9iiVH1tHwhXqUlFxpgK4tyJ5EY1r7gIqZnGwHldaJE/sk1HDGsVjPvJ1kEksUMydvH7ZKtgwDOkjvTWsIkwkDclF/KOdCwhFsvIEFokmXYc3iYPS/8eOQ1FPQbCwc4Or25bSzEZJLVeuF19uEcYntm4Qj22/OFK9g8vhN2Bs4kxEILH9ZKYDwsM1yPEdUyACTABJsAEmAATsBUCtBj2aueG84sjkXaRbBkognPZtP+DM4jfngTfXl4Y+20YnHwcyjZRj0X/vLgCdbwKG9R2Ia309e3aUhyGcyiOi4OuWTM11sJNTSM/H0WXhechBU79+9/UEDXV6WT0BYiPKZ2OuYhBC98yHZb7Pk87FPdSPAVHsoUoIkHDJAyYGsanJWD2ii/g5uKO7NzSHpAkEhzu/OFjU9NS31nUdvx3/yknlAnhwDKonKkTCwwmEvzNBJgAE2ACTIAJMAEbJ+AVRLsFtKo78e0lDHuvZ6nZRm6Ox8lPwtF6SjPc/kEf6ByseM+/1l90VscrNUrdHTh06YICcoOau3UH3GdMReGF8yiIuFjpCYnAbS5dQyDlFSDvr7+g9W8KlwHGt/aVHsRGG5oMoa1Nr6ywYK2dZbmwiahsYoGhsqS4HRNgAkyACTABJsAE6phAiwH+aDezJcKXRsG7vTu6PRhsnBGt/WL2JqHbvPbo99z1ozefWHxR7d/unpYQ49lKcmjbGvadSWg4cACOPUOhd3JA4ZF9kBJLDIGtzVVDEYyd+g2C1q4nsvfugJyRAffx420iyrO1OdenciuiZ326BJ4rE2ACTIAJlCXABs9lifAxE2ggBEgtacT/eqm7B/tfszCSpfLBb3S/obAAshcW/XTOOoz4by+bgmLXtAlcbh8BhfT+s35cDr23L/we+xvsu3SnedIFWkla8hTkPmEqvKfMQP6xk8jb/Af1CYHLoDArPbi4qgRYYKgqMW7PBJgAE2ACTIAJMIG6JEBr52Gf9VZVkxYG/oyYXYmVmo2I07Cwxc/q2nvYZ7YlLKgXQJ57HLt0gtvs2SiOuoKU9/8HOa8ITeb+Hd6PPwuHbr2g9SCvR+QqVEPeg/Qt28Jt3FQ0ef5VuPUfjKxfNiLr229gF9wR3nPuh5aMhDlVDwEN6S9VXoGpes5Z6VGyc3Lg5mrNy26lh+GGDYwAPxcN7IZW4+Xws1GNMBvQUPxcNKCbWY2X0hCei4Qjqdh43x4UZxrQ5al26Di1VYURoFMvZOL8miic/vIS7Dz1GLt0AJqGlvjvr0as1TKUXFSE/ENHkbFoEZSCAjgNGUI7CONhF9istBtVWsGK6NB5B48ge+1aSHExcOg3AN6PPASdZ3mD8MpMrirPhVhAD76OwXJlzldf2rDAUF/uFM/TTKAq/5jNnTjTKAjws9EobnOVL5KfiyojaxQdGtJzsf9/Z3DiI6PnHcemDvDp7EFB2byReCQNqRSzoSChUL2n3eZ1IJWlzvXj/pIb0aLoGGSuWYfCvX9BoWNd0+awa9MWWnd6mVxkgCHhKoojL0PJy4GueUu4TZ0ClyEDb2lnoSrPBQsMNvIoVeWm2ciUeRq1QICfi1qAXE9Pwc9GPb1xNTxtfi5qGHA9Hb6hPRcxu5OQeiEDqeeykHY2EyIitHc3D3jf5gGfTu608+CJFgNtx8C50o8NBWAriotH3t4DKDh6FFJCPBTSQAHFHNB5+0EfHAznsP5w6tYZIo7DraaqPBfVKTCIQGrODi7Iyc+u8iVoyCWtq7MbcvKyy7lJFYMJl6wi5nUhBbK7UdIJdS9SeTOIwHcWib0kWcDgLBNgAkygoRAQ2qbijwgnJsAEGgcBIQzUS4HgRrdHr4d9q5bqB3fPuFFrm6738/DFihmPYn98VKlYB+O69sfskD5Iy8+DK0W7nvf7CiRTMDVfDx8smfpwqWty0Omw4twxfLXnd7X8jtt6Y27PQUjKzYaPiyte3/4rzlHsBpGcHV3w79F3wYMEBmcSsA5fjcEHf/5SThgQbYVQ8TJFnA7y8lUDwsXlZOJtCgKXm0/CGSUWGFQM/IMJMAEm0LAILFi0FOwpqWHdU74aJsAE6i8B8frmpSHjsfr8cbRwJ8Pta8mHIj/PImHhvtULIKJCjw8JwxN9R+DNP1YghaJBi4jPpiTGeHfcLByOu6IWNfNuisdIWLj/p6+RnZeF5j4B+HjsTMxaNV/dTXh+8Hjsi4vE8kM71PYvjpiGyTT+mqN/qceWP6Z1C0Nqfi5e37RcLX6o/yjM6jkYC3dvVI81UTHJYkeFExNgAkyACTABJsAEmAATYAJMoBwBNnouh4QLbJ1AVfQLbf1aeH7VS4CfjRKe8xcu4R2Gazj4uSh5LjhXQoCfixIWnCshUJXnQvgZvWdiaV3/kpFKcoEUR+/553TIJu0efx8NVv0qYdsK4/t6oTm6eI0eBqmk/ekLMj5+jQJmlE3U9tm3tejaUQuyAVeTmMOjMw1ku2A8nvKIBsMGapGZBQivsv99X0LK5bIDGZ1N/fhr5RWNKt+y/Lm4hAkwASbABJgAE2ACTIAJMAErBLS00n7tZT3e/8iAy4fIVsAdeOM/Oly6ICHqGNluuwDJaQpeeMRCYrAyllBJ8nTX4G9PGJCTVL5Rt9s16NJJi3mPSzDkAz1HaXD3bC0+e6MC4aN89+uWsMBwXTxcyQSYABNgAkyACTABJsAEbo6AbxuQ5yNFFRbECAX05v/kWQWDhmhJYJDhROYMaRmVH9vDDchNraA9SRPDh2qwfKVRWBA7F0f+UNRPBa2rXMQCQ5WRcQcmwASYABNgAkyACTABJnBjAnkkDIhdAY2OAnPTJoJYyIfcpkFSilGHyI3iyxUVKXj2HS1CSNXo5HkZX30qV7iDIM6m02kwZY4GE0bqEBWn4PulEiIP07hU17ypBo5OGvx7gRb+vhocPCrj649kdbfhxjO9fgvt9au5lgkwASbABJgAE2ACTIAJMIGbIZCTAoRfVjDnBS2adgT6TdDAyZFcnjqLJT7gRjsMrVtosXqVjLkPG3AlSsFzL5N0UUGyp3h13iRgREUBjz1gwNr1Mv5vnh4uvsbGzZtoMHWSFh/8T8JTjxlAoR1w/1PVs9SvnlEquCguYgJMgAkwgbojwC5V6449n5kJMAEmYCZAGwkfvyuhqBj4+9916NhBgx9WykhINO4wXKTdgRf+ZkDsSVJXot2IX75R1J0C52tCgHkcyhTlkaDwiEFVMyoiA+oTWxWcCpcR1M0ofIi2J87ISL4E5JHa0rLFMvr00Kq7Gpbj3EyeVZJuhhr3YQJMgAkwASbABJgAE2ACNyAgVJBkcqS05IMSw+PxD2pw9ZrA4BlAQdHIm1HCNTsG4e0oj2we7JzKD+xA9gvNgmjHwsLgOY+ECEfasRDix7lLCmKiS/oJAUN4SoLYHrixTXVJxwpyvMNQARQuYgJMgAkwASbABJgAE2ACt0pAawd88KUeLboZR3IlAWHkUB32bjfuMLiSitEzf9NBqBuJFNSb1vdaDTJjjMddhgDu1EckqZDcsz6jh09b47FbE/KE1FWLS6dpLPr/j20yRgyjHYVrGk1DxmtwimwihO3ErSbeYbhVgtyfCTABJsAEmAATYAJMgAlUQEAqAj790oAXn9eTNySFDKCBpSskpF/bCYg6Dhwg4+QP5+uRmq7AnQSH9943xnYQuxP33qXDuo0yDmxQUEyuUj9dIOHtt/RIJKNpEdNh6SoJaWTTINKhTQo6dFDw+Xd6ZOdSe1KDev/tapAWaGwO3KYi5h/1iUBVgqrUp+viud46AX42bp1hQxyBn4uGeFdv/Zr4ubh1hg1xhKo8F5UN3CY4ibf+7s2ArFjaDDBuLpTCpye1IhdvIDO+VLFqf1C2vRjLg8YSbSvaPXD0JG9KtLORm1x6rLJHf3/1OPr27VW2uMJj3mGoEAsXMgEmwASYABNgAo2ZwMUrCvbsl3F4j4LUK0YS4o2vZbKnt8WepBbi0xTw89PA358Wfa4atA6kPL399SJ1E05MQBAQC3uTmlFFRAwF5YUFtV8FwoUYK+OaylJFYwnj6RsnBU89/QL+3PkbeWxyvmFzFhhuiIgbMAEmwATqH4H5C5eAPSXVv/vWEGYcR8ac58n48mKEgiLSuRaL6Ca0mG7ib1xEu1Jk22JS0ygkdYmiYmpDeeFBxsdLAx96M1qXKSpWwe4DMg7uVVBI6h+9Bmjw5DM6dGpnlBTUtRv9MK3hsslTTWKyon4S6DsuDkhPl7GJ3uxm0qeIgnS5kzDh6UfGp/QGWSt0y6/1F4s+iexgi4lRIX3EdzEtGsU3qbCrEYGdycjVmXgJIcSVVFWCgjQYOZjNT+vyGWko5xY7EN4+Xjh+4hTC+ve94WWxwHBDRNyACTABJsAEmAATsEZgFy2wI2MURIQriA03enxp2Z6CSLXQwJk8veRkA5dJeEhNlJGeSAviXFKXcDC2E95h7Cgv/MWnkapGm+7kp76fFoP6auF2zQjU2nmrs/zYGQVrfpKQRLrgoQM1mPOwDiGdymwn0AnVEvphqhFRdz3cNGjf1lRSelZCEBK65smpCnm+EXrgRdAWp0NXlAZdQTz0KIIDsuAgZ0NPH3s5C5rCLMikrC6TtCUVFZCha6GaL4gtRE6EHju3eCGwtS+atvSF1tkHGgdXaD0CoXXxUz86V/LHqSOwnJiAFQJCWBh5j4YMr1shMjKKBQYrnLiYCTABJsAEmAATqAYCl0ht57sFMlqQgHDHHVp0eFwDP++KF883Op1Mb9v/JOFj3z4FP3xmQMcwoH9/LfqFkvBAb9lrIp0nQWbNWgnxl4Hx07QY+/rNvb2XSNfEkBIBKfEc5LwUKHlp9MmgTzrc8zPhlkdbDcL/pUTGrI5O0DiTNOTkDo2j+PagRb+b8ePiuZTbAABAAElEQVRIZQ4B6oJfCAIaO0fSfRfSFX1kkj40Whw9noHfDyQh8GoaeraKgKdDFpQccrqfmw4lN5POQxKZnT08XyHH/uqWRk2Q4zEFAQ1tF33pN6vewdDo9dDrJuG8lxeSkmgrrBJJL4w7bDXl5NJDz4kJlCHAz0UZIHxoJsDPhhmFmrHl3++lZ1qzR/xc1AzfmHgNPvqPPcbOMJCaTIknFqGmc7OpV1dSA6JPwQPAviNa7NiuxZJP9egx3IDBA2R0aFviy/5mzyH6HTyuxZ59GkSdMWDE5GI887hx3BvNXU6PhJx8HkryOXKcfxaa9Fj6JEMhR/iKdzPAqxUJABS616MNNE29SCCgj5M37QRQGb3W1biSfpKVJNScTKpOVpqoxV1GA+KzfqsWb6y1g7u/QjsOMgICZQQGiKBfpAbmmoFssaXBqcoEqvT7oqw1cpXPVjcdFIMBxRt/QbLGG9270z+4SiS9m1CKs+Fk6/OzYXQNemr8XDTo23tLF8fPRgk+ZsEsSghUby42QcFnH0sYP0OLSaNIv6GakxuNN/EO4yeJ1Hm2/KnBtwsVuJCR8eDhWgylnYebVVn6aaOEnxYo6DbCgEXf2EEn9DMqSIaUcBRHH4Lhyl7ISRehJJIfTDIo0DVpB22TjtB1n0K7Ae5waDsYGvsa2gKpYF6monsmA8MGKEigIF7RcWQ/QfYX58gffxJNsyCrCb5dRm+RWfHchKtK35X+3UkCQ3qVRradxgrtdl28EoFHHr6/UpNit6qVwsSNbIlAVVye2dK8eS41T4CfjZpnXB/PwM9F9d41YeT79jsSho7UYPo4YcVbe+nAMRm/b5Jx+QQwcJwGY27XokVA5VSghEHz199JqkvLh+7XkepULgkdxpemiiEfBSd+gpx9FVL0YcixZ8lK2QHawK7Qt+gJjYsvHDqOgdaxfrg9yiXjaRcysuZUdQJV+n0hBIY5d1f9JBX1IBdcGlJXU/JJde0Wk8aBbj5Ji0qu9e0+sZs18WIGtm9fD3u7ioVmy2mw7GlJg/NMgAkwASbABJiAVQKRUQo+/kTCwOG1LyyISfXtoVU/8UkKNm6R8dpzEtr30mA0CS+hXazbH6z5TcLPtKsw5VENZoyVUBS9F7lno5GTfJIEhKOQ46NIOAiCNqAT7ENnwm5Sb+jIkLi+JhYWbO/OaRwc4DDzATgNHoqMZx4juxOya7mW7EdOgOPI0bTAzyO7FR1yFn4BOSrCVF3ht77fYLg9+gRyVy1H0aZf1DYanR6Oc56AvmUr9VhOS0PeFx9AKSQJskwSYvbHH71XKWFBdGWBoQxAPmQCTIAJMAEmwATKExDefj75VEJgGw1mTqrdnQUxGymL3v6nRdLnMjzJkPie1gpmzlVwKlzCkR8knNQr8HLXUiRdDfR2GtjpdCgqyMPVxEJ4yVH4aFQ8HM4lIP1gDjRk7Kl4tYQmKAxOY96EfUtyK6nlJVH5u84l1UFA4+EF1xdeReH+PQDZD1gmbfOWcCAhIvvV56EU5EPfqz+cZz2AnH+9ZtmsVF7j6g7nydNQsI/Gs0j6/qQep9fRWM+RRTZ5KXvqBegHDkfxto0Wra5lqb5Xrx7ly62U8L8OK2C4mAkwASbABJgAEzASiI/Kw7oPj+HOZino5CshfXnlyGjs7aFv6g+XHiHkGajyOjLFcUfIfuAgDFH7oSRdhpJGnlwc7GmhHwCtT0tSF3KhhRF5DqJFT1dSSeraTIPoqzKychVIBQoMOTIKDZSnQAct/D3Rre8QaD1bQ+/dGjpP6k9JqJ642LgdZ+UocytbJyB2F/K+/wbSpXNwHk/GJxbm7UpmOnI+/LcqLIjrkBMTyDbm+v9WHGfci/xNG6H1owAfFkmKj4UUQb6NRSJ1KUPkJeioDfnXuuXEAsMtI+QBmAATYAJMgAk0XALCoHbt/44jLDABHbp7V/lCDVGxyFNkuAzsZ7Vv/pGlkFIvqepBSkw4NL5NoG3RA3bBt0MT4gmHoGG0iLq+k5bbrI7OFUygbgnISQmA+JCAa0ymb1rXi0AlyCZD+gBofPzgOG4y8n/5yeqEtYGtoG/TFvlLFsFhamn7CfnyNWFB9CYXvPahfZD/80qrY1WlggWGqtDitkyACTABJsAEGhGBy2Sz8P67Eh4KTkGHrmWEBVL5oVf4N6ShpWiyReTrvawfIUPiWRScXAPDqQ1qPAJtYDc4Dn4adqQeVF+Mi2948dyACVSSgP3wUbAP6Q5DfDzk6EirvZxodyFvzYob/ttzmDANckYapNPHrI5VlQoWGKpCi9syASbABOoJgfkLl2DuY7PryWx5mrZIIDxSwX/JG9KEmVq0Tymtd23Xohl0pM5TSFFi7fx9yYg4Di79QpF/8jxFHXaD3tMDRbFXyeuQeHtKqdCoFCFlRKPw/CYUn1wLJf0q9CFj4XLnAtgFhhrb8U8m0EgJFCz/DgWk6qcP7QuXZ/5htEMow0LXoTMJ1w6QTh4pU1P6UBfSEw79wpD9zqulK27hiAWGW4DHXZkAE2ACTIAJNEQC67fKWLtExowHtBhDcQ8sbRbsmgdQ7IHWqpBg37ol7Jr4QS4oVDHYt2kBQ1oGCRLRpH1RonYhKnP/+gjFf30NbcsuZOT5NziSm1JOTKCxE9C2aKNGAJfjY1QUhuOHoHvoUWi8/Yy2OxaA7Hr2ga5Zc7j/+xO1VOvmBoVCpGs8PFC4comxLCAQLvc9iJz/vUuRxqsvADILDBY3grNMgAkwASbABBo7gXzywPjHLzK6D6Q4ByQslE1SRhaKYuLURY6UkQ8pMwsy7SAoBok8GdGOAqkp2QcGqN0KL0WSisUxGCKOQEeOGV3mrIBdQOUiy5Y9Lx8zgYZIQOvjS3YLk5D737egFBVB2ypIvUwlI1X91nfvDSkqknbkUlC4YS2Ktm82Y3AYMxEyCQVFf2xQyzQurnD9+z+Q+9WXZDwdb25XHRkWGKqDIo/BBJgAE2ACTKCBEPh0kYQuvTV4fDbZKFSU6I2mXRNSQ4qJV1042rcMRN7Rkyi4GEmqSO7QODlCystH/kEKhHb1HOlY2EPXMgzudz9Z0WhcxgQaNQEDqRcVt2sP9/c+hpybS3EY7JD9yQfkLkkmLho4Tb0TBZt/R/Hu7VCyMtSPCZhMBtMKqf0pZKsgkv3oieQVyR9uz/7D1ATF4ReQS/EWbjWxwHCrBLk/E2ACTIAJMIEGQmD1egkZqQpe/Nv1lwdaikhrF9BEvWotuYwUyalTO+SfvgCdGwkIHo7QiWKKdWDXbiTFTkhX2/APJtCoCZCr04zHy9iWkWBQuGYZCn9eTq6HXa55TTJRUpD9T1r8U7+KUuHqH0oVF/70I8SnJtL1fyPUxBl5TCbABJgAE6hxAmzwXOOIG9wJjp1WsOFHBe98YGVnweKKJYphUHDxilri1IF0sK8luwA35B/ZQKoVdtA1GUR+4sVbUk5MgAnckAAJDkYXq2VaWhEWyrSq8cPyyok1fko+ARNgAkyACTABJmBLBLLzgK/mS7j/aS1aUBC0GyUtBVGz8/VSPyI4m5R0juwXEpC7eSnpRQSRa9T+cOre5UbDcD0TYAJ1RECjr9qeQdVa19FF8WmZABNgAkyACTCBmiPw+QIJPfprMDyscu8RpewcCINmp64dyUtLIYov/gmpYw94PfQmFBGbgTwkFUZY9yVfc1fCIzMBJnAjAkJYsCN7h6okFhiqQovbMgEmwASYABNoYARW/CIhJ1vBS/MqtySQCwpQHJ9I3pCykb3+E/ILT5GYez4IpVCH7B27oXWhEG0kMMiktlRfkpKfj9zDJ1CcnGyOGVGZuYvdFX1Tf7j0CCH9c8fKdOE2DYkAPede31IQtUaQKvfboRGA4EtkAkyACTABJtDYCKz6VcIfaxT8qxJ2C2Y29HbSoW1z5P7+Lhx6T4dD+z4ovBABh3atIZGXF5HEzkPugaPXPL2Ye9psJvfoKRjI65OOolKXC0l9g1kbomKRS/rnroP63aAlVzOB+kugcnuP9ff6eOZMgAkwASbABJhABQQ2UHC2X5co6HuHBs38b2y3YBrCvqkzsjd9BV2rIeQytSn0YpFNqTgxGXb0tl24hiy+mqgKEKY+tv5tSEiC9tp1mOequ7Hxt2gr+qk7E+aOnGECDY8ACwwN757yFTEBJsAEMH/hEqbABKwSWLhUwpbfZLzxP531eAtleiuGAhSdXInsDZ8Ddm2g9+tIUkIxxWA4pbYsio1HUVyCMU9v3YvoU1+SCJhlmexaNINj+yBSt3KAfcvmapVLv1BonZ2hJ3eyjp3aQ0TZNScKXMeJCdwKAZl2qVJTjcHabjSOQp6TYmNjKUYi2QvVUmKBoZZA82mYABNgAkyACdQ1gRzSGHrzfQNSEhW8/2892rWu3M6CnBmJov3zSdfIA/ad74TW1d98KUpBoTFPkZ6FAKEmWtAohSWLcKHrX1+SXfMAUrlqDZmuy751S9i3aQW9v686ffs2LdTvwshowGCoL5fE87RxAosXL0bbtm0xcOBA9ZOSkmJ1xjt27ECbNm0wffp0NG/eHGvWrDG33b9/P+wo8JuHh4f58+6775rrbyXDNgy3Qu8GffMKgJ17ZCQkKRA7m8KDlR19dPTR6zXw8QS6dNDC0+MGA3E1E2ACTIAJVBuBgr27ISVepfE0ZJtLC+ZKfKy2ozFM/Uu10dL7uDLjlqoXdRZ9Rdty9Tfqb1lf7lrE8HQOmocYN69Agz8PKPhzl4JuPbS4ezL9Icolw+S8kvmr7S3GFP2kzFjkbaUFR2oBdM3voIjNndRpK/Q2VEwfsgKNTrx7FAcUX4rKNeLaLZKcmg59YDOLEtvOShlZFMU6joy6DZAy8olBFmTaQVBIIJKysqlcgn1ggHoRwlMUJyZwKwTCw8Px4osv4siRIwgMDMRrr72GJ598EitXriw3rNhZmD17NjZs2IBu3brh4MGDGD16NKZMmULrTB2SyWj/wQcfxKJFi8r1vdUC+o3BqboJ7D4kY/deBSe3Keg8GPDw1NAHKKKXMHnk65p+ByEnR8GRDAVffSTDjV7UtO2oQcf2GtxGn9YtjL94q3tePB4TYAJMoDETELFSJy77CvMOHEb3nMxGh2IAXbH4YA+QRZ+qJK1WR0bBJ2E4eZZkAwuBQKFgU9CRXKKB4uYBLb3Z1Di7QuPqBo2TM/D/7F0HfBTV1v/P7G56IYVAIITee+9WUFGxi70i9vae6PvUZ3tWxN672EVFpSgqKE1AinTpAZJQEhJI32ybme/c2WyySXaT3U1CNsm5+d3MzJ1b/3N35p57WqiJRHpSEDFkgD/NNW5eInpMbRKJaDgMyWjQ+2/esIUc1e2HsVUMjSsMirkUjhzvu8CNOwBuvSkh8NNPP+Hiiy9Ghw5O7pUgHpKSkoiB5aDN5crLdKvViqeeekonFsQYhwwZgqKiIhQUFCA+Ph5Hjx5F27ZtG2T4lXvSIE20jEq379Xw868qdqzTkNQRGDNOxp03GRBF1uVqC3vTNWzfTXGHhvlzVKhEUAwYJWHkMAnDBri9mGuriO8zAowAI8AI1IrALyntsaWEFHVpt05sz0ztPxhpeccg0bWeRodOtMuTnn+cLimPni720DWkxhBLuCyf+1Hkq7im3XdxLYI4it14t/uV8lKd7vcqn5eVL8tTqZxbfVRBeTvFZhViE9zhUBEWolEUa3YNoUYSEdLLVK6zcnuizxQdNtpNL6Vz4noYQukovkMaTBrteinEOi+rh2okjoIGVQ6BagqH4dhByEf30X0aLwUpLBxyamfaLesKq0mBqVNn8v7cMIsZvcF6/CdT302kqyCCHCowIGms3t1Qum2XruQd0o7u2exw5Pomc65XwP8YgSoIiN9kWloaunbtWn4nKioKCQkJSE9Pr5QuMoSFheG6664rzztv3jwMGjRIJxZEoiAYsrKy0LdvX2RnZ+uEyBtvvKGLKZUXCvCECYYAgRPFco5rWPKnilXLNNhJVHPUyRJO+bfs9yK/W0cJImKiszPpBzWsWq9i9lcq3npBRT8iHhJIfFJwIOKJW5EYR3Z/WYypDk+OizICzR+B2265tvkPMsARbicZddon14MgGO6+9HJk799bluI89OvcDYerpIk7fSg92AKt2TGPNqyEEnMsfSsmXS5j/Aj/N5sc5K3ZvGQm1EM7EHbK3QgfcnX5UAUpIbgzriBwm3vVtPK06JJStKadzi5ErdxAxJaacQBaYT6U3dv1KMrpJEhEpE5EGDp1hbFzFxhTOwYlEaGQDwnLngOi2wjvSURPWQjt1lknEgThUFVR2pWHj4yAOwIlZDVMEAVVQ3h4OLp166Yv8IcOHVrptiAYxMLfnZColIEuDh06hHvuuQdff+30AyGID0Ew7Nq1C/Pnzyeun4ybbroJDz/8MJ5//vmqxf2+ZoLBb8iA2eTkZudOogr/JnbQ6RKuu9GAwX3F67N+QscUCR1TDCRjCmTlaFi+WsXBQ8BP9DEooM2MouOAJZ9MRbcGOnQHRo92fhzImAMHRoARYAQYAULA2wK3KYGTmwfk0saUiEL6pcSsQRjzEeKttLmtHwvyNBzaA3QbJOHm2wwY2Mf/b5FqKSBCYQYca76H6dSpiLnsI79hKooMh4j7yazqPURILCJiy1hYiHBa1EQcPohOhQVQ0/dDKyqAsnObHmkoepAioyoTER1SG52IkENDYEp0mostV9imSWXZvlsnFIS1pLBB/VBKokocGIGaENi2bRuuuOKKaln69++PH3/8UddbENwA9yCuXSJK7umucws5TxRKz/fddx/GjtUFDXVdJUEcCEIkUjhPpCAIhauvvpoJBhdwJ+q4drOKH79XYaFtkt4DJPx3ukFXZm7I9tu2ljDlvOq2oIUlrYNZGnalqfhrtQMfv6ih/3iypz0CGNTfRJyI6mUasp9cNyPACDACjYFAVcJA9MG1+91Q/RGL4aphYh05D6QXjDUbVKwn7vJBqr6Y1g8RCUAMbQy1Iq5BfLwEkpIBrVMhpKJCTRJCaJNIHNtfI6F7pwAIBfMxlPz6BJRti2EYNAkx05eT7kESJrtxEsQ4A8XTERODIhF798aAMnyU48fg2L+PYhoUIiB0IqK4EMqOrXosJyKiYiB3JBGmTsSFoKPxBBMRSlExhEJzeP/eJJNkICJBiB8dR9TYEdDEB5gUwq1p+6tOA75mBKohMHLkSOzbR6J6XoLgIgiFZ1cQplULidgWCtCeguAk3HrrrRgwYADuvffeSlm2bNmCnj17lhMMwlpScT15XGcOQyWoPV9sId2COT8oOE4v8MkXyzjjJP9ZvZ5r9p6q2c30cqIX6jGKR3eSI5wcaGb6ophJprYkn84LEUsa1MPJhN1wenGhP0XiOii/UJ2/0G6UJsEhXnIGEwwhJhhJBtMoWBAh4ZAowhRRcQwl5bSoRLIvTTEqARKxLmS6b2zTx3sH+Q4jwAgwAoxAnRBYs0nF/gMaNq7XkEUSC71J/HTsWBmdryDjF8RprmJsqE5tuRe2H9kKy9qP4Fi/AMbBZyJ08qMIH3S5nkUQYA0ZDPEJEDF06PDyZpRjuU4i4sA+KBTVDOJECCLin816LCciYloRJ6KTk4igY0MRESrt3toPZ9M3MgTW/ZlAWrquhyKsJxWl/QlZ7N7Sd1etp4VYORB80iIRuOCCC/Dkk0/iwIED6NixI2bMmIErr7xSFykSgMyZMwfDhg3T74nrV155BRkZGfjtt9/EZXkQhMTy5cvxySefYNasWXr6hx9+iPHjx5fnqcsJEwxe0BMvzfM++gwhm0bDeCwB1j5b8eOrJ+ls1kX7Kxeq686SSkSAPXMdHAf/hpK5HupRaoCMZUsJSRQ7khfJzpBj2tKLciQt6hOckRb24lyihb2nkHHQiv37zUg/UIpDmaXI2Z8Hc5GGmKgSxEaVIibMjJjwErQKyUOrMCuSo7KQELIdJhsRJMUUhdyTMOnUKg5yXDtIcR3oSGzi+E4I63+JpyY5jRFgBBgBRsAHBIQvhK9oE2rpHA39SPft4ktljBjYsBtRmrUIJStehXp4K+ko7IRpxGWIfYAWv9FOxV4fut1gWQykpCdi6DBikZcFJTcHjgP7dUJCOZAGNbNMJ2LbJuKIbEI5ERFL36hU4kR0JAKivogIskwT2qMLStZugiGClLnjYmDdlaZ7rlZIHl2E8P69ULJmg1OhvazPfGAEAkFAiB4J0SHhg0EoPAtrR8JykgiCCHjsscd0XYVp06bp1pDuv/9+3WFbXFyZyBwRr0L5+ZRTTtE5DkL8qXv37rqis6hL3KuPwAQDoViV/SqAvb39VEQuvAjWHjthHrmkDOuTyo7VD1VZ1IKIqJomSol0IS9aum4W1OwdUA9ugVaQBymlOwwpgxEy4gYiDpLJxvOw6o34kZKaEgoRMd45oURR4WOmoJjM6RHhIKxoFJJp10OHiRtBab+m0flO0ouIB1JJuboLMRfOPtWOMEs6lDwRM6DQrpRj9xJY5vwXcvdhMPWcgJDuZJc7tr0fPeOsjAAjwAg0TwSqvvM9fQfWLonBrt/iUdxxO+znbsGqsFKs3kZKywOn1Tso9qxtsO1eBMfeJVD374Ch20DanR+JmGtn13tbvlRYFR9RxtuGmyGxNUSsRkTo4kyCE1FGRND3U9kq4oYKIiKOuBhERMgkxhQIERFGis3WfRm6EzpHXj4RCh1BaiOwZ+fARDoatgOZsB/J1gkI627voia+YMJ5GAGBwPXXX6/rGgg/CsnJyeWgCF8oQsxIKDCLIESMhLlVb6FVq1ZYuHAhhOM34QW6TZv62xBggqEK6pI5Gqatw/FHpArzSYuhxR+tkiOwS4M1H9H7/0DhivVQ9myEoTdxC5J6IWLs7WS6bUBglfpZSpjzFc7iEsjSkjO4jhUVCQtNS1ep2EsytDd/YMSA07th/JjuGDuyYvdLJblX665fYd/zO6y/zIQUSy/nLqNg7DSWPGKO0zkfFTXyGSPgHwIaZXe3xiJKi5k6jxQpOfiOwNvvfgq2lOQ7Xg2dc8vaKGz7rRXiu1jw+EwD7lm+plqT/iyoqxUuS7BlroV13WdQ9v+li80Yuo1D6JhbEXrd6WUmUr2VDP70ciJi+Mjyzio5R2EnIkIRMb1MnIlM5DooYvN6NyKCuBjEgXAnIkDK1p6CZQ8RAa5FGYn9mjds1bPZDh4mTJ3fQlv6QRJZMnkqzmmMQEAICJ8L7sSCqxIXseC69uWYmJjoSza/8rQogqHqQqTqIsSQ1hvhG0bAMmgDnn+8Ky1a6k4sJG78CDHZmxB3eA9yUwfobODoK2Z5FSXy6+k1QGZhoem6KU6F6eJbgCVEPMyfr+Kjt1QMJ9Z5164SJo5PQPjgK/UoumDLWAP7gT9hW/8ZLN/9B1JiMu1ijYDcujsihl5Hrq35pdoAj6pZVOnpNylMNXoL9bGg8lY3pwc/Av7Ol8Ye0f4MDSt/JX8OayMRmWTH+Ctz0KGLFZ070M6NH6G2ee84vg/WLXPIqdo8XSHXNOBcmM5+HGG9z/HaSlUsRUbxTazp9+e1sjreqG18NVVvaJ0EETFiVHk25Wi2k4ggkSadEyF0IvJIT4KiOxEB4kQUlXEiVNJPkEKNpJ8QXUEslNWoWQR/gQJ5eiZNQf1U+KLQrC7BKMKO9B04MALNGYFGJRg8vbDm02LBk4iQp3SR5u1F46kOrzuU1jCErielEMWAkrNI1iualItR8fIJZAKUbvoKvX5/HQopGBcm9cH+iS+QAnIIetQgqhRIOw1ZRjidmzxR1mMGiS59+qWC1b9piI2hd7ObvG0I6VaIiDKJLVvGX7D9Mx/2rfOQv2AG5G6DYexxOkJ6TIQxvktDdpnrbqEIVHoP5HgXc2ih8PCw64iAzSqjpESGuVjGihwVm9Oi9XPhnywkTCVbEuTULIsUmAvD9EX38aMmpG+JgD1fQfJA4PSpOWjTrmJxWcfu6MVtmbRRs+cPEhP9A9qxIzD0PwNh5z2HS1ZuJ3vclCWLdsM3vN8iuXOGpDYQESNHl0OtZGfRxhYREIITIcSZdCKighOhhUTDTt9o8owFicxQSTGkG9GKjtFkrYk8WLuCpqrEZKjguIt0lUxcGVPaubLwkRFolgg0KsEQDIhu2KYiYvG5sHVJg6P3Rr1L1QV1fO9p7J6fkLx1Nmyx8cgceiNKOp7ie+EgzpnaTpiRNeJPMvn3+lMqrryDnAOdUvml6ep+SOooIiCcBJdqKSQZ2t9g3/07ipe8RdaYYiF3GobQgVPK87jK8bH5IuBpc6CxdjObL8rNZ2TBMl+KCgxYNiceuTsiENLKgdAYBRltSVxVNiEsiqgFmsTmIiMKjspYReKcR47FwG6WEZnowIDTCnHrpGja1CLzdfUQQo7vQVjuDsQeWoO4Q9tQ2ioBGYn9UNj3WphTnAvjCZ26AYJg8BAqEdV0f0KZmVMPWZtlkvAwrXuZdiMiCsnUZcjRLCcRsS8NtqxsqKVmaGQlCcSl0HkJRBVqYVEwkJVBue8gSOFhgBtngeza0rcsBRFDToxocbN8OE15UMRpypt6RZMbgUTiT6ZJ5yPywkt97vsJIxj82vH3uft1yyin9cGrC8ivwhCyTNTuQOCVqQri/vkKbXfMhyM0UicUxpxyE0o82OquqZGqL3RvymA11dHQ98YNk5H4nIRXZirII4dBV15Ys78HOSwGYQMu0aPom3ndx1BJgbp07v0wl5bA0OsUhPQ6C6HdJ9DH1zMB0tBj4voZAUaAEaiKwPI15HfntXbofmohzr2R2FZlwanIfNx1WX6c2DmOiIO6i7GWV0gnsr0YpX9/hs7rvkY8eWc7ntIDeR3GIWvYHThlwEnI8vMb4153Uzhv6G+ilJSEsC7E9R41phwOJeuILs4kfEUIHxFF+4hQc5SiyBaD5/IP4agShu+vJXldDoxAE0ZAIx0d+0KSqAlGgiG4cCWHNxvGwlAUjSdfNOCOJQcC6p6RPOsk7PgG+V/+jpikHkgffQ/M7SuUsQKqtAkU6kV6DP972oAXXibfFMcV3Dm1ZqLBfUgRw29wXp7xGBxHd8C6YyEsS16C+bM7ILcnhbT2A4m1OwQmisbWvdyL8jkjwAj4gQArPPsBVpWsK36Kw1HiPo+7Lgedu9Nu8wkMkmJH9IHFiCcjGYkHtsLeZxSOdT0TBybM1MVaT2BXWkxTXjlaDz6Kq8iJXTTZwRXbWQVR5L+oDJWGJmZaDPg80EZDQFO8W1vy1KkTxmHw1HhjpBkO9EToPwPgaJsFy8kLkdrOu4Klt/7F7JmP2MN/IyltLY7QDnnUtO+wrqRlQZmUIOG5/xnxzEsOTJvqQO+hEnkdlDC4r4yECkuu3iDU041JvSEiTv43NNrBsWf+DTv5orDvWgTrHy8DxBqWU3rCQJaXTF3GIaRDhY3uGivmm4wAIVD1gy5ACUauXUt+WF4XajUovjckXnu3h2Pr0hiEt1JoQ8SI1VknjlgQ78DETR+iHel/mVslI7frGUg/6VFM6DkYhc2ck9CQz7Rq3VXnnC+ikUVCoY8DIxBkCEhR0eQ3i2zkewhShHPOaman3xAPWfxOqvdVrifRI6Gc3NhBPtwZ9/7bAaM1FaWjl+nmUl07Bb72TS3KQruVzxKhsAo5nUdi49WzoZKiVN+kbkADvdCDedEj9L6EXoNQiN64TcOav1R8TtaU6FuHPoPIU2lHyWev2JIxXDfJKsyyuoIjZydxIXaR856VJML0ADm5zobcsT8ccWQju/dEmNoPIROu5DiCAyPACDACdURg46oobJqdiI4kgnTaBccRFe6fJaNAmzcqpTgpdxkKnnsF4e0HYNeZz8Ca2CfQ6pp9uWD+JgZz35r9xGjKAyRfC63e/oQM71Ts+Nt274L51RkeRyV36IzIm0mRlPQnYDDA/NG7UNJ26XmlqBhE3n0/pAjihpECv333Tlg+fgcamQeua6h3gqGuHarv8nJOO5h2DICkyJhym4zndi4KqIlTsn9D4cwXoPY+HVuu+AqqybP95oAqD6BQ1RdTY+6cCoVoEc8/w6mDsG23hj+WkvzvNyqW0XHSJBnjhjvv+TNUIZKkiyX1PV8vppbkwrLtBziy9sCy7FWUHt4L0I9Dbt8PRhJlkqJIHrXPuWTernGfjT9j5LyMACPQuAhopZF4cqYDR3Iicc7/HUZScv1aM/I2ukjrMUw++htOK87E4ujOxKn+FplmNs3pDa+mnO7pe101TYzPqR9D37UqoTG/71W6wpcNgIAUEgb1+DEUPvSvWmuXyEx95LTbUfrd13CQnxFDz776ddGj90Oz2RB+3TTY/9kK69xvSC9UQvi0u2A6gwz7/PRDrXXXlsFo20QuJsuCtVsnhO494LrUj57SxA2R7rj7pkp5ja99UOnadVFUTK6EPQRP6Z7SRFFP6Z7SRN4DmcUw7OsNU3oXSPYQ2o3eArVDGvr3JE32nSJHRfBWhyv9/MM/YEzxfmwNawNp6tfIUslGc5Xgyuue7ClN3Pcn3d+8f+UIW3qVw6jENnDcU4XDQ5PI+Mp7ldM9pYmqPKV7SnPL2/65abimrBuLd43ClxvPwLddumHUkfdxVtgK5x1Rx6vvV5tv4qanOedMy4IxdDSiOo4GOjqrKY0thbyZTAvuWgO1IBPW7x8ld9WxUFP7wWRsB0NcT7KrnQo5PNFjvV7b69qxMj4io5c+e+qvt3r19Kp114JnpefnT15Xn/151h6eib/js9C74aq5X4nW9SA4eZ+fT789D8HTHPeUJor6k+41b1FR5edaE57+YFH1mYoO18N8sXqrt+ozdbVXNd1LH0R2T8/VU5q3vN7SvdVR13kh2vP0XD2l+ZpXzuyG8PUj0e5iO0Zdki2KlQd/6hWFPOX3lBae9TfyVj+JF/evwvyYnngi5Xwcju6JC+g9BXP1d7inOvxprz7y1kcd/owjkPaqfv+8ffsM9LuuGhq6b/XRnq/jq/ZtF42XvQeq9oOvPSNQXOKHGI/Y5a9jkKKjoRT4Zk1NSibzvfQ8BbEggrLrH6j0XZNTuxKXYScZkemNgi9n6fcEB8K2+k9EXntj/RAMzlqd/6Ojosq9IrrSPaWJeyI9z5Wp7CjSvIkf+ZPuyit+xKJOV3Clu67FcWIUiQNRIJ8rWEFWLXSxGLIqN37caIw5R8LoIWJn+7SyCI/9q1qvplhhXvU2Pjv8GeS23ckJ2S3oM/5e0Qwm6v+r/3P1w/2OpzRx35/0OucVJr/cO1V27u351XfeCaF/YULoGuy++gt889Rw/Gq+ECnGXegdsgMDD0eirUVGDNkxdw+ib1X3+DyliTKxnYfDVhAOdDqnvApH/m6ynV0M+5Yl5FRuOWmq0UIgMgaG3YNgBTn5ISJCiqBjZAe9jKe6PeEjMnvLW7W/3vK60qviXFN7dckbSHtVx+JpzK56q+YV6TFe3gNVf2cirwie0j2liby1/R7c3xke83r4PdSEfdXx1YRF1eck+uspv6e0mvJ6q9fXdH/bqzpmb33zlu6tvfqYF6JNT3PDU5p7Xvd5IfKmpWv4gRxSHjqm4UYy4NC/pyBrnd8SUc4VPM4huulPuitv6eZvYFv7CckcH0fIiKsQN+Ud3EqimO7Bldc9TZz7k+4NC091eMvrT7q3vJ7a85Tm7/h8rsPDb1205T4Pq84Lcb9qaKjx+TyOsg5Vy+9lfOL35+3dUHVsfO0dAYGjT8HLc/CprCuT8PNhsyPy3gdh6tmT9DhJHGnWu9Dyq1tjk1u3gXBM6B6EjxGZ/I4oe3dCKSyAFBtHjgrJ0zkFOZHWOvEJOpGhizC5F/Tz3BgyqF+lIlWvxU1PaZUKNeKFIBIWL1aR9jfQjzwRn0liMeMf8V/8RQxBLTkG8+q34fjrKxh6jEbEFe8gJGV4I46uHpomSjTuo689VlQtnSZ+gwT6Fo8knYYesS/hL+tAZCrJ2G3vjg0fKcjZ1w2mUAURUQpkg0aEMzlAinJANaeSlVUNcbEO9EotxeB4DSk+ds7Yqoc+Zw2GIeUlnEREiZOIOPgnQM9aeO8UMn6lK+jHhFBy2BNH1wmQY4kzlWClH5iDZASN5XXwCSPQZBCg3/3XIybh8rUL663L3r4DntI9pdVbR+pYkXjLzfpUEaK/eHlmw/++S9fPgvXPd2mTIg6ho29CWP+L6jgCLu4TAjV8+3wqz5kYgXpCQHgBl0jao1qw26DmZOvOAY0dUlD0xiswZx9GyFnnIfKu+1D85MPVikixraopOgvFZ5FOCxZYV69ExLU3ofSLj2lZE4rQMpPBEr3whCnVuoQ6vS2rLTjr0hM/yqYf1LB4uYq/ftfQmlaRJ50q48HpMsivSkBBJfOoJb8+AcemRTAOOwdRN88h6z0t0KSntxdsPRISo0I3kw/tzTq1G/fcRAiRuCP5JhQRp0GlL7mmkahS966w7DqKowUm2B0SdmZE4PfnFVJ67oaOnc1ITrChPx27tbHCw0/Q4xyoICIGl9/X6MelWY7BkBoP2xYSaSrKICq/CMrh1TBnLADaHCQqkohPlVYWKv1U6Lz4p/+Q455WFIm4CI0gD6DtYT9Mi49ORGhEJUAob7sHjwunesTTvS0+ZwQYgdoR+PgrBaH0MxUGGxoyCJ8ztj/fhxzfDuHnPo3Qbqc1ZHNcd0tDwNv3mnBorLVZS3sEvo5XSu6AqNvvqZbdkZkB8xukG7tzKwofeQBaiVN83/rD1wg/5T0iJGKhFRVUKid0HeRBFZuh4qYgFlTyGyKCS1ch4uoboRK3ofSbL2CgtutKLIi6G/aNKVqox7D4TxW//6YiJ5N2rE+X8OBjBnRJFazkwIJamgfzilfh+PMLGEdehKhbZ+uWdwKrjUsFikByKzuS3QqHdJdgKyFzhilOk4ZnDSwkjkEiDq3Yi1W7o5CdZ8LcFfHIOhSOiE8dSE5sh47JFsQRZ2Jwp1K0jbW71eb9VCKL2lJYIkzt+qEkagB271cRFkLmYXvTnBJsRuG90Ug/YJnqk4kypyi36kCeQPOgkg8JrbQQmplYhuZ8+qGTTJzZ7GyMqHqEhesEBUKj6EiRiAk5vhOxBjuTSFRHZ52qyXvn+A4j0EgIeCRyG6kv9d3sirUq1i7VMOOFBvr0kVfg4oUPk07VUvq9t0f45KeYUKjvh8j1MQJNDAE1PQ2F/7nba6+l+NaAKaScYBDrD7W0lNYOoUQwVC6m5R6FoS2tmIhgFPnoBMbk9rAucnKTpZBQnWiwLfheL2jo0YesTVYWYapco+9XDfTW9L0DteXcn0nchGUqVv9GIik9gTPOknHqmMBEjlxtKYVHYFn3EewrPoNhyCRE/2sRLeI6uW7zsSoCnnYyGmGXvHW0A+cPrawYlJ3UF9uXFhEXIhy708Mx7/fWsFtltO3uQJuINuhAXIgQEnVqHeNAdKiGkOi+IEMCMFs07Cc55n1pQOY7Dlhovd+a1vFWolGstO4fPFbCmPu/chIPZXgcPqphB3G3MnI0ZBLRaqE6IiIlRJKoY2RbMthE52TgDGFSIQxKkR6NahFCLJlIDLEgyZwB26EfSbbwIKROTo+wUlIqcTiGwbLzJyIiqGMqW0mpOv3q9drDXC62FuFomAYz0W8yqdOklgS+CeFrX70tyqulN8LvzNcxNLV82bkaPn5Dxa33yYitbruiTsNRCg6hdO2HcKz9FnKngTANuRSR5F+GAyPACDACtSEgTKFGXHMDip95FBotQoTlI4ns1qtEHIhgHDQcCnkd1/JyoWYdJvH5EhiHjoJj/WoY+g2kD5cELd3JYQi/8TYyRb8ftoU/ksXIEIRdOAXWJYtq64JP94OWYPjsOwXbt5qIm6Bg9AQJjz1rQMf2dfuQW3YthG3zd1C2LINhwMmIunMejIk9fAKKMzU+Aq7FlLuimlBb7nBlR5zp1r1CosgFoXkgMwHpRBTkk2Kj/SBg36iARAZhI/WEKNIx6tRNwqhREq65QtbNwrqq2JehYSXtRH74gQIL1RVGi4s8IhCEWfa2RFS0J65Wr17EnaDFp5F+QcUlGgQn8UgWWSSwhRPRT1Fto4tYkdQTigo1ZB1wlj2TCN4xQ50Er5J/EI7c3XBkrIFtzceQOu4kFiSJO7XrA2OnMTB1GObqEh9rQEAYPFi/owjb9hQjPCYPY0crKLYVo9hRghJ7Mcy2EhTTsYSOZrvzXKSV0HmpvYwr5DaBHlikoUNp3d417t11zVv3ND4/8Qi8+a6C0y+QMGJg3Tac3HtuO7gO1jUfQdn8OwzDz0PUTbNhbMM+FNwx4nNGgBGoGQFh3ci2eSNinn0ZSn4+iTdHoui1F8sKkWnUi6bA8ttC2P/8gzYVSTz743cReRuJOE2+iIgCI4rfewsur82Wb79A5J3TETpyDOljxsC6bg1tZKysuQM+3g0qguFwtobflqj4k7gJyV3IZkVPFc8+QeIddQj2I1tg3fwtHFsWkJxXG5gGkujR5BfJzKZQEOEQMAIedmr1uuppR7Qui6wYWuAP7CPpMZDxCTG3LqkGXHMJkEbEQylxHTqlSIiKCKS2ijK/Eqfs+29VfPOlignkm+LcCSkwtEqpJLJg2fYjKXznQslYB/uqD6AV5EEe1wOGlMEw0EIkfOCUMjZkRb3N5cxMi3exiBeLfHHUF/niSIt/sbAvoqO4l51PxIAgAogzYNNowW8oW/SLXWMi0Fas8g+RMGMYTIWlcNA60m6SsKyzhrP3aiDVMpgG9S2vTIiwieBtbjaI3HCgvzP6HV6+5mcn27p8BC335KsfDDASB+mqi0gfqR6C/fAmlC56mkQT98E08kpEPvQc5DDaheDACDACjIC/CND72vr9V7AtmKPvZmrHc9xq0FD02AOVvvvqwXQUPfxvSHEJ5daQXAUEV6Lo8QfoXiLtZhbUi8M2V91BQTB8u0DBzh0a9m4ERp8l4aHHnboJRcVOGXZXZ309Cg/B1u3z4dj6E8mZF8E44FyyQ/sZTG0rW4TytT7O5wcCfi5wvC2+/GixQbN2rYOOTNWOnXmyDBHXbVax8FcVP3yhYsh4CTdfayCfEc7cYf0ucJ6MuEk/qqQjYc9cB9v2BcRWfIU4EbPIJON1VasOmmuLZkNR6TF9Ye/c5Rc7+4IQcC72nedF+m6/izgw032x86+S/LdfwW2jWCz6I8iZYpghDHnHouglGYlBPaLRKiIKkSGRiKR7UcZI2DU7lqUvRY75KPKonyJYHBZEJrZGERFqIqwhztPeAYk4Nvdy/Vr8S4xojQ6xqbim3/VIIpO8zSUE+++vPnAWSs7rlhrx/Et1/9ypZrKk98cMODYuQMiptyLium/ro4tcByPACDACuuM1VCIWykDxshHrMp3qCTohvlTfoe5v0Dr26MMvFawiEYABoyV8/LkBJLYVUHCQEqqVFlWO7b+QkshxGPqchrBJjyG066kB1ceF6hkBb4REPTfTFKobTiIRIgoFzDVrNdxyowNnXiJhymSDrsfkPgY5Ih6hPc/Uo0gXnq6ta2eRwsVOUsSIB0rJTpQa5l6kzudi0V+iWiiW6tF+pBT5xbtQTNdmPc2qp1v/mle28CexH1rwCy6Ag9ilyAisC6GGUESULe6LC8ORcySCFNmjkNQqCol0bBMXhfbxtPAnT96CCIgiIiDSRMQAnRsk586xS1ztk28UrP5Yw533GtCPlOhd4fm/nsXuYztcl+XHY2XEgivhmNl9hwfIpWsRFU3BAyMfdGXjY5AjMI+MZCybr2H8ZAeZaK6bkYGSFa/BvuQdkh0+FzHTVxKXOi7IR8/dYwQYAUbAOwKSkKn2I/iX24+Ka8u6dRcpoH2ooC2Jerz0mjEgJTSNFiilG7+CfcPXJLqRC0Pf0xF21qMI7XJybc3zfUag0REYP4J8howA9hzQMGeuimlTHZhEhMNFZxPh4KV3Yf0uhIg20nuw/PkGmWNbA+OI8xE2/AYvJWpOXpGsYlUXoj1I17pUxLmXVS9Q3fmsM48HZ5gmclsvdvqdu/qRdE4Le7HA1xf2tNino0iLNDoX/vqinxb8saFOcY4txGn85BMFya0l/PdaUl6nYyDhuikGtKexPTNdwajJEu6eRjao6e9w0aEaqxNEi121e+V2HCk8XGP5E3bTGwHuZSfqhPUriBr6+GsFG/7S8OhzBrSOD4xbLYZT/NsTUHYuJt8sqYic9jVMyQOCaJTcFUaAEWAE/EdAEAsm8vfgT2gUguFTUmj+/XsNV9ws46xT/Gcp2NJXw7rhKyibfoXcaxRCT/03wnpO8mfcnJcRCBoEuneS8H/3GLCD5Oa//V7BXDIV25+sNI0aIWHscNkj1y0kdSRCrhxJ7uQPknWWj1D84WXkGr4/aWgTG9JCsos+BBL3x/pU4GBi9UV5tIEW9jKJ+cjhiIlrXU4EuHb1owQngBb9uqgPnQsiIS4scL0glaSRPhLcRtJfumyqU3TLhyHUmGXCeBlWUnD/8i0Vuydo6N7ZySmoWuiSPpdj/i7i3JCH96mDbsEv+3/GvuN7q2bTrwWXgUPwI/Dimwryj2t45ikjedsmwwPFgfXZ/OfrcKz7lsxuX46oCf8NrBIuxQgwAs0XAW+bN81wxCeUYBB+FBb9oiKG1hUzXzcgKaH6QsUbxvbDm3W9BOUfEjmi1YVpyEWIuG8pDDFkj5YDI9AMEOhNsvOPPmDEsXzoVpp+I3GK915Q0Y/0HATxMKSfrC9+3IdqiE1B1MRHAYpmMhWsFXxGt7Nh6EZWwM58vDyrJ4XcePIAfntJFvIt+cQFcMr5x5G36xMdMo9oeOVVhQgT8rz7ZmDcRm99PmcCbUjQa+at1xXMmFFd4TUlpgO6xXXTiQVvdTSH9JagqyCeUwFZNZv5igPx9G158pG6fN5I0XDefVAPbUXULT+QNb3uzWEa8BgYAUaAEQgYAUmjEHBpPwp+PVfBgk80jDpHwp1Tq3+4PVVVsHclDPt/h7L9V91klLH3RIT0PRchqaM8Zee0FoKAS069JQw3j5w8rlyn4g8iHgSh/fhDtS+CSpY8D+XgRqgHt5MFl8sRPvImyJHkGCYIw1pSAH/nRRWTpki49Fzf3gs1DcM5NyLhyNlDJmv3QMnZTdk1/LytM7JKu5FC81OVit8y9A50iumMPMtxPT01piNyS3N1nQxXxvc3vVuuIC0sJX12/teuW8F3pNe57nCQdr2+HjEJl69diLgPvwq+fjZAjxYtVzF3jophYyRcf1nlueTPO0MtyUXxd7cSt64VYi59l2ycV66rAbrOVTYSAv7Mi0bqIjfbCAjwvPAMeoMTDMIe/gcfK7q9+mk3GpDStmaugrBNb9kyG45NP0Ihg/kh/c4kImEyQjqQsDcHRoAQaKk/5udpl5z8sODeW3xbwNiPbIVlzQckUrGA9BwmI2zEVJK/JrGlIAlziQia85GKm8mR1jgSvapLEI7v7FvnwpG5BTieCymePGuTzLkU2043LaoVHEHWnn343zBS2CgLvVr3weRu52Hm6udcSbh96N01iiQFPcFQPhLg7Xc/xW23XOuW0nxPxbbX/Q+Ss0by1XP/XdV/H76+M0rXz4J1+dsw9j/HyblrvpDxyAgBX+cFg9WyEOB54fl5175d6bmcT6lzflbw3dsaLrlNwsWkyOk1kDnF0i3fwU5O1dQDW8mp2hkIn/wsrK0HIYqso3BgBBgBWhDRQujhJxz49FsF115aw++pDCxBHJgueBUqyV6Xrn0fJbOuhtyhL8InPNToJobf+0zBPxs1PP6804Sy/89Xg4WsotkpKjtWQEruClOfSVB6nYdWfcgLGylfVw2W46QoseKK8uTzul2IT7d9VH7NJ00XgU/JKlZCkmdiwddRlSx/Bfbf34Zh2GQmFnwFjfMxAoxAi0GgQQiGv7eqmL9Ahd0OPPOWAZ07VOcqqMVHYd31C+y7foO6ax15ue2NkMGXIfxqYp+XsYCtxQFqqrWYx8cDbUkIiF/R9HuMeOQRBxLiVZxzum+78nJUa0Se9hBAsWT5iyh571IYBp+NiJOnn3AdoIzDZAXpC0W3AjXjWSPCQv17gpadP8O28Wuou9dC6tCTiAQax8THYBCcBAqKeGd4IBbEvdbxld9Dr69/ucLTs8jAoUkiICzuLZ2nYeYbgX3OlPx0lMwjx0iKHVF3ETeO9RWa5DzgTjMCjEDDIhDYG7aGPrlkkvuQkub0Oyvvggob8srx/XDs+h3a4TTIPUbC1OsshJ7/KslYJ9RQK99iBBgBgUA86THc+28DnnyQdlTJDcOowb4RDS70Ik8iRc4RN8K89AUUvXASTCdfj4jxd5N7+WhXlgY9ziLOgnDV4Isuhqsj1n3LYSMP2Mq2RZBap8LUbzJMpz5QZy7Jxb0uRfvoFFcz+lHoMLSJbAuzo8JmbKGtAG+vf6NSPr4IDgSEKNKsjxRcNk1GYgD6+qUbv4R1wVMwjbsOkaf+JzgGxb1gBBgBRiAIEahXHYa55L32+1kkk/xvGSO7psNx8G84Dm2AkrkJ2qE0kituTSIRA0kvYTJCe5xVKxwsR1YrRC0yA88L8ka8QcWbz6u48R4Zp4z2j2hwTRrHsTSYFz1Ju/Xky2H4RaTjcAOMCd1ct+v9+O18BVs2aT5Zr1EtBTD//jQcO5dACo3UZcpD+11E/etaY79qmhvCD8M1bt6b2xGxIDxEu4dLe1+GVYdW4VBhZnmyXXUgs+CAfi14FG/klsLYeQzk2GSEDboMEnmX5tA4CMyarSDrCPB/5KCvplB1Xoj5VbLwEaj0bQqf/DRCOo+vqTjfa6YIVJ0XzXSYPCw/EeB54RkwY95/aYFAIkCqQYYmGymSgyP9aIRKR1UyQSMvqopkhBxCdtljYxASEUUfcdItoCiJ/LRluGXjYSTmH8ILQ3Jh+jkPxeHhkNv3hSFlEMJOu5+UlodSmRjPveBURoAR8AuBkUNk/H2GhvdmqCi8Azhvov9Eg1h8x1w+C47j+2BZ+zGK3zoPcvcRCB1+PXlIP8Wv/tSW+Z89GuZ9SnbxX6t5YacW58C86k04Vn0Nw8CJCDvzId1RXW31B3L/cNHBasWKrEU4VJSJfXme/TCIAmHjb4dt569w7F4Cyw9PQk7pDEOHITB2GA5Tx5EkHtWhWr2cUP8ICCd/yxZoeOF1/xjljmO7UTL7Vkit2iP2rqWkFO//b6f+R8M1MgKMACMQ3AgYHzP/A4Nso2iFQbLDSEeTwQxZUhFiFNd2uqajVgRLvoq8bUWIiyxG+/hiJMeWID68GDszQ2APHYbzrrkYYQkp+gdTJyiCe+zcO0agSSNw+40GTDhVw/vvKdhJi6fbbzIgKsL/IRnjuyDqrCfJl8MjMJMTOMtPj8ASEk6+HE6qF2dVQmzkw/cVXHmbjA7JlfUIXL21pa+CTSgxryInWSPOI1nyn2rlJrjKntijpHNHyzmkJPduy1wDe/pa2Lb8QNj9T9+Akdt2g5zcF8a2/WAk5XNj654ntpvNvDVdFIms711+k4wEEtPzNVjTlqB09j0IOWkaIsbd5WsxzscIMAKMQItHICCRJKG4uC+d4gEN6fs1dOws4cYrat45DARpZgsFglrzL8Pzovozfu9zBX+v0HDDrbLfeg3VawNKFpM4UMZaoJA4hmOnImL4jZ6y+ZT2ziwFxaQSMP2Oyu8ITbHAsulb2Ld8Tw6ydsPQ93REkG6CoVVlvQKfGinLVNPcqCqS5Kne+jCrquSlw561FQqZtVWO/AM1m3xBFBZCatsBcrt+MAgCInkAQtoOAIxkJ5eDXwiQrSs88j8HomIkPFiLKJKrYjEvjLvJm/ePTyJsyowG41q52uNj00CgpvdF0xgB97IhEOB54RnVgAgGz1XVfyo/tPrHtDnUyPPC81P8kxy8ffKOitET6o+At+5dAuuqd6Dm7EPI6Ot1smza4AAAQABJREFUJ3CSwXfTRivWqvjyExUvvWREeFkx657FsG2eA2XrHyQCNQwhA0l/ov/FngflZ2pNc8MXgiEmNFZ32uYgvQVPIVA/DMK/jJJ3AI4jW3RCQj2yA2rWQae/iLh2kOJSIcenErHUkY6dYCDLVuKcQ2UEdtMG1dtvKejcQ8K0aw3lc6pyrupXx38l0bGt8xFx2Rvs06c6PC02pab3RYsFhQfO/jm8zAEmGLwAw8nBiwC/5L0/m4Ii4NW3HcjOACZdIOPcCfUjny1Ehiwr3iAF6XWQu5G8fo/TEdJjIozxnb125uAR8rPwsIKb79IwIOw32EnuX9m9HFJ0AkwDL0TYgEshR7fxWj6QGzXNDUEw/Gvx3cgtORpI1XqZEC0J54W9ivZkxTU2WkIP4q4GGjRbCZQCIiSOH4CSnwH1eDpUOmrH6Dz7EOTU7jB2GQtTl5NYKZdA/ul3FZ+/ouJqUvQ/x8d5reTtR8nc6XCUliD2qo/IjLDT/G6gz4zLNS8EanpfNK+R8mj8QYDnhWe0mGDwjAunBjEC/GOu/eFs2KZi3nwVWenAmUQ4XHhW/RAOGikFW3f9CvvuxbT4XwUpJp50HcaTWdYIIgTaki17G+CwQqPj8qUZaCUfRW/7BvKz0gumnhMR0utMsnPfo/YBBJijtrnxwtrnsenI3wHWDrSVh6Bj9nQcIpHMw3vIt0MnoN8gCUMGyBjYJ3DioVqHCD/rvmWw71sBZf8qaMSNkLsNRsigKT6L0zQnT8+vkQ7M/t0abrvNgB5dfMO5ZNlLsC1+GyGn3kimhO9CNDsBrTbNWnpCbe+Llo5PSx0/zwvPT54JBs+4cGoQI8A/Zt8fzpadGub/pOLAdg1nXCDh/LMMCKnuBNn3CqvktKWvhm33ImgFh8hhGsnjk0y+RMctaTIOHw/BOed2RWjvsyFHkNOIExBqmxtHzUcxa+uHOFx4CLnmHJ97lBjRGu1i2uP6/lORFJFUXm4T4bpxi4ptZC425wDQYyjQKk5CLCniGsl4j5HUNkwmST8PIXgiIymGSYgg5fRIigr5pIiMkMjIBMFHNJ1ERzI8h3Cy1CrSXEHJz4Rt7++6YrV2JA2G/hMRSmJcIZ3HubJUOzYHguGPVSoWzFWRSkTCPTcbdHyqDbRKgnXPIlgWPUvEbDIizngExqReLGJQBSO+dCJQ2/uCcWqZCPC88PzcmWDwjAunBjEC/GP2/+HsTNMw+zsFh8ha6IVXyJh0Wv1wHDz1ZDX5iPjgDRXPzjQgKcFt1espcz2nNebcyCsA1hPxkJOr6V7uHaQG4SCCwEEe722C8ULHUrMGko6BpZQiHYkZQ2apKZIlKeHQTj9SuXbdgZvI6lW3jtXxc5DzS+vW7+DYMh8aNWLsPQFRZz7hpDbc8GzqBMOi5Spmvaxi+CQJ9xKxUFuwZ/8Dy8q3oOxbi9CJ9yN84JTyIo05L8o7wSdBhwDPi6B7JEHRIZ4Xnh8DEwyeceHUIEaAf8yBP5zNtCM+m5xdqbRIvexyAwb3rb4gDbx24OgxDQ9OV3DTXTJGk6+IEx2ay9wQTjBnv6ni4lslXHy298Vy6YbPYd/zB9QDGxAy7iZEjL2zHPKmTDC8T1a/Nv2l4da7DehPCs61hdINn8C68HkYeo5D9EVvOdk0boWay7xwGxKf1gMCPC/qAcRmWAXPC88P1T+PN57r4FRGgBFoIggIOfuBTxjxy1IV77ymoPsACaeeLGFov7ov7mmTHK+/reC0c6VGIRaayCPwqZvnnyljAD2r9z9S8M82B24lnxtJidUXzuFDroaItsx1pJT+KvJXzyLC4WZEjLrZp3aCLVNuHvDamw6Ehkt4fqYRkeE191ApyEDJz/+Fln8YEVe9h5BOY2suwHcZAUaAEWAEAkKAOQwBwcaFGhMBpv7rB32VVvjCR8LfyzS06QyMGy/jtLEywny3mlqpIx9+qSCLfLQ8PL3x9iGa49z4fI6CRXM0jDpDwm3Xe+c2iIdhO/Cn05pVzn4Y+0wkh3xPVXpGwXyxdrOK919TcRKJIF1zSc3jFOMwr/0AtoUvwDTuWkSe/lCNQ2uO86LGAfNNnxDgeeETTC0uE88Lz4+cCQbPuHBqECPAP+b6fzgr1qhYvkLF9pXA4NMlnDxewvCBvnMdlpBy6jdfqHh+hpGs0dR//3ytsbnODSGiNJfwveQ6GWefXvtzKSFug0IWlrS8IwgZfwvCh17rK4SNku/ldxRs/lPD1LtljB/hfXxqUTYsm7+BfdN3QEgkIiY9CVMH0jSvJTTXeVHLsPl2LQjwvKgFoBZ6m+eF5wfPBINnXDg1iBHgH3PDPZx8UtwVlmn+JJGlolwyGTqSCIehku49WvawjhN+Hzb/Q0rOZB//X4/Uv06EvyNtznNjzwENLzyj6NauatJrcMdMOMmz/vkmNHqYIeNuJfGlq9xvB8X5Gx8qOLBHwxVXyRja38Mko15ats4hZ3/kEXz3ehgGnEbO/i5BaPfTfe5/c54XPoPAGashwPOiGiScQAjwvPA8DZhg8IwLpwYxAvxjPjEPJ5PEi9ZsVLFhvYaMrUD34WTuk2TLS0s1HM8C8ilKJDnSinyvjSY9iMvOq12MpKF73tznRgY9k5kzFIwivK+6yHe8he8My4rXoR3NIH8OI2DqSs7gup0KQ2yHhn4kXusvKgZeeM2BcDIr+wApN7sTpKr5OJmR/QO27Qugpq2HTGajnM7+pkAyks1ZP0Nznxd+wsHZyxDgecFTwRMCPC88oULfe42C51uNn8oPrfGfQTD2gOfFiX8qhcRJ+IuIh2IyBZqUSA7MkiS0bS0hinwJBFNoCXNDWKKa8byCvuQw7sYrfCcaxHNS8g7AlrYU9r3L9IW4FBMHQ9exkKKSYOo0BoZWqeQNObnBH+nu/Rpee0XBkFEVY7AdWElEwhIoe0mUijwOyl0Hwdj1ZBgSyZdHjzPq1KeWMC/qBFALLczzooU++FqGzfPCM0BMMHjGhVODGAH+MQfxw2nkrrWUuVFkBp6Z4UBqJ1KEvsE/osH9Edky18JG3Ac1Z6/ufE/LI2d2peQkolUcpIgY0hMgD94mogrFsSzCGAopNJrSyYQR6RGI+/o9owlSWCu6prRQSjPQfeFkwkBK8IqDTPk6sHefHSuXH8Y//5TiinE70Tt6B9Ts3dCyD0Jqk6J7DTcR5yO066nu3azzeUuZF3UGqoVVwPOihT1wH4cbrPMiLz8fMdHRMBg8v/OPHTuOhATfnKTWlNdisdD7WiUHo5V3BJlg8HECcbbgQSBYf8zBg1DL7UlLmhvCKdyj/3MgOlbCg/+u/gEJ1A+DpljgEASErZhiCTR7KUqLSpB9pBi5Rwtgt1gRJpkRSjEEFCULTFoJZAcd1VLICkW7BbALr3TkxE6VYFUo2mXI5PraFGIkjkYiWvfsC0PbPhT7wUQxEFEjX2d6S5oXvmLC+VhWneeAZwQa632xdNmfuPvuBzDp7ImY8ewT5Z0rJBb/tdffiqNHj5LzTwvuuutm3HjDNeX3N23eijvumA7ZINHejAMvv/QcRo4cVn7f/aSmvELg6P8eehyLFy2FJEkYO3YkXnn5Of1c1NF49g/dR8DnjAAjwAgwAn4hQGtvPP24EQ897sAscsZ3/WXViQa/KizLLBnCsO5QH6Rnati/DzhIXsKLifGQ3APoQByN0Djyi0a6yVaiCazkwVo/WjU46FwhhgIxEpxHImhiabOrOzle691dpkhlQwLpEZdhBBgBRqB5I/D6G+/iuzlzcdLJYyoNVCziH3v8GfTr2xNPff8FcnJycepp52LkiGHo27c3vYNtuPOu6Xj4oftw9tlnQBAdd951P5Yt/akah6C2vHOo/Y0bt2D16sWQ6O/Sy67DrE++wA3XX633iQmGSo+GLxgBRoARaDoI0CYQ/u8+Ix59zEGsagUX1eAV2tdRff+zgu/e09CbfKCNGS3jqikyOqZQQxwYAUaAEWAEGgSBtm2S8MvPc/DBh5/i0OEjldqYP38hVq1cpKe1bp2IKVMuxMJfFukEw66de3TJT0EsiHDySWMRnxAHwUkYM3qknub6V1Pe0aNGYC61c/utUxFiMulF7rrzZrzx5vvlBINnG3au2vnICDACjAAjENQIxJKqwX3TDVhIzt0WkS+NQIPwsvzUTAfWrdHw9OsGPHK/EaePY2IhUDy5HCPACDACviJw6aUXkhXCcJLi1PToKnfseB4UYt0mJbV2JaFL547YfyBDv07PyECnzqnl98RJZ3F/f3qlNHFRW970dFFXx/JynTqmEpf5QPk1cxjKoeATRoARYASaJgKp7SXc8x8DnntIIU4DMHKQf3tBf6xU8fm7Kk4+V8J1U+pHtKlpIsm9ZgQYAUagfhEwm804ULbAd685LCwMXbp0ck+qdp5zNAdxca0qpcfFxZE+A8mJUhDH+Hj3+xLi3e67F6wtb052bqW24qheIQLlCkah3BGsobiEbDhyYASqIMDzogogfFmOQEueGx3bATf+S8YbT5tgfNSCq6+6SHdAVA5OlZOCIgnrNsrE6pZRUkjmTe+yY2BvjcpUydgMLlvyvGgGj6/BhsDzosGgbdIV+zsvoqOiahzvjp27ccst91bL07tPT3z2ybvV0t0TkpPbIjf3mHuSvohv385p/rpdcjIWLV7qdl/T7w8a1N8tzXlaW97k9m31sh1TO+gFBLHQrqwdkWCsbaDOZhrvf7D3r/GQadkt87xo2c+/ptG35LlxGukd2B0q3n1NwuU3yOiaKhHHgSJ9z4QlvpzjGlat07B+rYr9m4G+4yScdbaEkYNl8qnRvDWSW/K8qOn30tLv8bxo6TPA8/jrc14MHTII69ct9dxQLamxJHMqRJXSMzIhFvIksYTde9LQsaNzUS+Oe/fs08WYhGUjEfbsTcO0m66rVnNtecX9PVT3sKGD9bKiXndxJxZJqgYpJzACjAAj0HQROPNkGfkFGinQqTAXAGZyumfJB4TbBBH6j5Vwxhkyxj5MZk79k1xyVsD/GQFGgBFgBE4QAhIpOV9AysfvYeaMJ3XTqj/+uAAL5n+jt9+jRzdymxMLkXbhhZOxmLgNDruCQYMH6Pc3btoCq9WKUSOHo6a8gtiYculFeH7mK7j4ovOorIS33vkA1197Zfk4mWAoh4JPGAFGgBFoHghcdp4Bl4l3vlsQXrqjIt0S+JQRYAQYAUYgqBEQTIP/PPAvXHXNNIweMwFCH+KB++8p130wGo14+cVncPMt9+DlV9/SiYM3X39Rt3QkFKhnz/4eBYWFOsFQU14BwllnTsDy5SsxYuRptJkk46STxkAoY7sCO25zIcHHJoNAYzlVaTIAteCO8txowQ+/hqHzvKgBnBZ8i+dFC374NQw9WOeFUFoWCs8mk+e9fmGO1aXb4D48QTi4xJVc6d7yivvFtLukKAqEOJR78Nyqew4+ZwQYAUaAEWAEGAFGgBFgBBiBRkPA3bSqp054IhZEvqrEgkjzllfci/LCimYJVoEOB0aAEWAEmhkCb7/7aTMbEQ+HEWAEGAFGoLEQYIKhsZDndhkBRoARYAQYAUaAEWAEGIEmgAATDE3gIXEXGQFGgBFgBBgBRoARYAQYgcZCgAmGxkKe22UEGAFGgBFgBBgBRoARYASaAAJMMDSBh8RdZAQYAUaAEWAEGAFGgBFgBBoLASYYGgt5bpcRYAQYgQZE4LZbrm3A2rlqRoARYAQYgZaEgJSemUOOpjkwAowAI8AIMAKMACPACDACjAAjUB0BdtxWHRNOCXIEgtWpSpDD1iK6x3Oj4jELs6rMZXDiwfOiYl7wWQUCtc4LcniV/8Dd0I7lVBRynZELXslkgmazuVI8HqWEJLSa+ZrHe5wYnAjUOi/cu01zJG/qFe4pNZ7LHToj6ra7Ufjf+wBV1fNG3PYv2DZtgGP1srKyEqIfn4GSTz+Aum+31/rkTt0QeeMtKHr0/mp5oh78Hwxt28KybAlsv8yDZi6ploccNCDuw6+qp3tJYZEkL8BwMiPACDACjAAjwAi0bARcxIJkMEIKCSmPcrsOiPzPY+XX5fcon3vQjnsgNtwz8HmLQiDs/ItRumBuObEgBq8cPwY5JrYCBwmQycuylnesIs3Ps+JnH0XBv2/T52foxb4TNDU1U3lm15ST7zECjAAjwAgwAowAI9ACEQi9/FqYevSGWlJcPnrNakPEvQ+WX8sRkbCn7Yblsw/K0/iEEXAhIKd0hLFDKsxvv+xK0o9qdjaMnTuXp0mRUZDCI6DlHy9P8/XE0Hcg1PR90IqLiBJRYFu5DFF33QeLrxXUkI8JhhrA4VuMACPACDACjAAjwAgIBMyzP4OyfQvktu0BgwHqoQwYBgyFun8vtKICGHr1g2n4KAaLEfCIQNjki1C6cIG+kHfP4Ni0HhEXXARLfGsIjlTImZNhWfUnQOJOIhgHDYeSvp84DrnuxTyemwYMBvoPguXrT/T7xn6D4MjM8JjX30QmGPxFjPMzAowAI8AIMAKMQItCwLrgB30BF3rxlTB17wnzx+84x282I+q+h2FZ/Asc61bBmnW4ReHCg/UNATk5Baau3VD6/uvVCmj5x1Dy1eeIefgJqKWlpG9gRskrz5XlkxB+0RRYflsI+59/VCtbNcE67zuET70DMTNIb4Y4DGpREUreebVqtoCuWek5INi4UGMi4JdCUmN2lNs+4Qjw3DjhkDeJBnleNInHdMI7Weu8cFNolUjcKPrRZ2BZ8jtsi2iXuExhVXRaiI+EXT0VcnQ0Sl5+tnxnWB+Qn4qlJxwEbrAaArXOC/cSbnPEPTmgc+JaSZHR0ArzKxenOeTiNlS+4f1KKORDNkCz1iCM5OfcZA6Dd7z5DiPACDACjAAjwAgwArqVmeIXnobqspgkFnFlQbOUovSDNyC3aef3ws5VBx8ZAcERqEYsCFjKRJP8QUiz2ym7iPUXmGCoPyy5JkaAEWAEGAFGgBFopgiYTp6AsDHjykcnx7aCWlCxG2z5i0SSvv28/D6fMALBjIBk9I8E8C93MI+c+8YIMAKMACPACDACjEADIWCd8yVE1ANxGGKeexWF/7m7gVrjahmBhkNAEAums87zqwEmGPyCizMzAowAI8AIMAKMACPACDACJC0ECbfnND2ukoFUHM5QJFzrx0Nkx21+gMVZGQFGgBFgBBgBRqAFIiDL0J23CQduIsq030pchkppwmkb5ePACAQ7AgqpNyz6ymm21de+MofBV6Q4HyPACDACTQiBt9/9FLfd4s/+URMaHHeVETjBCIRMOh8hQ0dUalUtLkbkw09WSrNtXA/b/DmV0viCEQhGBATR4E9ggsEftDgvI8AIMAKMACPACLQ4BGw//QAROTACDYWAMLwVGgtYKvToA25KFlZVaYXvKA24imoFmWCoBgknMAKMACPACDACjAAjQFJHZd53A8VCSmgdaFEu10wQSOgEzHi+8nI7hBb0Py1WMftNVR/lsEkSrp4iw2IFikqAF59UaiQcYtsDd083ICIMePA2pRwpI11ff6+MPj0kOBxAHhEfr85QYD5WniXgk8ojCLgaLsgIMAKMACPACDACjEAzQoC2fOX2HaAczwl4UHK7DgGX5YLNA4FjB4CbptDq3RWIkzD9aRnbtjqJhfiOwNSrDbj/PgeKs4Bzb5Bw3e0y3n3Ged9VzHXsPAy4904DFi9XMWZ4ZZ2ZMWcLJ2/AfVPJpwMdr7xHxhkXSvjxA//0FVxtuR8rt+R+h88ZAUaAEWAEGAFGgBFowQhEXnUdDH0HoiqnQHAe3IMUl+h+qec39BuEyCtZj6gSMHyBlL5AfKyE7SucYPQfIWHFWlUnFkTKb7M1jBkmlOw9g0UOofHIgwr+XkNEQBU6YDOlff6uWu7r7cgRDeHhFU4GPdfoWypzGHzDiXMxAowAI9CkEGCF5yb1uLizQYqAIakNYu57sFrvrBv/hvn1meXp4ddMReigweXXfMIIeESA1u6XXiZj9g8Vi/rkNhLEwt4V7KR3UFAExJDj8IJMV2rFce8a53l0PB2r0AIFh5z32vUBWreTMOEkGS/OrBBZqqjF/zNjEWn5B2soLiFBLg6MQBUEeF5UAYQvyxHguVEOBZ+4IcDzwg0MPi1HoE7zontPSNPuhvrtF5AvvQq2bt1hC+L1VPmg+aRWBPyZF0LsByDFAR9Dci+gXVsJW5ZUiBvFtQL2plWuoKhYQ3ScZ4Khck4PV0RE3DDVgBRq59clCkqOe8gTQJIxOioqgGInrkiw9+/EIcEtuSPA88IdDT53R4DnhjsafO5CgOeFCwk+uiNQp3kxegwgIodmh4Cv88JJMLjpJ9SCxMXEXfj2R+IuuG3659KCvhURDe4hLkZCwVH3FD/OiYh5+j5FF2m69FYZl9wo4YtXKwgUP2qqlJV1GCrBwReMACPACDACjAAjwAgwAoxA/SKQ1APomiph/a8V4keiBSGO1KF9hWxRGBEPERFAcbb/7fcYDYQTZ0IEQZQs/13F8EEVdTvvBPafCYbAcONSjAAjwAgwAowAI8AIMAKMgE8IXEJmU7+bp0KtwpDYvErDiMGyrrMgKpp0qYQ/VlXoOPQ7mfQZkn1qAoOHyJh8ZcXSvv8QCfsyKhMovtVUPRcrPVfHhFMYAUaAEWAEGAFGgBFgBBiBekEgsSvQqzuZSp1ZhVqg2ouIk/DBpwqeetaAUgtxFkh99/nHnDJLwpnbVZcZ8OPPKtYsqH3hP/cLFbfdJ+PljwxwUBVCefqV593kn+owGkmjUIfyDVpUKGT7KkfWoB3hyoMKAZ4XQfU4gqozPDcqHsfb734KtpTkxIPnRcW84LMKBHheVGDBZxUI+DMvdF8H51UnAipq8/1MmFGNIHGiktzKZQTR4O9KXThwE56ebTXYNRL1fjnPd76B7zkr95+vGAFGgBFgBBgBRoARYAQYAUagHhAQOgdViQVRrb/EgijjIE5FfYcKQaf6rpnrYwQYAUaAEWAEGAFGgBFgBBiBoEPAYPKvS0ww+IcX52YEGAFGgBFgBBgBRoARYASaLAKCWJh4hX/Wk5hgaLKPmzvOCDACjAAjwAgwAowAI8AINDwCTDA0PMbcAiPACDACJxwBVng+4ZBzg4wAI8AINAkEFDuw6Cv/bB4xwdAkHi13khFgBBoLgedeVSAiB0aAEWAEGAFGoLkgIIgGfwITDP6gxXkZAUagRSEgrFNsXqxhy+/+7cS0KJB4sIwAI8AIMAJ1RkCYORVenn0NLo/OnvILs6rGcE93Ak9js6qBY8clGQFGgBFgBBiBFo/ArrkZaJX5B2IHdYGhTVuKbSDHxLZ4XBgARkAgkNAJmPF85eV2CCkd/7RYxew3VR2kYZMkXE2eoC1WcuRGjttefFKBJV+/Ve1f217AvfcaoFFRmXw3vPGWgszNFdkuv0vGyMESxDbX5n80fPpShdfoilz+n1Uegf/luQQjwAgwAowAI8AItEAEDq48ijWvb8Oxw3kY2iEbEYZCWH/PhpZLrmtVFVIiEQ5JIrbVj4KYMApiIi6+BaLFQ26pCBw7ANw0xc25G3ESpj8tY9tWJ7EQ3xGYerUB99/nQHEWcO4NEq67nbxCP+O8746bIYSIhXsM+PRLBduXA12G0/XdBvznTgWOUmDwGRJ6dZVw3y2K7r/hgacNGHOehJVz684lZ4LB/UnwOSPACDACjAAjwAjoCGRtPI7whFCEx4cgJKrCaPvxvYVY+/o/OLg+CwUXHoEythCbp/VBzxcmIjbZKQehFhdByc6mmKVHx87tsK1YAi2HiAmbxUlMtC4jJoiIMLRJ1jkThoRERp8RaNYIpPQF4mMlbF/hHGb/ERJWrFV1YkGk/DZbw/ufG/CegTgDVdTnEjuRIzfKI4gFEfatBwqLgPbEdUjfCIwdI+GH+SrUMv2E739QcOEFBiIYqlTkLO7XfyYY/IKLMzMCjAAj0DQQePvdT8GWkprGswq6XtKK5Pfp65C2MhOSgUQbjlMPSVTClGiAMdKI0kNWFF96FMpLeXrXhTX3LhekYO+CTAya1kNPk6OiIaKpazf92v2fVmqGo4yYUAVBkbYX9tUroQrORHGhTkxIOlfCKd5koHMh5mQgbgUHRqBJI0A/lksvkzH7hwoxoeQ2Eo4cqeAA2IlTUEBEQEw7OmZWHm3rdpT3aEVeQT0cytLQhtIzNmlo31rC0cMVnIljR4iYaFu5jkCvmGAIFDkuxwgwAowAI8AINEMEbEV2pH13EAUf7QWiyhYfdlrpFJHAdCHZSkmg3croyjuW3c5OwZoZ/5QTDDXBIoVHwNSpsx6r5tOsVidn4qiTM6FkpMO+fg3UoyTqVJgHOTEJkuBMtC7TlSgjJowk7gSZ7bhUxZOvgwuBZOIEtGsrYcuSikV9HCk6702r3M+iYg3RcdUJhlaUt4iICfcgOAwiXYS4VhLMBc5z8V+cC25GfQQmGOoDRa6DEWAEGAFGgBFoJgjsmpeBLhelYGPUrooRmWgrM57ksL2oH6SMTsLywo3I+ScPrfvSSifAIIWGwpiaqsdqVTgcxJkQhIQQdSJRqCOHYd+8QRdzUnOPVhATbjoTgithbJtMJmN4uVMNT0444QhcTNyFb3+sLGqUSxw814Lf1aG4GAkFR11XFcdjxzQMG1qZAIgj+wLEpNND7nENUYLQOOy8jiRC4iil1UfgX1B9oMh1MAKMACPACDACzQEBWlvs/SETQ+/pDRKJ9j3QGqbr5BTsWXCwTgRDjQ3Sot/YPkWP1fKRkrWLmFB17kQ2HDu2lRMTUkxcNQVsNSoGWufOEEQKB0agoRFIImm9rqkS3nqqgrsg2hTiSN1JUdmpneA0rRoRQdJ5JKFXNeSSiFEqiR8JE6zC7Lc4praX8NMCp4jT4WwNydTGIbKOJELbVOAwiSzVR2CCoT5Q5DoYAUaAEWAEGIFmgED2luOw5FmRehLpC6zxb0Ddz0nBzzeuwpj/9PevYH3kJnEkY3I7PXqqTiGRJp0z4SIm9uyCSlyKgmO0jUuEg1xu0YnEnXTTsE6LTkJ8igMjUB8IXEJmU7+bRwrJbgaTRL2bV2m46hID5rRTUUicgUmXSvhjVYWOQ7+TgYzdJA1IxELuAafZ1QGnS7qPoO6jnJJ4h3c4e7hkmYorLzNg42KykkRJF5xvwMJfKxMozpz+/2eCwX/MuAQjwAgwAkGPACs8B/0jCsoO7p6bie4X0rZkACG+Rywi24UjY1kWUk+uJ03LAPrhqYgQTXIqTQ8ov11UXIzoqCgox3LLxJyyiIjIgn3NKljJmpOw6KTIIShWInFkwLkYdceE8rJ8wgj4g0BiV6BXdzKVOrMKtUCVFBEn4YNPFTz1rAGlFuIskB+G5x9z6ggJDsJVRAD8+LOKNQs0aFT8zTcUTJ9uwGUXAcKfwyuvKuVWkXaQ5aVtAzS89D75aSCKYcM2DRt+qx8Og+ygjon4xBNP6MegOjdLwdu3YMatmfftpRdfDL652swxD8r3gwfM63tuKGZ6yQ97GrItiN+THnBoKs/rhPWTviUnrC16Hk22rWISR/o2Az8d/0Z/x/6r3//B/IsV4ljbub6WoN/Lln7LsPvHg03i2736se1Y88J2PPXGm8jcF4+jan+8sGsvNuVNxKINZ+HV5C74u/RS5LY6Hb/mrkTu1sITNq4tH6Uhc0Vu051LTfi95O93xBfCIZeUmu++zgGFrI15Cn//quGeGxX872EFT/5bgbVMsVks+h+6Q9GJBVe5o8RteOBmBc/8jwiHaQoObnPdcR6FM7jpVOaBuxV8+mL9cBdEzZKtSHQnOENxSQmiIiODs3Pcq0ZDgOdFo0Ef9A3X99wQb8cbLnHocqIff8cM2aCfAF46WN/zwkszTT55z0/p2P/LIZzx+piAx1Kaa8E3E37B1WvPgyEkSK0W0e96wbVLEdU1EjFtI2HOsUL0u5SOIbEmJA9PRNuhiWgzMKEch62f7cHBP7Mx6d1x5Wn1fbJ7Xjp2fLkPEsEWFh8Ga74V+TsLEZoQgriesWjVIwZdz0iB4ORwaDgE/HlfiG/EdVdW5xo0XO/qr2bBvfhynu/fNd9z1l8fuSZGgBFgBBgBRoARCCYEaOGTNv9gwOJIrqGEJ4Sh3SltkfZLJnqc19GVHFTHvL0FKD5SilPeGe7zpmT/q7sja10uNr2/k0zHkm3Megzbv0nDjs/TSJwrAoNv7036I5XFuQoyipFHzvJ2/5COLdl7cMqTw+qxda6qpSJgqPDF6BMETDD4BBNnYgQYAUaAEWAEmi8CBQeKcHxHPrq+M7Zug6Rdyy5ntcfe+cFLMOz95SA6n5vi3zhpXKMeGIAfL/4dbYcRB2Jw3T1Sr3t9G/bNy0QCmaEd/chgtBve2mOfYlOjIGICcRbmX7XUYx5OZAT8QUAQCxOvoEntR2CCwQ+wOCsjwAgwAowAI9AcEdjzM/leOK9DvQyt6xkdsOqxjbSLb0ZUcpBZGSJOyv6fMnHaq6P8Hmt0SiRGPjwQf83Yggu+Ps3v8u4F/n57OzIWHcaQe/ug+zm+cWKi20ciIikc2ZuPVRKXcq+Xz08sAmLJfcqGeSe20XpozRAmo88pPamm3j7XFqQChj73nzMyAowAI8AIeEDggy8+9ZDKSYyABwRoES12urudE5h1pGo10iqqE5lY3ffbwWq3Gjshc2UWwpPCkNizzDWunx3qMbmjrkPw1wtb/CxZlp2wXvHEBmRvPIazPz7JZ2JBL024Jo9tjUOryRQsB0agDggoFhWbXnNzzOhDXUww+AASZ2EEGAFGgBFgBJorAunLjyCCzKEm9gpsEV0NF1rYdj0rRVegrnavMRNosZ62MBNdzq4DJ4XGNvo/A3XuQPpSMozvR7AV2fHrHaugOFSc/d54CH0Pf0PK6DY4tMqDRy9/K+L8LR4BQTT4E5hg8AetAPLm7yuEptJbigMjwAgwAowAIxBsCNDnae+CDHQ9pw6LaA9jajc8CbYiG3K253m42zhJ9hIH9pPJ166T/NRfqNJdU6QRox4i0aRnN8NWbK9yt/qlaFdYQPrphuWI6xVTJ6Xl9iOSkL+rEKXHyGA/hyaHgCnWSFav/NQ29jBKySAhsmM4JCNRsCcosA5DDUAXHSzB/7N3HQBRHVv7o/feO6ioINLsvddYEqPGGEsSTW8mJjHNZ/KnF1NNe2m+GDVFY2LvXbEjqKgUKdJ7h4Vd+M/clWWBXdhll6XN6LL3zp05M/PN3XvnzGmHXzyH6rJqDHs9FB5DnZspLb0kEZFP3DPZwg5A+qlsiAqq4DrcCRM+HtJiXV6AI8AR4AhwBDgCukSgnNyJph7IwJg28LzjFGyPS+tiMOUbDQ2ptQRI/J4U+Mz0gKmNicYUvce4Ie18DjYO2Qn7/rbk9tRaUFWy8rIQNglLyLNR7vUi5McUojSpDPbBtuhBalohDzG9cc2S+ygXWmdkqafOpFmTvLaGCBhaGWDid0Ng72+NGkktim6V4NDT51FVIMdw0tp/zFcD0fdub2ybdxTZEfkKWw18tAcGPBWAsuxymDuY4eiqi/Qbbih1MrDQx9x9E2HtYY4f/P5RSEfdTM4wKEEsjRb9x1+7gMDFPQWjrROvX4AP7UoMfb4/GGcnn0TF1Ug6nIbEfenIOJIF1zFO8BjmjHFrB8OSfDxvHLoDla+LYGqr+UNKvl1+zBHgCHAEOAIcgVYjQNKFk6RP7zXVHYamBq0mo7AiW/wQE/L3PQeQeCgNfhM8FBbTWSaN9RapIwUt6a21Joe9GIzBz/RDXiwxBrGFyKOd/6T9aUIcBftAW2EdEPJwb1okajFuAuHK1hdpp7M5w6C1mWxjQjRnw94KQVFiKfYtiaAIzLUY9Uk4+i7xQ/QXFIXtTvIY7wxbXwtiNAvrspp8O4TbIvyJvvh75mGUpVTAYYAtpv0wHH9dOgBRXj3zEbaiL1LJ1iVwrm8TGq3N4AyDAuRubEnE2XejMfrjAfCbKBVdeo9yw5m10dg6+wAGvdgfruGOApOQfCgDaYcz4T3dHb1meWLs+wMaMgb0kOo51wdxO1LQf7G/gtZ4FkeAI8AR0D4Cyx9Yon2inGKXQ6A8uxKDl/Zvk3GxzbXBLwXj9DuX4TXcBYZm7bfkYHEMSlLK4DPWTatjNTAxgHN/e+GjVcLNEPMkhuHSFzHNlOCXOhQCxDD4T/fEhiG7UUvSBdD5iRcuNeiiPgU5HPlmKA4+dw5jPghrcE3+xHWIA1KOZwnMAsvPu1SIKtKC8ZxAsU/+vC0UtelrCf8ZXtg256hWGQZuwyA/E3R87ouriPktHndtGiNjFlgRprM46j/hArNw9sMobBq2E6mnssh4ygNLLs0SVI56TfNuyCywiuxGmeUt+KRmpzxxBDgCHAGOAEegIyDA3HNKqiRK/f9ro49eo1zhNZ423D65opwcraGY56Con9Xz2qKcYNMr8ftuU+wF7dppNG1FNzmWbuRe1dUMmZfzFDdIeJ58J5IkHsp3qhVX5LltgYC5pynK80XoOccLS67chcWX78KAVxq6Mw1Y5oeMi7nIi2x+zipzq2BBXr7kk10PK1iS6pGQaM055JUgnP/yOiQVEvliGh9zhuEOhJWFVTj00lkUJZRgxm9j4RhgqxBctjsxd+eUBkwC22FoLrkPpGAs9ANOJ31HnjgCHAGOAEeAI9DuCNA7SfAYpGVjZ0XjGroyGJnnckgqn97kcvbVAmx/4Agq86pw5b+xZEQsblJG4wwaa+LO2+S5qWswDGwj0n0kqSVFNNRbr8PpxrZE5F4p0K4qVB1x/q02AlZe5rCmjzfZnvw19RB2LDwB/5ne6L3EV6BlbG8Eprp24ZOWpUZpJ7PhSOpuwSt6wyHMFsPfD0F5rgjGtKnNkstwB1hRxPD431OEc23+4QwDQ5MeJqfeu0zGzWJM+nIYjC2bt2DXJzFrS0xCg0miH3cvCogTt137E9igHX7CEeAIcAQ4AhwBFRFgi+heGnoMUqUpffLkMpj0/c99FA1xZf2u59WNcdh9/zH0vtcXkyiQmi9FX476RftShtun78Re0JbbWFUG3cZlmHvVdLJjaJyY/nvE6ssY/p8wsqWgxQdP7Y4AY4b19PQQ8d4VVKRVovBaMS5+cwO+JHljKfgJf8T9m4Ly1JY9X1VmiLD7oVMUadwBEz4fKDjWYYx/SVq5oNEy5OV+OPvxNWFdq+2Bt59CobZHogG9xIOpKCFjlLv/Gq8Blear+s/wxqbhuzCU9DlNrJtnSJqnxK9yBDgCHAGOAEdAMwQSSEXHMdQeVp6WmhFSsbb3aFeknnYl1aRoDHgyAKfJJWklqWnM/mc87HpaC1RCHuyNLVP2I/A+P1K70FKEaCZJ2Z2KHjpgjFSEQivFmObCodhi2l2ugLmjmZQmjfX025EY+mYInPvZaaUdTkRzBEpv02KeUrWc9ExcLpY6GiCersdkdxjbGKMXMcwsWZK62eRvhuL0e9G49VeqkFf3R99IH0U3S7B/aYQ0i+rP2jYaSfsyYOpiAreBjhj1Nt0PbxP/QAwjs41YeHYqtt9/HKW3pP2oo6Xud7eXMDADlAufXcOAFf3UxU6t8sxDUo97vcn4OUmterwwR4AjwBHgCHAEtIoAW0TvokU0GWLqLNHChqkm3SZHIX/PPAhrH0vc9dNoGbPA+mHlaYHAR3oh6qd6zzGa9q+aFmaJ/5A6kibB2jTtRBvVdx9N7lXrpAw0pyffjST3rjYImNejjVrkZFuDgKS8BrEkzQt6qKdQXc9IDwEL/JB2ltTUad72LI/AzkUnhe89j0SgiFzyRnxwhRzqSFXOfO/2gKWvlIG2CbTCgpNTYOJsLNDymuoGE1tjZJ7Og4jsG/6YclBKh2geIAPqmuoa7F52GuUk2dA0dXuG4dxXV+E6xAleI1w0xbL5+vSwZDpr8TukVuzNF+ZXOQIcAY6AZgj8uPFXzQjw2l0WgdKMcmSRTQFz1KHLxHY7R7wZhlEfDMSgpxVv0jEpQ/zWFLCgpxontuP+/mX4zNBO7AWN+6NNArSmENyrkgt4lursFkauVu5hR5vNc1pqIED34VlSR/IY4YT5JyZh4ZmpEJHd7JV1cQKRkrgyFF4tln1YBGbm0Utwk0rzPOj5AHiMcxbKFkQV4cqGBNx3aBLmH5uIYa8G4cjKi6gR1aBWXCujIdC7Qb8hapsds+uapm6tkpQVlY/4P5Jx755JmuKoUn0WofFsVQ0yLuSQ2IgMoXniCHAEOAIcAY6AjhFg6kjMY1B76LizgGfNJSaN7/9Yb7JliNVKMLm8a4UIeVzzYGnN9bm9rnkOdcFF0pCos1u4648x7TKn7TX+ztRueUol/p1xTIjOXF0sbhiwTX4gtMDfOvlwfQ6dbxl/SOqO9U5u1Kc3ce37eJg4GqMsuaK+bKOj6gKx1oK2MdLdWsJw8curCF8Z2NQVaiPQtXZKnGKv2UwtKUVrJDkhjgBHgCPAEeAIqIwALUBukTpSR1bRCXmwj2DQm31FcaRbVccauzMJZi6m6Dmli3hHajRwSzdzWJJHnGOvnMeQNWS3EGTfqAQ/7WgIsAV+g+jOKnRQiN3QqJy4TNIss9CouFZOuy3DcG1zPPTJHWrA3B5aAVJVIkwtKYHErVWl9RH5VK3Ly3EEOAIcAY4AR0ATBDIjc1FbUwu3AY6akGnTuvqk491/WW9E/6yBLQMxRtfWJyBoUa827Wt7E7ftbQ1TB2MEztftWqa9x83b1xwBA1P1WAD1Smvevw5BoSy7AhfJ3+1ACumu62RmZwpfiggdtyNZ103z9jgCHAGOAEegOyNAi+iEPWTsfJcOjZ1biXfQ/b0oLlIx0u7o6KtLJm53MkxoIe010lXdqp2nPGktjHl7IKb/MLrz9Jn3tEMgwJiF0OfUU9XrljYMZ8gXtPsoZ6XB2dp0NukHzqQMF7+KQT96IPLEEeAIcATaAoHlDyxpC7KdnyYtmk9/GCW4o5z4ydDOPx4FIzi/7hqSiDFwH+4Cl3B7uISwYE4WggFkIjnemP33eAW1OlgWvSuDSMrAoj97DJUafKrcQyZd+DUB4U8FqFylMxfUo9hQPLUTAgT9Y2lz2qlx3Tbb7RgGJo7NuZyP+Xun6hZpudaYodK5D6OFKI0eFHyFJ44AR4AjwBHQDQKVRSLEbU6EY7gdzqyNFlx96qZl3bQiIW8oNzfewoj/C0NZVgWSyY3pOXLRaESRYM2dTGHf31bKPOimOxq10meWL278fgsHnj9DsQZMhCjQ1SXVgkqvEzFBQ54PUkg/fl8KjCwN4D26eQNrhZV5JkeAI6AQAcPSsjKFFzpCptb7RrsOF7+JQd+H/VAuogAWonYaJfXDzMMMURtiYROsm6A57TTSNmlW6/dFm/SSE20PBLR9b9TSbxUwEYaibdrtgU93bVN+7qJ/joPPvR4If7ovjq64iNOfXkbwY/7tAk3K4UyhXe/x2lObufF7ElxGOcJpuB2cYAffe9yFNoqTSpETXQA7f2vI49EuA1ej0YBlPUg1qQSGxPDY0MfYkgKf0q5u4s50/LvoCAa8FADbXlb1FOk3e+WXOAQ81KPFcXYmHOoHyI/aGgF17ws7S5LedYNkaGnRsQeqzf4xV3IsgEbowr7tPrXT1o3Elln7URhVCk8SG/OkHgLavC/Ua5mX7ugIaPPekDIMYmHI2qTb0THsiv1j81dZSNKFX5Nwz46JsLa3xJR1I7Dv8VOIs7qNsEd0+14oSirBhTevooZ8p5t/bgbfcdKFvUbY02I5cUsqRlOcg8b3q2U/C7j363zvmt4TaY0ysSkqvSf64trmBOxfcBpD3wqVGf3e2n8bRuYG6DvVr2klBTmNcVJQhGd1QwTa6r4oKSmBWCyGnZ3mkbgLCmgDQAmdyspK1NILzMzsThRwLcxhtzJ6jvr2BkIf1+1LQekc0Q5JyBN9cfn760qL8AscAY4AR4AjoD0ErvwWj17zfWHtJZXsmlgbYeIXQ5C0Nw1XflXgkYcW4PF7UpB2ThocS2s9Ibon345E2HMBmPTdcBx55ixSjkulDZq0Ebs9CdY9LAWbBU3odJa6/e7viVlbxyOBXJUffe08qkvFgu1Cv0XtIzHqLLjxfuoegdLSUtx1110IDg7GoEGDhOOioqIGHTlw4AA8PDzw1FNPNchvfMLK9ejRA2PGjBHK//DDD7IieXl5Au1+/fohJCQEEydORGam5s8W1kC3YRjYy8C6pzW8R2lP9CuboVYe+FOUTX1jAyFCYytJ8GocgU6DQGpEFv6efQC7lh2DiPSQeeIIaBOBkvQypDezsGfShZgf49F/cUNnE+ZOZpjw+RDc+CMRMX8kCF3KuJSLU+9G4rehO3D1l3icX3tVm11FBNlOWLiaof+S3kK03onfDsOhx08j9XRW69shJuTG74kIuK9H62l0wpqOgbaYuWEszBxN8df0fagqqYLfBI9OOBLe5a6KANvpf+GFF9C7d28kJCQgNjZWWOh/9913siF/+OGHWLlypbDAl2UqOKiursbSpUuxfft2REdHIyIiAs8//zwY88Ha+eSTT+Dq6iq0c/PmTfTv3x9vv/22AkrqZ3ULhkFUVI2or28i7FH1XEipD6eaNUjKEPZoXzDJB/OLzRNHoCsiUFlUJeymnl4TKUjVnEMdsWfZCTCVDJ7aDoEfN/7adsQ7GmV6fB5ddR4HHo1A9P8USAqov4J0YZ6PTLogPwQmcZj4xTBcpvfE7xN248y7UWBBsWZvG4+7/xgvFE05oZ1dulhyqZ1xKgsjV4fLuuBFG1njvx6Gg09EENOTI8tX5yDleAZtAep1W0PfIS/0x/A3wzD4pWB1YONlOQJtjgBbyP/555/4v//7P+jr60NPTw///e9/sWrVKlnb7u7uOHPmDAIDA4XrsguNDiQSCfbt24egIKnBP5NIGBoaQiSSGuWWkV0yYxJYYu0wiQbL00bqFl6SIn+4jp73esOhj602MNMqDbeBTnAd4oTI/95A+OPdwwWcVgHkxDo0Aje2JuLiZ9fQc4435u6aDH0jffScSkb/9ibY/dAJjFs7GK7hHTeAVIcGl3euAQIFN4ox9X8jcfHLa8i7UYRR/wmDoZn0FScipjXmp3jcs31CgzryJ3a9rEk9aBiYlyHXMAf5Swh8oCdiNiVoLKHOjy1CxOpITFk/CoamBg3a8BnnhjGfDBSYhtDn+iKYpA8qJ2KYYsibUN/7VNPbV5luJyvoO14LdiCdbMy8ux0fgfT0dDg7O2PTpk1YvXq1wDQ89thjeOutt2SdX7x4sXDMmAv2UZZMTU0FhiAtLU2QIqxfvx4PPvigQJ/Vefzxx7FkyRKYmJjAyMgI33//vfBRRk+d/C4vYciPK0LcH0nCTr46wOisLJMykLFd1Fc3UJpBnpt44gh0EQTOfhZN3kpiMWHdMAx9IVhgFuqGFvRALwx6OQh7Fp9A4sHUumz+zRFoFQJs998xxFbQ3Z/+02hSTzHBv/cdBlMtYunmH8noNVexdEG+QadAuybMArvee6YPytLLW737L7RBa4BT/xeJga/0h2toQ4akrg9+kzwR/ERvJO5Ow7a5h3B1Y5zgQrTuurLvzMt5KEkpRe9ZPsqK8HyOAEegnRBITk4WFvf79+9HVFQUDh8+jM2bN+Onn35qdY/27t2L5557DmfPnsXs2bNldGxtbeHk5IRPP/1UUE+ysrKCvb297LomBx2CYci9UYiC+IbGH5oMSr4u27kPeaovTG2lrhHlr3WUY2tvSwTRS4L1VeVEL5+DL5zF6Q+iVK7CC3IEdIYA3Z+VBdUIXt5H6eKoF9nwTP55BE6/eVmmO66z/vGGug4CdK8xdRyv0fX2aUNXBpOr1L7Y//ApXKbAX3EbkprYLqgFAG3sBC7qiWub4tWqJitMfTz1XiRsyP1nvwU9ZdmKDkKX98Xs38dhyKpg5MYUYdOwnYJKX/aVfEXFhWBs1/8k6cKCHoqv81yOAEegXRFwdHQUpAYff/wx3NzcBLWj1157DTt37mx1v5YtW4bIyEiBBmMYmMSBSSaWL1+OESNGIC4uDjdu3MA999yDRYsWtbod+YrtzjAwfc4dc47g6KsX5fullePo9TdReLMIwQ+qIdrVSsvqEwl/JACp5CUji3aKVEkXv4tBeWYFErYmQ1whUaUKL8MR0CkCbEeW6YE3lzyGOGP6L6NwY/MtHP+P9p8BzbXNr3UdBFKPZjbR3fe/yxuzt4xD/N/JcJ/gArYxo0kKmNsDBdeLkBWl2jNa1hYxC0dfP4+cKwWkJlVvtyC7ruTAfZATxr47EPOPTIOluxmOvXIef0zagz2PnSTm4zKu/hYHJlm5fSoTaTT+wPuaZ0SUNMOzOQIcgTZGwNvbW2jBQi6MgaWlJcrL1dcqYYzBwYMHZT329fXF2LFjwaQXLJ06dQoLFy6UXb///vsFKQRz5appaleG4exnV3Dlh1hM2zSajDOA5GNktKWFVJFXKezIxPx2C57a8G2thT61RMLARF9w+aqKlOHa5ngkH0jHpHVD4TPNA1c3xbVEXun17Kv5yIpWsnOltBa/wBFoGYGytHJYtcAwMCp2/jYY++Fg5NJ9eHVjK3dwW+5Otyux/IEl3WLMTB3HlGxibHytmozXluwS5u6cjGFvasEQlt5RAYtJykC+/9VNedcK0edeH+iRUbK6yZy8/4Qu64t5u6Zg2s+j0H+pP2z9LFGcWo7r1JdTay6h76IeMDBu19e5usPi5TkC3QYBZnfAFu5ff/21MGa2eGdGz8wtqipp69atYGpNLDED5wULFuDWrVvCeXZ2Ni5fviwzdA4PD8dvv/0mXGN/Nm7cKBg+s3qapnZ5wpTlVGDfk6dQSjuQszaPE1QW+i/zR/RPNzUdj6DzuWXKfhhZGWLe7ilKQ8dr3FAbEGA7WFWF1Yj4WLmaUfzuFER/H4vxnwwmw1FTBJIf6pgN9AKjXSx10y0KZLfrvmM49EwEynMr1K3Oy3MEmkWg9DZJGNyblzDUEbDvY4MJnw3FtfVxuLktsS6bf3MEWkQg5UQGPMe4tFhOGwWC7u+FzIgcMDVaVROLjWBBv4OAeZpLAJg3Jxbosx/1Y/grIZjyzQgsODQdA5/qp2p3eDmOAEdAxwgwb0XMbSqTDAQEBMDPzw8ODg546aWXWuwJUzNas2aNTILg4uKCzz//XGA2mAekAQMGYMWKFRg4cKDgFenHH38Es29gbfTs2RMbNmxowEC02GAzBfSqSpoxx26mYmsvMT/TJ1dfRJ/5fgh7rKFXoJ0PHhO8PDDdZpZYeG5Vo+0xH++XvroOUwcThD8VAMe+Hc8jkiqYRZEa1a0dqbAn39JDXgyCqU297QXD7iD56p5KHjZknmWIUTi86hycQ+zBDElVTVGk13t90y2Mfn8gMskwMOtSHqZ9P1LV6u1aTp37ol072o0bZ5sBO5ccw4KD09RCIedaAfY/cpJ2hEPRY7KXWnVZYW3fG+zp+NBcsSAB/WWL5js0ag+IV2geAZqfv+89iBFvhsMlWLlhnzbvi8s/3UBxchlG/9+A5vvGrlL//pl/GANWBMJrRL2NRcsVeQldIKDN+0IX/eVt6AYBde8LIzW0HVNSUmBjYyN8VB1NTU2N4FmpcXkmXWAGzowhaZyYK1VWjxk9ayvp9A14jHSUb5Mqzch3B0CR+7PgZX1w8YtrqGMYFA2SGbBlnM1BTZWE3N/VQkLf1WXVAmBhzwQ0W1cRvY6WF/JgH7DP2c+v4O9ZBzGYPGowPHJjCnH0hXMYSwGGZMwC6zzdJ0zKcOK1C6oxDPQCO/lOJAoTijFjw2jSMbeAO7l2Pb7mIk68eQmj6MXLE0dAUwRKM0m64GGmNhmnfnYY/8VQ7CNjVaNvjeA1ki+y1AaxG1UooOeYuEzcLLOgbTiYlLRXGBQAAEAASURBVGHzuN0oeqg3bPyafxnH702BkY0hZxa0PQmcHkegkyJQZ8+gTvdZ7AZFiblqVZbk7SWUlVE3XycMA4vAGfF+NGrENRhPC153MnRUlFgU5utk/Hh9yy0w9ZzGiS1qS26T67h7fYWFLtPZNKRIyQbk293Kw4KiJisGtTGdznA+ZEV/eJHo+dzHV5F0IAP5tPM6kNxQKmK0mIs+5n3jxt+J6DvHT+nwynMqcfyNCzBzNsWM9WPqyxHTMfqtAdj9yAlE/nBDcPNaf5EfcQTUR6CEGAYL+k22JrmRsef4r4fi0FNnMPj1/gicr7kqR2v6wet0fAQEdaSxumUqDc0NEbi0F9mOJWDE66HKQaLNmZgNtxDySMd3uqF8EPwKR4AjwBGQItDmK+y4Xcn4957DpDJjh6nfjlDKLNRNSPDD/rj6Y0Mj3mJiEnYuPSYYjN318xj43+UDNwr25BxkD/veJNqhXZ6uxCzUYeE+2Bl3/zUe1r4W6EMBeZQyA0zKQIGFmIqRshRDbvd2kcqXc5g9xrw9sGkxojHmnYGI25KEOLKT4IkjoAkCzEOShav6Eoa6NtnmQe8Fvkjcl1qXxb85Ag0RoAX57WOZ5E7VrWG+Ds76kVQ37vekZmPnJB1Ogx5tyfl0EscbOoCNN8ER4Ah0YgTajGFg0oSTFKTm6i/xmPDNMDDf0qokFvnYvr8trmyQMg3MZdzOhcfgPd4No9Z0T3WZwc8GIeThPs3C5znEBSa2xojf03Cxn34uB/vJqJkZk/pN96Ro0oFK6bAF3ugPBuHECxcQuz1ZaTl+gSPQLAK0kCvNqFDJQ5JSOsTADn8lFDWkdnhr/22lxfgF5Qj8uPFX5Re7wBXmPKOQojt7jdCNwbM8ZCyuT+/7fXGAnq0K3azSb+Dab/HoR7EbeOIIcAQ4Al0BgTZhGNLOZGPbvYdod0UP9/w1AW4DHNXCKph0Q5m71RubE3Fs5XmMeDscwUu5WLdZEGmB1U9OysCMwPc9eRoRZK/gRR5EmMcoVTxpMPUm/wf8cGsP39ltFm9+sVkEmNGzqh6SlBKie5oFfov+uaHEUWl5fqFbIcCCtXlM0K06kgxgxtC+FoqABX44+HQEIj6JhriyPh4Oi48grqhpleG+rA1+wBHgCHAEOhACbcIwpJzMhEOQHUbQA5UZ5aqbnALt4BRqj4Q/b2PGpjHwGat7kbO6fe4I5X3GukNUWIV/5h3GuY+uwGeSG+7dPlmhPYjS/tJ8jXojDMyHPpNO8MQRaA0CZWS3pEoMhpZo+4xxE6K0M/scnjgCMgSYOtLxLHiN0r10QdYHOuhLtnZzd04hJxw12HLXPqlk9o50IZBiI/DEEeAIcAS6CgJtYvRcRgFles2SukZtLVCTvhyGkpJScgmlhr+q1jbWVerRYn/Qyv4QlYjQe6Zv60dFdAJZgKJN8XAf7NR6Orxmt0WgNKVCcEygMQB0LwY/3Bun/o+CUzVj0K9xO5xAp0KA7eankjOIce8Pavd+m9gYCZtj6ZM9BC9/N/5IpI0bEfxn+LR733gHOAIcAY6AthBoEwmDoI6gQoTXlgbRmqiYLdHs6teZNEYjZuEOQMxLVcGNIsX6uV0RRNoVPEYepCI+Uh40rysOuy3GVJ5bKQRONDQz0Ap5d/KaZN/HFld/46pJWgG0CxBh0e2ZOpKRRZvsebUKIeaeeuaGsegxzQP9l3EV2laByCtxBDgCHRaBtmEYUijgmodqEV47LDLdvWNMykAGe9fIdWB3SKKSaiRRwLw8infBk2YIlGaQ/YKnFn//TMpAdk3RZNdUU12jtHNJR9JRnsUjltcBtPyBJXWHXeabBa9kThxu/p4Ij6GK3XO392CDFvlzaVh7TwJvnyPAEdA6AlpnGCqLq4TolqbWxlrvLCeoWwSCFvoj62wucq93/UV09K+x8LvbC/lXVBsr84ySeIAbhiu6I8uyWAwGLTIM1AgL6OYxxhUsQrmidP6rqzj52kWc/yhG0WWe18kRSNh7GzsfPIoLn12D9zhX3HdgGoIW9erko+Ld5whwBDgCnQcBmTz3vbVvNen1ayvXNMljGc2VLSVjWQvv+oBNzZVtTJyXlSLSoXCYCfx393lgN9Ca+6GzzLH7ryGYs3Mi8u+oYbmEOAhdVzgXL6zBWTIqL00rg99ET5lhv8KyrfgNdRbMlN0Pm6N/Ash5zdm1e2VDUVZWZcxIynDKZif5awX2rJWRxdNzV+LUu5dhbG2EMR8NwsVvpQyDynSJFC8rxbOj4tD3xHCYOpqi32J/+E3wkE2+Ov398rtPZPXqDjS+J4mQOn3gZaXIcxw4DnW/QfbdFe6HNWsUr5Xlx9kVjvWqSmpJe1t7KelwOuL+TcGkL4ZqTLS0jFSbLOqZD40JcgJqIyAh48LN43ZjxsYxsO1hrXb9tqig7fvi7OdXBC8nw14OEWwYLJzNEPygch3kKlJf2jh0pyCRsHA1xaBngtpimJ2TJj1NTn9wGTY+lui3UPs7wKc/jAKL8D7k+f6IpwCDEW9eRsiTfYX5qi4VY9PonVh66W6tYceejg/NFUOPGJZftsj2V7RGnxNSjgCTJt0g1aOgh3qh3/2a3UvafmYo7zW/0pkQ4PdFZ5ot3fVV3fvCqJv45tH6G7CE3ClaerY+wqvubgnekioIGJgaIHBpT1zdmICRq8NUqaK1MtlX81ErqUXdbr/WCMsRKsuswLXv4zD/yFQh1zXMAXE7b9MCVK5Qo8Oko2nwnuqOwSv6Yev0A4KUwTHAtlGp7nvKgrZ5DGsbd5chZMvw57i9gvvgnMh8TKSgkCzYI0vMANbM3RSFCcWw7dkxmNvuexeQZipxW+KcDFRlpqAyOZa+UyEuLkBtVSVJ5fSgZ2wGI3tHGLt6wtS3D4ycPemc7BLuMJ35Nwpx1/9Gk7ct7aq3dec54WPnCHAEOAKtRUDrDAPzkGTlzh/wrZ2Qjliv3/3++H3MLrDFmpWnbiQ+17fcwpk3omDdxwL3/ju5zWCJJs87gcv9YekqvWddKHDdqf9EKm+PFjPJBzPhO9kN5k5mCH8+EBfXXcOUr0cor9PNrpTRM8DCrW02DZj0J3B5LxQllmL2n+NhSAytfLLxt0JeXBFnGORB0fGx6HYCis/sR+mF46hIiEENMQn6xCDok5RG3miOfkqMN0AN/ZEQc2Hg6EqMQwAy03qiymEg7vplGrinPB1PHm+OI8AR4AgoQUD++a2kiHrZzIbBykM3i0r1esZLtxYB5mc8gNQCrm6Oby0J1evR4oHppN/8Kwkzto6FOS0Qb2xNVL2+GiVLUstwc30CRRH3l9UydzSDuasZcmIKZHnyB9VlYtzenw7fcVJdaqYqIS4X4+a2tumjfNud5biU4rBYubfdM4CpI02mOC2NmQUWJNK2FzEMsUWdBao27edPmza0Kf3GxMuunUfK+88g4ZmZyPvpA4iiTqOmpADMr5WYGIIq4gwq5T4iOmZ57Br97FGbl4nqS0dhn/UTXNNWI/2b1aggyQRPHAGOAEeAI9D+CGifYaDFggUXIbf/zGq5B0ELe+L6Twkoz207t5UF8cXYseQoJFUSzN40TvCME/Z4ACK/uU55yt1ptmqotEKJ/pWkC4/6w5wMKuWTywAHZEXmymfJjgV1pOnuMDK/I5yjReqAZ/rh4ucxqCqtlpXrrgei4mpB39/EyqhdIGAMQ0Fscbu03dEaZSpBukjivCykffEKkl95ABXHtqOmvFRgBBgzwJIRSReMSbxgSh8zA7nPnTx2zZDKsO7WMRGSwhyU7dyA5JXzkLX+Y9RUluliKLwNjgBHgCPAEVCCgPZVktjuIpcwKIG782aznXePCS448/EVjP9wsNYHwgxYT78RifAX+yFIzljWNdwRnuRO8+J3MRj8rPaMi4uSSxC/NRn3HZbaLsgGRAwAYxiSD2Ug6AFZrvSAFjTJhzPgTcHx5BPro98MT5z/8poQ8bXuWhUZ4ebFFiKfdrydg+3hFGhXd6nLfjMbJm27VFUHLNseVsi/fl2dKrysBggUnz+GjK9XQy8zGRImLSBa9BMSmATiAyAxs4SBqxfMegTA2N0PRg7O0Dcl9T/iDiQVpZAQs1GREo+8s5dhWJUNU1STxEGqolRJZfRJQlH4+zqURp6E+7PvwaxnPw16y6tyBDgCHAGOQGsR0CrDUFkkatfdxdaCwOupgAC9/Ps90EupH3wVKCguQouDU+9HIu1kFib9MAJuAxwblqN2w0nKsGXyPvS+y1s7uunUJpMuBC3zh6mNScP26Mw1xBHnPrjSJF9cIUbKnnSMeXtgk2uDngrCn1P3QiKSgKktMYPNivRK2AXawIAiHt8+lomp33Z9O4eyTArapuUYDE3AbiaD2U7UkDSKRZtuLDlqphq/1AoE8vf9gexv30JtRRmq70gzmDRBQrSM+4bBZvxsWIaQS1TvXmS80NDWRL45JpU6svEfzPm9JyqunkLR0e3EmbN4G3qCupKI0b55GclvLIXHS5/DKnykfHV+zBHgCHAEOAI6QECrDEMJ2S9YysVg0EH/eRM6RMBtgBP2P3xKWBQbmChfALAusaBmzP1onzl+LfYw/UQ2Rr4V3pRZuFOTGbqGPhuAS/+9oRXpRlZ0PpJ2p2HB4WkK+8a8sjC//vlkPGvvbyMrk3g0HV5T3ARvPLLMOweG5gYY+GIQCpNKyEOQMwY8GSBzQysR1eC3IdtRUVAJM7uG6k+N6XT28xKK8tzeKol2fW2EueMMQ9vdTQUH/0bmV2+gtlpEBstSY2ZDEikY9wmD431PwHLQeOgbqaaWlngwFd4zfWAdHC58nO55CIXHdiLnz29hkJ4kqDcxVSWj/BykvfcUPNf8F5b9h7Td4DhljgBHgCPAEWiCgFZtGMposWDpyT0kNUG5i2Qw//cuIxyRcVGxfr9smLSAiPohFhc+vSYwF7J8BQfxe1Ng6WMB98HkTrGZFPJQHxRQULWU4xnNlFLhEvXt/GdX4D2JFv51dggKqjmTWlLmJblxUr0Upo40rqE6knzV3rN8BLWpnlO9ZMwCu85w85nugcT9afLFu+RxKXsGuLeNhySVACOJlF0fYhhucsPn5Q8sUQkydQuVXb8oqCHVVlcJzAKZJUDP0BB2C56Bzwe/wXr4FJWZBWbtnEROBPwmusu6oU9qTPZTF6DHJ1tgMWmezLuSIMUoKUTaJytRnZUqK88POAIcAY4AR6DtEdAqwyBIGLhL1baftfZqgRYGrgMdkX4hp9kelFAE5DKSNvlM8cCFO5F3FVagxcLNvxLRd66vwssNMqntsKf7IvLbGw2y1Tqh9o795wKsKaiYIrUiGS02TorHkHU5X5bFVI1S9pJ3pPFS70iyC6ocED2/yZ5IOtDFGQbCtyy9Albt7PTAwd9akDCoMjW8jHoISEj9KP3r/0Cf2R+QqpDALJiYw+OFtXB58EVSv7NUi2BZdjlyIvOkEdMb1TSyd4LnCx/D8cGXoGegL7hkraI29bJvI/2n9ylGC1N+4okjwBHgCHAEdIGAdhkG8r9uyRkGXcxbu7XBgmRlXZDbeVfQk8RDafCZ6oEBTwQgdmMi8m4WKigFQVJRmV+lcLGgqEKPiWQ8SR6NDj12DmlnsxUVaTbv3JdXUVlQhdFvDWi2HLvoGuqIbLlxJlKwNo/xrmit9x+fMW4ouFmM4tulLbbdmQuwOCztrZJk728rYN2ZcWzvvicdTkfysabSvAKyW5DEXxXUhIgPRq2ePlyfegu2E+9pVZcTiYlmzwrBUloRBbKJcLn/GTjMf5KYE9YieVIiHajS47tQQobQPHEEOAIcAY6AbhDQKsMgDdrWdv7XdQMJb6U5BJhRcl5UoWDYq7BcnYrBJA9hcS/YHnyrwGsNlWPxFfrM81NIRmEmrRf6P+QP91GOuPjFNfwxaQ/OfBKNTNqhbCldoQBt6RHZKttAWHtbCkGjihJLhOhSKYcz4TPOtaVmmr3uO9WTbDu6tpSBSZbaXcLQ2wYF14pQU61lV7zNzm7XuSiplOD0W5E4/uJ5MG9idalGVIm8XZuECM4sj7lDtSXVIfsp99UVUe9beFakkfStZamd86LnYRo6XGiTqsGQdJnytv+P+sLnWD3QeWmOAEeAI9A6BLTKMLDFgmUbRXht3fB4LW0joEe7fK5DyY5BiVoSi6VQkVMBj6FSm4T+i/xRnlmJWwduN+hKcWopUg9mIGCuGgwDUXAjF6YBi3pgFsVpmPwtLSAsjRDxzmVsmbEfx964gNh/k5qoo8TvScHVX+Iw7sNBCg2WG3RM7sSZ1K8yKB4DiwGRsi8dPuPr9azliql2SMwOWxglHUhXrXwnLMW8SInJQ5SZQ/saduuRnox9kC0P4Naae4hW42fWXoEv7fozZv/46osyKiwwW9XteMHtKXOZKrawod3/p2TX1T0oJGa85HY5vEa0zIgzA2rnxc9DYmAoCCOqyQi67HIEqjJS1G2Wl+cIcAQ4AhyBViCgVS9JpbfLeAyGVkxCp6pCCwXXQWTHcDEH3qRm0zgJ6khkuyBLVD7sqQCcJ0lAj0lesuwbfyeh9/1+aMnbkqyCggO7XjZgH+Z2NYnUoJiHnrSzOYj+KRblaZVwCLGBKS1eU3alYdpvo2HjY6WAipIs6rdLmD0FcMsTmAy3Uc4KXbAqqa0w253UuaoKq5BLLlcd+9oqLNOZM0uYOpJXx3B6YNeX7BgoBoZTv64f+0Kb90wyORVIP52FOdsmwcBIH0VJpTi+5qKgxlcedQYmehStmRo0po0DixFTYeRS/5tWtx/sWeE7Te5Z0QIBi8ABMO0TiqqYC2AMg6GoHBU3LsPE3beFmvwyR4AjwBHgCGiKgNYkDJWFIvKMoS/s+GraKV6/YyPgSu5Vs84rUANiKgb7SMVgYsNFgPdIV9gH2CHyB6nBMvOTH7s5UW3pQnOo+E7wAJNmjHtvEOZun4z7jkxD6KMBcAywxdgvBoMFV1M3uTE7hot5QrA2n/FNmSN16bGtUaavnXiwa6ollVIMBouOYMNEONuTWlJeN4/4/NOmDWrdoux3ee6jaAx+KVjw7MXu15FvhJEUoBRRv9yEKD1RiMbMiNaQ8bFFkAYBHNmzYm/TZ0WzHaZYDuYB4ahz6GxE/ROl3mq2Cr/IEeAIcAQ4AtpBQGsMg+AhyZPbL2hnWjo2FddQBxTHl4AxifIp+0o+amnnzyXEQT5bMGhkBtCRn8agJLUM17fegvtYFzA7gbZKJhRHgalFhTzcB36TPFvVjG1Pa4hJn/s2qSP5aqKOJNc6Y6aSianqionZMLEYFh0hMYahgCQM3TnVsoBnqiZBFSka7sOd4SMfyZwW5aPfGohr6+NQmpLFvKBKVYLI2NnQsWVVImXN58QUkKqfRG1G3tjFU1CJYnRZX8TF9Z7MlLXF8zkCHAGOAEdAcwS0xjCUZpTBwrMd/a9rjgWnoAYCLkOa2jEI6khKDBiZK9PQ5wJwkQygb/6ZhL73+qnRWvsVZVGLrf2tYGrbNCJ0a3rlFGgHQ1NDZMjHeGgNoQ5Yp4RFeW7PGAxymNiTa9WCmGK5HH7YHAIpJzKRStHIh6wMblLMyssCI98JB7NP0lZiUjYfJc+KltogHkaWmE0VTxwBjgBHoCsgUFNTg/wC1Te68vKUb5hUVlaivLxcq7Dol6SXaYUgj8GgFRg7BxF6RzM7howLcmpJtN3Hds57kHckZSn8sQBkkKcitjfoPshJWbGOk0/jHPh8EAY8G6i9PhFN3ynuXS+IG81/WQdyq8wiahtZGXZ5N7bauDFrxbU49zGpIr0cTMxsncJPQ8reo9xh1dNNkC6wnX0jkl6I8zIbFlL1jD0rKIihXzPPCmWkqrLSQCEZhMR4BX0be2VFeT5HgCPAEehwCMTGxcPTKwD33f9Qg75t2rwFAweNxYwZ8zFj1nzk5Rc0uC5/cjnqCkaMnIK75yzE8BETcfbsBdllJlle9eoa4froMdPx3IpVMs92skKtPNDfufAYcpX4yVeHptSlasdQR1Cn37xs6xBwDW8Yj4EFczOxMxF0x5VSpBf84Jf7Y+CKIKVFOtoF5pXJe5QW7BfkBsbUkpL2dr1ItaXMS5prx1FLtOtjSx6zNN8V90i+gsHX9uHEW5fILW4qqkqr5Wazkx/S4v3wqrOwJRWultTunIf1FxgGNmIWsK2UjKBbk1IjsoiZM1Lb8L9WIkY5GTxLyJMqNS8YPpt69GhNF3gdjgBHgCOgcwSYBGHlS29g4QPzGrSdkJCIt9/+EDt2/IHTp/ZjxPCheOWVNQ3K1J2Iqqrw9DMv4vXXVuLEsb1477036fwlmTRh69Z/ERkZjYiIg4g4fRDJKalY/7+NddU1+tYPpei5+5adVOomU1XqwmLBveMsFlTtNy/XOgScg+zIXWoFysiFKlMmZvEFfCe17Ha051Qvhd6VWteLzlmLeWuy8bMEUwPpSqmMvFR1GLfKtKK068M8JRVpBLGI7HT8SpIQ5TkATM0pbvttbBq+C7uXHceVDXEq0762OR4Xv4lBcYruAvctf2BJi/27fTITuVcKKfJ5y8EMLUKHgVktscV6FdkqFZ/ej6rM5BbbkC9QkVuJ859dg2M/9b2ElV27gMrYaLJhoGjP1IlaUwuY9w2VJ8+POQIcAY5Ah0Xgz7+2wdHBHhPHj2nQxwMHj2DGzKnwcJduTj7z9GPYu/cgxOKm0exv3ogjW1Fg+vTJAo0xo0fA3sEOTOrApAv/7tiDJx9fBmNyRW1kZIhnnn4U23fsbdBea0/0A+b2wLD/hGDv0pNIPtJ6H/GMYWjvgE2tBYHXax0CLoNJLYncq7KUzDyetELFoHUtd/JatNjxJf3txP1dR8rAgqRVZopIwtBxpIwOvYlhiNOMYYj5IwHJVt4Q2Tii38JemPzVMCyNnA0vMgyO2ZCA6PWxLd6MjFFgZUuJodpx/1Hse/o0EvY1jEvSIpE2KFBLEZPPfUzSk5eDYGTesodti8CBMPbuDUNardP7CgblRUj78XOVe8aYpb2Pn4LPBDeMXB2ucj1WsKZKhKxfP4WBuFowdjaiPpizQG6u3mrR4YU5AhwBjkB7IMDsCdauXYc1q19p0Dxb5CclpcDPp/5ZZmFhDnt7O6SmNnWQkpySAl+/+rKMmJ+fDxITpZs3ycnsuo+sDV+im3grSXauyYHwlugx2QvGPxrjyDNnMWRNMHrP9FWbZikF4LHy4BIGtYHrrBVo0etKgc0yyb2qsbkRbPwtYe3Vdl6POitMyvrtN9ETFz+5hto3B4AFGtNlkpSVQFJSgOrCXIhzsyAuzIOkvBi1JOoEqX3oGRmTkroJDK1tYWDrACMHVxiTrri+NX1MFAdlYzEwLHw6DrPA8HTwt6WI4DGthpYxQdc33EKmy/AGNNh89V/sD99x7jiy6jzK8yoxVIGxMFvZnnw3EsXJpZi5aazUcP5tIG5nCuK2JePse9FwDLaHta8FLJxMYUYfCyczmNO3OX2rsohv0DE1T858Gg3ngQ7kBlk1L2Js7h3uegC5364RpIosFkLNyW1I/iUIPg8ta7b1PIo9cuj5Mwi4vyf6L/Fvtqyii4xZqLp6FtVMukAFxOSlyX3mUhJ36Pa3o6hvPI8jwBHgCLSEwH9/WI+pU8fD19cbsbENpdPZOTkICWmoqm1nb4vs7ByhvDxtlmdP1+oTBSq1sxPKsrycrFzY2dVfZ3RycnLri2twZFhaJjV6tg22xOhvB+D0qiiU5Jahz3xflckKMRhM9EhcTf/KmNBaO6mub9qhxqloGwHbAAvEbIyHqFwEt9FO0NV86aodbePVgB45FHMcbI/Tn0Ui5Ik+DS5p+4QxB1W3E1ARfQbViTdQnZEMcT6pQ5WXCosvfeFvw7UXrcuEndxa+iuh6wbW5N3JyQNG7t5C8CyTgAEwdveFnonUM1pOUj5MXU10dg8ow0j+3jBw0kdFViUKsgphRBHB1U03f0+C8zAHwsxaQEieNqOlRzHhxnxJz8z/ROHASxEY9ma9hyG2e8/yGXMx+vNwUAxswkYsdMFtnAPYJ/dqIZjtV2WeCIXpJciIzkNltgglt0rhPcMNYc/0VbfLKpfPiMgVDI+nbhqh1pyZjJ4B7N8C4/grqKKbpIZk48W/v48bZNfh+fBihe3nRBXg9MuX0e/JXvCb7a5We7Wk81v417co2fo92S7QTUnJhMJMGw6fCr0+YSrTajx3CjvKM7sdAvy+6HZTrtKA1b0v7Cyb3yxnBszr12/CoUM7FLSvB3c31yaL+pzsXLh7SFWU5Cu5u7nhwMGjclm1Qt3Q0P5CnpuHlJaPtzSoJmMW3O+oOslVatWhoaVF/UAtB1nA9mdr2gk6i4wjOYLY3ZF01Z372QvRbpW1UJ4oghX51JenpaysuvltQVPdPvDyihGwDLWApCwSafuzMGxlCMwtdOdWtyvcFx6DnBG7JQmS4loMeCZQ2F1WjLT6uTWiSpReOYvi47tQFh2BqvRkGNFCi+3HCusutti7Q1YisAZ0Il2PKWiM2Abyd19TTFKJW1chOrkb1bTDa9EzEJYDRsN65HRI8i1h42nVJs8ABR1qNkt2b9B47AJtUJkqht2A+h2XZivXXaS6CVtvYzQFAgRJBViS0ZWeSv/S43PaupE4+U4kjj9/CeM+HATmdejIy+dgR4bEw18NlS/d4NhySP2zV/4Cs7s4+GwERr3Ssl2BfD1Vj1mslOivYjFkVTBsnWxUrSYtR+8L72ffQcpri2FYWiTERDDQq4J454eIuXADHo+sgGOIB0zIqJml1JNZOP7MRYx4Lwy9pjUUo0sJKv9bnZ+NrJ8/QMmBrZDQ/cpuT2O6h2tdvOH12BtkOG2lvLKCKwrnT0E5ntW9EOD3Rfeab1VHq8374uTJ02AuUKdOnSM0z9STiotLMO2uudizawtJEXwQFX1F1jXmWrWkpFRgJGSZdw58fLwQH3dLsFeocysdF5+AR5YvFUqw63FxCRg4IEw4Z2UbqzA1pqnqeRPFVRtfK4x6OxzFaWXIuVaAy+Q3P/dSAax7WaHnTC8EP9i7CW3B2JH81fPU/RCw9DIXgpuZO+qOWegqKLOgcsEP9caFdTHYOnU/wp8PRBBFq9YkSUhqUHhoGwr2/4mKm1HCAos2u4XFFjNUZYl5pdQjzsGI2Af2XafUUffNykhLSr9ZNbZcY8am9F9IeiR3qIq7isL4q8j9+0eI7UJg5TedjLFCoUcReTtKsu9jg1v7UuE2QL1I3zf/SQQL3CcNQiiVDCgdEwE3cnUYxRiJwc4HjoFJF/zv9UEYRRpvTbL3t4GxtbFgH+RGUdW1nc58egXO4aqrIjVu37xPKFyffgdpa1+EYTUxC3RTsPvBOmsbMt6/hIv5E1DtOAAmDpbIuVCA8V8Phc+YpjtljenWnUvKilF4dAdy//oOyEyRMQsCw2vjAM+XP4ORs0ddcf7NEeAIcAQ6NALjx43BwQP/yvp48lQEtv2zE59/9oGQN23aJLJv+Aopt1Ph5eWJr9Z9j3vvnQV9fakP6Z079yKEJAhenh7o3bsXbO1s8A/Vv+eemThI0gZxtQShYcH0PtfD/Hlz8NHHn+PeObOIth6++e5HPLhkoaxtTQ6aMAyMmFOQvfDpOUUq0mB58XtScHLVJcH1XuMIvTwGA0OoGyZaKA19NQTVd1QtuiECGg+Z/cAHPdMPfmQEfemrGCRSLAvnMFJZoTgV5o5Ml92EvltmxmprJCg88i9y/vwOkqSbQr/Y2l5Eq33GCDBDVWYqwY5FhkYwICNeQxtSM3J0h5E9HVvZknoR2SewxT4Zlkoqy0nyUUiqS9moyklHTUkhJAW5MCUCTDLBdnyZPjnjLPREIphmn0dV1nkk/+cYnO5/Ghb9aGe+vRP11YUWxnH/pKjXExrT9U2JGLCin1r1BjwRCDMHE+GhHTCvh1p1GxSmfvuQx7Gkw+nE6LSeYfhp0wYsW9hQTYjt+KfQPTbnn0kNmlT3xHbcbNSIxcj6ejWMK8oE9STGkFrUJqOH9U8wcD0LPe8xCJ43Fh5DWpZiMLuaqrQklJzZj8ITuyFOiRe6xJgRlpgaEpzc4LHyU7q3Bgp5/A9HgCPAEegMCFhZWaJPn/rNwKSkZFiQtLZXT+l7gnlHWrPmFcycOR8WpN5ka2uLTRt/FIbGjKI/JAbgsUcexKJFC2BoaIjP1r6HRx97Dp998Q1E9P79+qu1glckVmHqlIk4fvwUBg8ZLzAco0cPx7x592gFJr2qkjtPZBXIRf18E9mX8zHpy2ENSp967zJse1ih34KeDfI1PWF6ZNoUC2naH16/YyDQle+L61sTkROdj4pcESpyKFJjVgUqs0QwcTRGv6W9EPpIU7326qzbSP/hXZSe2CNID4SFPE0VW2MxbzLs3NDVB+aB4bAMGwETr54wcfOBoa1qu+7M/311biZEGckQ3bqB0ksnUEE67HpkNM0SM35lyzpqTpBo1JBdg/09y4hxeEapkTSr1xapyb1BHds0bhem/zyKnlHWKjXJYi1c25iAGevHCBKVh+aSITgN7pctCvdXVKKpbiEWVXn/E6dw34Fp6laVlf9x469o4FqVOL2/5xxA2FMB5NHMU1ZOk4OSyFPI/GY1aslGhjEMdWpu7L5jmFUbGsPMtzfZu/jB2M0bhvbOMDC3IElUDWpIGlZNRvei9CRUpyWigpgEE6LAJGJ1jAJjchmzaxw4CG7PvgtT39bZ+zS5LzQZNK/bZRDg90WXmUqtDkTd+8LIUjvNMzeqeXl5cHFxbkCQxW+okzbIX0hLz5C5YpXPZ8elpWWQSCSwsVHtvde4vqJztd6ATIViF/kfZ64GA++rZw6YS1WvkS6K6PM8jgBHQA0EAu71A/vIJ7bDEPtvMpIo1kXjVEqGzKlrX4J+VgrZJjAD5XpGocbSBuaDx8Nm7CxhV9bAonUPDj0DQxi7eAofq9ARcJyzDNXZaRS4K4LUn/6GhGwlDImpYAtGJtHQryhH4e/rUEE+8z1WfEjqI+6Nu627c1pw9pzljbjdtzHoaRUkBrRYjdlMz7eFGkgItDA6O1KHMiUJU/q5HLgPbl7KIKbd+VqyJ6ipFpE6VA30aAfKwNQcejQnskTjOvqfC0TTRGvMAqNtRQyo6Ye/I3vjFxAf2AKjqkqBQZVJn8gdajWprklIda2cytMtKjCXrC5NjcBUsG/GJOjRRRG7QIkxCozpEFvYwPaeh+F07yPQN1Ns8yGtwf9yBDgCHIHOjYChoUETZoGNSBGzwPLr4jaw48bJsgVD7MblVTlXi2FgBAev7I/dC4/Dc7iLzI1mGdk7WLpxGwZVAOdlOALqIsDUlnzI7//Zd6IaVC25cAyp7z9DWwlFqGQrMUrMKFRiYg7rKfNhP3MxSRN6NaijrROmQ243aS7sJt5LxtXnEPnU27C3vAZ92glhi0XGOODScaS8tRxeq79rV3/5Pad74fBzZ1RiGFLPZKGqRAzmapoltkt+9yNsSavjRE36TCS1pENpTRkGwreC1M5KLhxF2ZXzYBImcV42airLiGEgaYihCXm1skEgDJGaEwNLYvIsQ4ZDXCpGwH3aZ4SMSGrg8cy7sJs8D/nb/4eSs4dgRPckuyOZ6pq87UsTFKW3rcA86BPYdWpzNbZOsBozQ3oPe9ZvTjWpzzM4AhwBjgBHQCcIqM0wOAXaIeTpPji79iomfT5U6GRpCo/BoJPZ4o10WwRMbUxgQ7vOWVEkrgxxQPnNaKR9tELYWZYanUp3ZE3DRsLl4Vdg5i91sdbmgLEVtWMQ0k2fQvDrteTV5iPopycKDIPANCRcQ8r7z8L3nfWCnUSb90dBA459bGHuaobkYxnNG9/S4jVm8y0ELGi4qL57Ktl1tEPyG++O3ctPyDwtMTuV0nOHkb9rI0ounyaDY5Gw0Ga78zW0PL/DMxLTUI6a3HLY0tyUHfgLJfv/gp6DC4zyyKvV/OdoJNpRR2oMCTOGNn8pFKLb8cTMHBMYh8qUOEiImTGj24TxBnf4A1lVyhaSiGxnDKiPJj0CYTN8MqzCR8HIqR0lU7Ie8gOOAEeAI8ARYAiozTCwSqHL+2LXQ8dw/S9y10QvNUMLwzYPMsTa5Ykj0G0RoJWV8wAHZF7KhUMPQ6R9sQogV6eMWdAnUPTIm4LNvMfhsmiFzu0GSjIqYEFe0mxGjoFF33CkfvEqcP6wjGkwuRmJzJ8+gOcKqUcInc8hYcc8vCWQWlJz3nrSz+eg4GYRJjey0dJ5f+80yDzWMclt2pls2DvlIJuCl5WcOSCo6jDXqFV3ygnzT2NkO/R1iVmViKlM3QLdIC8TbnpZyFt7ETWxS+A4/3GyJVDPLWkd7Za+mVSLfRzJjoXZvlSm3UJ15m1SY0uHuCiPJCGVdMOS2hGpTRmSwb2xkyeMyL7B2NMPRuQFiSeOAEeAI8AR6HgItIphYMMY/GIw9iw+DjPSs2WuNXniCHAE2hYBN2IYYv9JhqvxXtTeihFsBtgSkaksOS9bBad5T7RtB5RQL80klcQ7bpUNHV3h9fo6wa4CJ3YJTAOzbagmN682o+8Sdo6VkGnTbP/pPjj7VjQqXq4kT0bkDapxopX1td/iYUduWDtMosllaklpG0nNJ3Mj9CgAH5MiiOgPm3emfsaYBZEBeb2iiNwsiJ6egQFqq6tRW16CGorgbUplKCyEwFgy9SB9UhVi9iWlkSfhTmpEZr2C2nS4RnQ/sA9C2rQZTpwjwBHgCHAE2hiBVjMMTv3s0J8i1Eb/ECvsLrZxPzl5jkC3R8Al1BFnXj+CvNzfpNajhAhbNFpOf6DdmAW2hR2//TYs3es3DQxMLeDx3PtIIt16I1KdYjYNxqROk/f3T4KRLIlDdD6XhmYG6DGHAt6QlKH/4nr3dnUdSTufjcJbxZi3c0pdVvt/UxRl29JtKI39hozZyaCdsGaMAnMxWs0M0cl1rfXIaTDv3Z8Myz1hQAbCemQ0V0uqSmJiFkTpKSi7fAqFp/bCMPWWMB4mkWIMB25eRtIbS+G56kvpnLT/aHkPOAIcAY4AR6ADI6DRmzuMXDxW5pFXDDIS5IkjwBFoWwTM7E3g6JIIfYqNwHaNmbvJGloouix5oW0bboF6VXE1mGGxfDIkD02uD72CWvLYwxa5zPVqafRpiNKS5Ivp7pg60esubyTsut20TcIy+sdYBC9vncvOpgS1k5O14TOU7SRmgRb4jFkwoPlm/0yHTIQfeSbq8dHvcJy1FOakBsYMj/VNKAYEMRL6xLAZu3qTNGckXB9eBf8vd6DI90nU2HoKzAabD8G+hOJqpL7zBM3LGe10mFPhCHAEOAIcgS6LgEYMA0Nl7CeDMfW7EV0WID4wjkBHQsDOLlmIr8D6RBvNsCOXqarGU2iLcbB4AWzTwJ0CzTVOFiHDYEKLWUPqKPPPryeiuBLXLjQuprNz1seaSgkyL+c1aDPxYKoQfLDP3b4N8tvzJH/3JuRvXiezQ2DMob6FFdxWvAfvNf+FRZDqgfEMzC2RlT8Ijs//D+aT5t1hPIiJY5IGUlG6/dFzqExNaM/h8rY5AhwBjgBHoIMjoDHD4NzfvoMPkXePI9BVEKilHeJMYbeZjYjt2rNFeXumpCNp8J7oobALzBDbkvpnyLa0KTG/+pUU4KvdEvWjx0wmZUip7wKtmaNIrTJkee/6vHY+qqC4BVk/vocaUuOi7gm4iWpt4LnmBziQ+pkei8atRqol8UT+lUI4D+wJrxc+hsPSF2FAc8OmhTEN+mSYnP7VG6ilmAk8cQQ4AhwBjoB6CLC9l872UW+E0tKttmFoTWO8DkeAI6ABAvREMjKoEoKzscVeLdkCGFq3I8NOD8nkAxkY8mqw0kEZ2tgJC1NWgPgFIVaA0sI6uNCLVKe2zTqI4a+EkvqOHq5vvQUzJxP4jOsYLjyZwXIGMQv6ZLRcTfiyuASwskGu8VMwi3dFXzWMh+siPefeLIRdsC3073BuLgspdoekGvkUbI0xnUw9qTbqNPJ2b4Tj3Q/rYBZ4ExwBjgBHoGsgwBiFhbM6p1r+tCV6WDJP9Q0ojSUMXWPK+Sg4Ah0fgVpacRtaWwsLcHpGUWRcCpJG9gztlfJoIVpdWg23cEelXajOz6EI1NLL7MHaVq48lXag0QVLV3O4DnemyM/JQlAA5rQheFnHsV0oOr0XlWSozBbxjFdgBuIuj7wOQ59wJO5vGum70fAUnubHFsG+T8Mo384Ln4X5iOmC0TyrxKKEZ//1ParJroEnjgBHgCPAEej6COzdcOflrOJQOcOgIlC8GEegvRFg7lNNvf2lu87UGeYhqYx2htsrJR1Jh/dk5TvzLOpwGQUYYwa7LLEdc1PvXtKT9vpLq/BeMz2RsCMVl3++IcS2aI7h0WU3mXQh79/1gqtU1q4Rza/liCmwnzwf494bBHG5GLE7iNFRM+UxhqF3Q3exzDja7ZFXUUtxD5gUgxnR61OshvwDf6pJnRfnCHAEOAIcge6AAGcYusMs8zF2GQQsgofKVJKYi8zCYzuE4Fg6HyAtMJP3pwuBG5W1XXLxOERx0UIMALZbXkuBusz7DVRWXGf5fhM8UXCjCNHf3ETowx1HulBOrk4rrl8S7AoYXhJjUzBJgKDLRRnhTwcict111IiZCbmKieapgCRBDgriSzBPSvazHxKMoBk1JgEqOrwdNdV1IeFUbIMX4whwBDgCHAGVEDCyoEe6Ei0gprZraqsSGaGQmZ3ysoYUbsjQTPn11lzhNgytQY3X4Qi0EwKWA0ah1t4dBnkUNZdWeCyCb8bPH8D7pc+kC0sd9SsnpkBYuLqEKI7MW12QgyyK7gySMtA6VHDnaRI+CsYuDd2v6qi7TZpxHuRAO/YS2PVqqKrTpKAOM0rOHYYxqZlRHGQpXgPHwqxnP1kPPAY7w53UqS58E4PBz7YccI1JpFjKjykmlaSGEoY6ovYT5yB3y/fQLysW7idJSiwqiMmzCGx/xq6uj/ybI8AR4Ah0dgSsSRj//MsGMKOFPPuci6zFpnU1qJVIRzZwmh4WzddHJfmeKCkD1r4tQWWh4lG79gVWrKCYO7R3xHxgrPtGgttR9WUXPKOPIWF6wrs36lotfv2U2mEvYg0TlzBoCCCvzhHQJQLMyNnpngdlnodYFOXSQ9uQuf4T6RaxjjojqCNNUqyOJCZXnWlrV0KSfFOq6kJ9EhsawfHeR+jp1gEeObSOnrh2KKZ+23HcQddKJCiNihDUt9gyn71DbEdMbTibdGHAkwG48WsCmP1IS2nZwsUoTimFia0RTG1MFBY3cvaA5cAxgicm9j4xIs9MJZcjFJblmRwBjgBHgCPQOgQWL9fH/sM1eOVxCVY+KkFAbz30uuMd294HWLbIAG+8KhGuR12twdInFb8rDYyJWXjOAL9ukuDVJyX4/kcJVjxrIJMmhE3WQ9+eelj5mLQdV2c9DJ8l3TxqXc/raynuUf11fsQR4Ah0MATsZyxCmVVfYReadY0F9sr/fR3S1r0BSUVp2/eWVpYpZIDrO74pwyAif/6333oUogvHwJgZlpithd3MJbBUI3ZA2w+iY7UgRGZOiRfmkj3aa80swdTPGidzJzOEPReIS99cb3xJ4XleHHlICmhexm0ZMlzYiaojIEpUjXZdef7NEeAIcAQ4As0j8NfmGpzdI30niquBnLxamJpJF/L9B+vhxLkalGZKaez/oxbDB5LrawWqS46+9H6gYjHHpWVvUWij4hLAg6QOLI0YrodtO2pItZTKkfOmv7dJMGKYdpb62qEi7Sf/yxHgCOgAAQMzC1jOfg0iQ3thMc4eHoxpKN31G5JWPUA7xKfatBfZV/IFl6TOQfUuXWtJ7z1/3x+4tep+VF05I40kTL0wJWbBKGwkXJaubNM+dXbi1TlpqKmqEF4E+qRKZOzmDQObenzlx9d/kT8qcioRvzdFPlvhcd5NZvDcvNqVCRmiV5FPJvbqYjxedVYavWg6p5tAhSDwTI4AR4Aj0M4IZMeRl0CSDniQlumE+/RgQczC9QgpA+HmooeMDOkx62Z1BdmTERPA1JgaJyd3KptdX5a9NNIya+FC+UwL1cNJD9np9dfzMijPtTGV1p3rG5qTYQR93lv7lvDdkY4NzGo7bN86Mm5dvW9ffvdJh7tXdY2516zBOBVKO9AU/deEFuXs8cBccVbHXsatVxch5bm7UfTzh8LvuujPzYh5+w/h+PTTf6Fq1ybhmH2re8zG+eOBr+A7zV2Ygw8+Wo2yyINIfmMxMj59CTUUBKzOJagZud8x7D8If1t5wcTeQie/5c56b9SK8sG8JLFE0wljJ2d88OX7iu/zT9/CoBekBtDsua1sHpnBWyFF4t5X/pdiOnee+WYeLqi5s5VFmq7ITY6HgVGVTuZLV+8d9i7RVVvsN8Lb6rjrCvlnNV9j8HtV/n6oO1b3PSI8uFX4Y+9BqkfLDTB3pgEOkHoShcMRkh0JgUuIQZBPJaW1sFJg1GyroCyTMLB8luxs9VBeJD1mf9mxvY1UklGf27ojvVpKrava9rVKSkthZWnZ9g3xFjoVAvy+oOmiX+3vkw9gUOBhiOL3o7YoV1iosx8zezQwNaAqGKBcrzeyCgbCZshAuE8Jxe1DqSiLTcOg0emwsalSe96tn1+FzeP3YuxqFxhkX0D+wR0oj7ks6MBX3XmUMDedBrTVYTFmOrxeehdGtop3ytVuXIUKnfXeKDiyG0lvPC4YprG5Mx87HT3e+Vb5iGmiD6+6CAs3UwTU7lRYjs3VbyP3YNbvY2DtRatYJak6LxvXFoxFbRmps9Hc6ds7o/8fR6Fv3nWevZ31vlAyZTxbSwjw+0JLQHYxMurcF+y1p27gNuYp6dV3DPDvrhpEHazFPLJXKCioxcHN7A0u9V/y9a+GWPWSGCV31JTqIA4YBUyZrI/PV9d7y3vsNX1cuFiLS/tr8faXBvj2OwnSrklrOPgCr602wMpld6yr6wjRN5NIbNquuu8j1UvKNcIPOQIcgfZHwGWQPS6eGAgzyz6w1t8Nm9rztFCnYG4kaZDu8otho38d1rakk56zD0bngxAyahAyfZxw5H+WCB1bCt8+LTAN5IZBUi2CRFSJqpIiZLy1Bt6S08h6Pw0GFWXCApc94hizwBgVJu0Qk9TDacnTcJm/DHpGRu0PVGfoARmDN9i6ISPoZhOBPXhFIH4ftQ/2c8zg4kYy7EapIk8EcZmkWWaBVWHxMmrpnmHzyHRU9Q0NKYo4m02eOAIcAY4AR0BTBJgAN2S8Hi4fkDIE1eQF6fjpGoSH6gkMA1NH8idDZWEnkP4y16rmtMdTmtW05VxSMfK+o37E3hnsUe3toYddO6WekNKzauHmrUcMg7Qt8p6NdFJZ0kbiDIM2UOQ0OAK6RoAeEuPeG4CEPa4wsjSEscVMVCecROne9ai5cUlQa2GMQ53hsUFeFkQR2aiIOEzPpFr097JB2RULXI81hq2jPvSNyIuOgQHVI/UmYhJqqsX0EQkfcWU5xJVlMKBFLPEDYBrx4jKifWfMLM+I6jFPSBZjpsF5yVMw73nHAkvXuHTS9gyJyaqlqM4sejdNG6qLSEWJFvIswJqyZOlmBt/ZHoi+WIOJd8XTi6PhS2H91j/gEeSnrLosX1xYQDYLUtk4s2RgkgX9ZtqVVeQHHAGOAEeAI9AyAiQMmH+PPsRVElw9Rot8YiDCgomBuCJ9ZkedrsUDcw2w1b0GxenAtHl6OEwMRd0mUtAYcjQSS8bNxCzkJkndrgZPkDIb/qSZzJwPptO+IEtHjtVg4X0GiDwoETaB7p5tgD376qUR0lKt+6v8bdQ6erwWR4AjoEMEek4jpci6FD4bNbOnoujEPooYvBmSqPMwIiVJFsW3hp48orqnD5XXryiCuV4x9GmdWE0PIWWJPc6EavRHMIOVPt8ExsGIFpdM/UhiZQOr4ePhMGshLEMGKyPF85tBwMjZFfrGxLSJKsilKjFjGbdRU1kJA4tm1III+4lrB+HEGn2cOi7GyDGJTVpwCFAcf0G+IGtLn+4T9kphzJ+xE1nIEfPHE0eAI8AR4AhojgB7h37+Obk/pdgJ+vdL4zBcvlqL49ukL9QSkiT8+KsE77xvgIpKkiyQBOKjNVIpM5MgPEAMwD+7ycvSTpIE04v463USvPiiAe6bQ89relR//oVE8IrEenr9BHA1uBaf/kBxGoj8JWqHqSppI3GGQRsochocgQ6CAFt02k2YBbvxM1F2LRLFJ/ej4NQhiFKTYcokBtRP9hBhxq3sI6GM5h4l9KwSRJ7MJoE9uJjKCitfS0yCsY8/7MZMhQ0xC6Y+PSmXp9YiYESLdEN7B0gyUwUJgzgvBxWJN8kV7YDmSdKcjHprAPY9UYHzZ6swaEhag/KqMAxlN6LB2AN6TwkMg6l3D+h1hHgZDUbCTzgCHAGOQOdFIJskBK9R3AQTK9qko4ctc3sqny7uo4U9SQXMydC5LLf+Cntfv/YUbSPJvagZrZcploMl7e3UuWKtrwH88XUN/iY7CRJakyqx/BXNjjnDoBl+vDZHoGMiQKt7i6Bw4ePy8POoSLiB8uvRKLt+GRXx1yEpzEd1cSH0KsoFu4PGg2CMAmMuRPSQqiHXEWI9C4iqrWHeJxi+C8bSdxBMvHsSE8FK8qQpAgam5gJzUEYuTZkkyJgCqBURo9ciw8AapimY8s1I/DO3ElciK9E/LE/WHccWJAw1VSJq57AQ5ZnNJFNhM+8XJqvPDzgCHAGOAEdAewiImlnAs6jP8sxCXavyzEJdHvtWxCzUXWd2EtpOnGHQNqKcHkeggyHApA4WASHCxwmLycC1BuL8XFTn50BMuvKS8lLUlJaQYbNI0JvXNzKGvokpDC2toE+69YZ2DjBycIah9R2/bR1sfF2iO8R4WQ8Zg5JD/wrG4yyuRsHhXXBd/CQMVPFWRDtJk78fhe1zqygYkBg9/IuJjh4c+zY/ZyWXIlB164Yg1WC8n561HawHjugSkPJBcAQ4AhwBjoByBAzU1DzlDINyLPkVjkCXRICpmxg5OgufLjnATjoo6yGjkWrrCL2CXMHuBGlJyNv9F5znPqTSiMydTDDp+xH4994qVIv04FToCTymvCoLzpb1+w8wIOaEacsaE8dgPni0wBwqr8WvcAQ4AhwBjkBjBDqbsF2fgshNXsDkyqonppLME0eAI8AR4Ai0MwJMimM/5R5h4c66wkLkZG34VjCAVrVrDn1tMOm74Yg+4gxzFzKibibl7d2K8vMnZC5xxfqGcLr7gWZq8EscAY4AR4AjoAgBpjbUmT4SkbS/isaiLI8zDMqQ4fkcAY4AR0DHCDjPWQqxjb3U+xQzcsvNQvLHr6OG4mComrxGOWP0F+EY+FyA0irlsVeR8e0H9MaQFmHB4qxGTIBV6BCldfgFjgBHgCPAEeg6COzdcOcFoOKQOMOgIlC8GEeAI8ARaGsETDy84brkSRjekW+zgHiV544hZe0bqK1u5Fajmc70vccHTv3I3YaCVJl8C0lvPkfRwcl+ha4LrnEtreH+yEqpSywFdXgWR4AjwBHgCHRvBDjD0L3nn4+eI8AR6GAIOJGUwWToOJiyoAiUWAC+kl1/IfmdFwQjdU26Wxp1DgkvPwRxSrxAl7XAPu6PvgSzHn00Ic3rcgQ4AhwBjkALCJg5UJgb0xYKqXjZjPaElNFi+YZmKhJSsRg3elYRKF6MI8AR4AjoAgHmpcrn5fcQv/JBmFAsBhExDEzSUHJoO+ISY+H++MsU+2KCWl2RkBesnP9v7zzgoyi+OP7SQAmB0EPoCVV6702pUqQoHQRFEKRX6QTpTYr0IiCogHSEv/TeBRSwAAIJvYZeQpL7vzfHXu4ud5cEktwm/Cafy+3OzM68+e7e7ryd92bWLKHbS2eT4fFDesnuLuDGAAAqDElEQVTliaIgpkgpGramdA1bxag8ZAYBEAABEIg+geTpifoO5iWeOaT2dqGd+8Jo9VyjSZAMKH//izuFGtdqU3lO/xtOU4bI5OaRQ1pe9qg7LwLnwbMcpUjuQr/tCqN18yPMi5p1daXSRV2UxekfZwy0ZHLEqtGRS4t+DBSG6LNCThAAARCIFwJJ0vtS9oDvKHBIJ0oaeN6oNLDiYOD1NC58/QWlKFOF0tRtRskLFSd3b35lZSPMmrOEPqtXhR7u30a3ZeVvVjZC+RHCxahF+Dz4KZW89seUpetQjsBgsw2EiAIBEACBWCHQ7DNX2r4rnPasNqjF2yZ8504H9oTSjX+IPHiRtdv3DNT3CzONwU6t7jy7Uc9ebvTTijA6vZuP5VGEgbxC9O+FwujKn0RFa7hQXn8X6t3RuNhbv1FuVK6+C+1fF6FQ2Ck6ymgoDFEiQgYQAAEQiH8Cyfxyk9/4hcoUyeXUMbWomhoZ4OlQnx7YzorAdkqSKRu965+XkvJK2x5pM5ALv3IK58X4Qq5dprz7d9M/ayeR66P7xtWjZQoPDuIfYeBPqqafU6Yvv1bHxH/rUCMIgAAIvD0EDh0y0LkTxnvwi8dEV28YiCfGUwqDmBbdux89FulzET3nGY5EWZCRiZfPiAJ6RCga5cu50JoN4aaVpFevCaOGDdxYYYjIE72aIueCwhCZCWJAAARAQBcEkrJC4D9hEV2dP4mC1/1IHi9fKMVBVmSWEHo1kJ5eC6Qney2nyBP3h7SSzkpC6KsXS+LcLKMKBh698O3Yl6dwbaTKwD8QAAEQAIG4JXB616sbMVfjxYpC9swudOGMsU6vlEQhIQbqOdKVCuV1pT//Cad508Lp8a3IMqX3daHAqwZq2d2VqlV0pZt3DLT053CS8kWByJTOhW5dizBlunud43wil/M6MRiHfh1qOAYEQAAE4omAG6+4nbXHcPKbvITeLV2FXN09lEO0jBTIitDKx4EVCBl90D5anIgoSoI4ULvxdK0pGrelXLN+gbIQT+cO1YAACICAOQEXfk3fmU2KftkQRs/uGlO8eIQhexZXWrkinDq1D6VLgQbqPdDo72B+rGynS8cLrrGicJdNmDq2DaWFi8Oo25dulMbPmDMV+0c8fRBxlGynTsmaRCwEjDDEAkQUAQIgAAJxTcCraBm1TsKjk4cpeNt6enRsP4Vdv0zvhLOtqlXl8niQuDBPL0qSxY9SVa5J3lU/pKSZc1jlxC4IgAAIgEB8EWj8hQs9emygHcsj7trnjrFD9KlQev7KLGndAgPV/tGFkvEw8dM7lpI9ekTkyq/6tTUUzh4kOlAhnAqwk/Oeiwa6w4pEclZAHlwzHufpTXSL42IjQGGIDYooAwRAAATigwCPFijFgZWHMJ7t6Pmlc/T88kX2WQiilw+C2QYplFzfeZdk1eikmbNT0qx+9A5/XNxwq4+P04M6QAAEQMAegRK1XKhQPlca0d/okKzl887IvmXszHzjlcLAg8X09JlBOTRrebTvOzcNdOO2pQLwnP0YkiQ1mqVe4/SMWV3oKs+OJMEnK9E19peIjYCnSGxQRBkgAAIgEM8E3HixNc8CxdUnnqtGdSAAAiAAAjEgkCk/UaumrjSoXxiFcgffPCRnH4aOX7jRME4LYYdo/5IyiuBCDy4bcxWoTBR0lugh+yNcPMGKAQ8h+3GeC0eJPNlEqVxJVxo/KVRl3rk7nFo0daMT24wjzw0+cqPNv0X4NJjXG9NtKAwxJYb8IAACIAACIAACIAACIBAdAtzBb88KQYa0LjR9VkS3e/naMPptqYECTxIdPh5OkzntbrCB11YgGjPOqACII3NLVgDWbgqnwxsNFPaSaOq0MOrN6zA8YPOktKlclD+ETKkq4W+eAON0IQNNnudGMlJx/LSBjm+JnREGFwMHYzX6+//o8WPySs7kEEDAjACuCzMY2LQggGvDAgd2XhHAdYFLwRYBXBe2qCAuJteF9KBb1Dd27t+UnKzO7Jk6wv9AK0+UBuueugv7RKf05VGHG2SaQlXLL9+ytoMsrxPCSoW9IOX+uD5CgbGXT4t3FzB6DY+fPNGraJDLiQRwXTgRvs6rxrWh8xPkJPFwXTgJvM6rxXWh8xPkJPFicl0YO/Lc04+FEPo8srIgxVorCyqOl1W4/8pkyVbVL+Og++yu9zf4epfP1olCXNwTwHUR94wTag24NhLqmYtbuXFdxC3fhFo6rouEeubiVu7oXhfGznzsjDDEbYsil+7mETnOUQzWYXBEB2kgAAIgkEAJzJqzJIFKDrFBAARAIGEREPMehx/VHOPiarby8TgCcRGqDGPLzfK+iteOM88rx6h9rX6rfYu8Wh7+duNZlWo0Nx6tDonGv+gbL0WjMGQBARAAARAAARAAARAAgbeBgHTif9rguCstrsI1azeikyf+JE/PZCYsXbp0pN69uqj9n5evojFjJpFnck/y9vamH5fNJ++UKdkcyUCVqtTmWZTaUqtWzVTeU6fOUIeO3ckjiQe9ePGCZkyfRCVKFFVpMuIxcFAAbd68lWdacqVKlcrRlG/Hmup8kw04Pb8JPRzrFAIxcUhyioCo1GkEcG1EoJcRhk4d20REvMVbuC7e4pPvoOm4LhzAeYuTnHVdhIaG0d27dylDhvQW9MPDw1Xn3yKSd65eu06ZfHkRBxvh8eMnFBYWRilTprCR+npRjtWi1ysTR4EACIAACIAACIAACIAACESTgLs7T71qpSzIoTJSYCvYUxYkb3IeqYjtYFuK2K4F5YEACIAACMQrARcZK0cAARAAARAAgVggAIUhFiCiCBAAARDQG4EvO7TWm0iQBwRAAARAIIESgMKQQE8cxAYBEAABEAABEAABEACB+CAAhSE+KKMOEAABEAABEAABEAABEEigBKAwJNATB7FBAARAAARAAARAAARAID4IQGGID8qoAwRAAARAAARAAARAAAQSKAEoDAn0xEFsEAABEAABEAABEAABEIgPAlAY4oMy6gABEACBeCYgC7chgAAIgAAIgEBsEND1Ss+x0UCUAQIgkPAIyMqWPhlzJTzBIXGiISDrWNy8cT7RtAcNAQEQAIE3IYARhjehh2NBAARAAARAAARAAARAIJETgMKQyE8wmgcCIAACIAACIAACIAACb0IACsOb0MOxIAACIAACIAACIAACIJDICUBhSOQnGM0DARAAARAAARAAARAAgTchAIXhTejhWBAAARAAARAAARAAARBI5ASgMCTyE4zmgQAIgAAIgAAIgAAIgMCbEIDC8Cb0cCwIgAAIgAAIgAAIgAAIJHIC7om8fWgeCIBAIicwZEg/8s3oY7eVBoOBAkaMo5s3b9nNE9OEtGnT0JMnT+nZs2eRDnV1daWUKVNQcPD9SGkS4ehYmwdEIzJNmtR09+49mzmTJ/ckDw8Pu/LYOiiqNtg65nXiHMnt7e1Ncu4ePHgQZdFRyStlPXr0iMLCwqIsCxlAAARAICESGD9hqkOx+/Xt7jA9qkRdjDDcj8YDQWtI8P37dm/6stjTPTsPae14fIMACOifgL3Or7XksrhWjerv06DB31CfvoPV5+KlINN+335DKCV3FpMnT2596Gvt+/pmpG1b19NPPy2kw4e207ChX1uU07z5x3T06C7auHEFbdywglKnTmVKj+pYySjtmT59glowrETJoqZj7W0ULlKQ9u37jdau+ZEO7N9KpcuUMGVNkiQJzZ07jX77bQ39unElrVixmLy8oubgqA1du3aky0F/0X/n/1Cf8+dOUpmypUx1RnfDkdzp0qWlTZt+oU2/rqTduzfRnDlT6Z133rFbtCN5U6TwojVrlqmyjhzZRZ991tpuOUhInASkX/Dw4aNoN87Rvef58+f09OnTaJeFjAmPQGhoGN24cTPBCS7KwoEDh+3KLWlRKRR2D36VEOcKg7whmjP3e8qcJR+tW/+rhTxr1mygIkUrUIOGLahwkfK0dNlyi3TznUePHlODRi2pTt1PqETJKrTw+x/Mk+mnn39R8XXrNqE69T6hu/eCLdKxk7AJHD12nNJn8Lf4ZPDJSY8fP0nYDYP0FgRO/nGKyleoSY0+bmkRH9WOPMRHjBhEY8YMp3btWtGokUNo9OjhJG+ww2PprbJ05ofyaMaKlaupevWPqGKlWtSoUT0qWCi/Es/fPwcNGdKf6tVrSuXL16D9Bw7RuHEBKi2qY7X2Vapcnvz9ctDp039pUXa/RSGYMX0ijR4zSckyYFAATZ82gZIlS6aOadK0EXm4uytZKlSsSaEvX1LLVk3tlicJjttgHB3p0WsA+ecsrD45cxWhQwePOCzTOtGR3MJp0sSRtGfPASpXvjoVK1ZRKVFfffWFKkbSp04dR++/X0ntO5bXhQICBtKZM/+osmrVaki9en5F+fPnsxbJ5r48u6yfMzYzItKpBOQZ0L1Hf5LnwZ07d02yiKIwfMRYKsrXUN36TdR95ffjJ03p1hvavadBoxZ8vVSjw4ePmbLItdB/wDBVRqXKH6r6JA4hcREI4OuleImK1KJle3XP+Pffcwmigfv2H6RJk6ZT377dSEYRbH3WrF6m8rxJg+JcYWjZqj0dPHTE9FDVhBUFoHefQSSN2LXjV9q8eRUNGzaabt26rbIsWLiEpk6bpWWnocNGUf738tCBfVtp65a13PDv+EHwt0q/cOESPxjG0oYNy/kt2xaqUL4s9e8/1HQsNhI+gfuvRo46dGhLgwb1UZ+BA3tTkqRJEn7j0AJF4EVICHXpyueWz+vunZtjREWe3b17D6Lu3fvTpUuBJCML3bv3o6CgKzEqx1Fm6SD8umkLv6lfq7LJW8sLFy9R1qyZ1X716lX5Tf7/6Nq162p/+vQ5VLNmNXJzd1OmNY6OlQOSJPGg0SOHUv+vh1F4eNSdkTz5cvGQBPHb8y2qvj2797NZUjC/fCmo9s+ePUfjJkxR29J5On7iT8qS2Vft2/vnqA1SWTo2xdLu0fbKiCo+KrnLlClFP/zwsypG5F69Zj21Mik6Brp//wE9efpMpTuWl6he3do0bdpslff27Tus7K2hWrWqRyWiShflZPLkGabnTLQOQqZ4JXD9+g2qUasBZc6cSf1+zCvftXsv7dy5hw4e2Ep7dm3m+0ofvicYRwTltyxKxg5Ol2B+79m7+3/qZUOXrn1NowmrVq2jE/z7OXhwG5e3jQL5vrJo8TLz6rCdwAmsXr2eDrGSKOd3x/YNfK10om9GTdB9q+RanjhxOj//ulL5cmXsyiv3M8nzJqMMce7DUJtvzq1bN6NmLdqpN0Vaa0K4c5A0aVLKli2LihIb5JQpU9IzHvKT4OXlZZF//fpN6kRKmtgAN+W3Z5v/t1W9LdqydQfVrVeLMrG5gIRuXb+kPHmLkwwtufPDGiHhExB7cLngO3f+wqG9esJv6dvbgn//OUeGcKIPP6zBHWbeiHZw4bdBpalbl47qiDy5c9GPyxYo08Wt23dZlFKxUjnuWEStZL548YL27T1ocazsbNgQochkzJiB8uTJzaZJx/jaJMqePSuJOZQWxMchmEc6s2TJRJcuBtk9Vsvftm1LOnL092iNLsgx2bNmpUCz+iQukJUlvxzZ+F55mI4c/l2iVHBzc+OOcjUaN96oQGjx5t9RtSHw0mV1761YoSzNmTWFO+1Pad68RWz2tMi8mCi3HcktoxXyltiH2V69ek2VlY0VMnk+yO9fHo7yYklCVPI+eviY3NxcLRScCxcDqWzpCLMtVZCDf02aNDQ9ZxxkQ5KTCDxlxXHCuG+oXLnSbMo3R10jmijPnj7n32Q204jbe/nzmBQAUX69vVNy2rsqu/m9RyIqVypPqdOkIhl1KMsK7Dr+3Xf+8nNKwr5AErp26UDfzZhH7dq2Uvv4l7AJyH1lxS9rqG+fbup6kf2mTRqpj95bJiPZB/m+KWap5kEUg/L8XDRXIqR9PhlzqREI87zR3Y5zhUGUBQnMX93sNcHEVKBps8b0ZeeeVIc7CNu376aq71ekbFmNCkSTTxpqWZV5UVhYOKVPn84UJw/FA4eOqv1L/ND04xuDFjw9kynb4StXrvINI6sWje8ETOBe8AMl/a5d+2j2nAWUkTsQXb/qQBW484KQOAgEBgVR9hwx/71Kp/DggSN05rRxxNGchtgcly1dUkVJh7PBR3VUR8E8j63te/ym3pbCoOV1Z1OfGTMm8Wee6uBK2enTpaM//jitZVHfoujKfUsUBi1YHyvx4iTdseNnVKfOJ1o207c4LOfK7W/af/7sOcmoqpR77959UzzfYdmHK5jSsRzWoS8PU8vIwNYtO1SSrTIvcmfaURs0hcHLy5MVtBqUwy8bfb9gJo+yBLJfx07rKu3uO5JbHtSr2VR1/NgAGjh4BCX39KT69eqoskTRE0UuIjhm/u6770byaQsWPmbPkYiybG8p5cvMNMV2LsQ6i4CYpMlHrhvto8lStWpFWsCmy2PHTSZ5ifADmzz362d0+uSfKwUMH6hl5RGDyPeeHNzHkN+EKAyBgZIe0cfIno1fDvBvECHxEJBzLeZtcm+7fv06VatWlaZOGWtSOPXYUrnmtdEFTT6Ja8jm+6JET5gwjSa6TFeWPJIuzyltlOF1HKDjXGHQGmHrO2+eXLTql3XqR3nt6nXq06errWx0mx90qVJ5W6SlSpXK9Obo1u3bVLhwAcv01N4qHQqDBZYEu3Ofnd3lh/DTzyup2gdV6Be+blq17qCGDv38sifYdkHwCALSoU3Nv9vXCdKRnMOKpDePUmrBix1eS5Wqqu2q60fMlt40SGdj2LCv6cH9hzRz5rxXxRnoGptHpE2b1qJ4ceC9esVooiQJto8lHjlrT6tXb1DOdnJTNw8ZMqSnxYtmm6L+/usfavPpl1zfdaperYopXt6aSn0nT54yi5MRm+rUsEFdqlEz4iWMrTI/bStl2m+D/P5atvpCzTYlI0Anjt9XynsNfrDGRGGISm6xxZUwdvRwEjMiMQuYO3uKlbIgORwzf/LkiTKhkpxaSMfnRzMZ0+IcfZs/ZxzlQ5r+CCRJkpQKFniPliz5mTL6+tBTvh6ysOmSrRD53uNCqc36GLdv3rHog6Ti+5RcmwiJh8DFC4E0a/Z8WjB/uvJ9E5+VvmzaLn5ieg0HDh5WSoB55986TkYa5KPlkVEG8feRoMVFt31OUxiO/X6Cxo+fyg+adSQPL5ndqE6djylHjuxUpXIFC/nlbbK5M5Mkyo9VM0GS4WrrH+/tW3fIN1NGi3Kwk3AJiDmFPysGH3HHR4aFK1YsR82atVU2qFAYEu55NZfcN2NG2rptl3lUlNvyFllMfyRIZ7kCO0xLkE632KFad75V4hv+a9q0Mb91LEn1P2qulBApjvvSyneicCGj/4DEyUsOmZVI7Ky1YOtYkbHOhzXVKMNHH32osgqLhfNn0NDho3moeSOVLFlFK8L0HRh4mR2P/VQbpTMvIVdOf5o3f7EpTz72+xo1ahiP5ra1mJ5URl9tlSn+H47aUKZsSRLzUAo3ViF+HDKiG5MQldxS3uTJ3/Gbs2mqWDEjk7d/EoTV4kWz6Kflq2jzpq0OmQuTpzztbVYetQ4KuszHEuXmkZpLbFoV3WD+nInuMcinDwIyEn3u3H/0x8kDPK2wO/3x52lq1rQdT0awlZUByxcTke89BtWnKPLKHyhjJmMfQ7OAkOtCZj1DSFwEypUtTfny5VGNGj5sANWo0UDd4+PiORIb5PbvPxxpZiSJK/tq5jq5B8rsSOIMbR5k9EHMlWIaXGN6QGzlP3r0uLI7FmVBgvyAq1SpSEeOGGcmmDZ9No185XAiw/XSMQjkm74WzvKNQBs9EDvFs+fOa0lK+RCnakdzs5syYyNBELjFc+jLzFfubIstQaarlD5SiIWJQoJoCoS0Q0D8mc6fu2DqhNvJZhHtnzOHydZdbuqftm2hPm0+bc4d9lQWeWNjp0TJYmzW0EONbllPr7iJO7Af8Bv/LFmMTtDdeArSVexIp/lj2DtWbuqtP+1AHzdpQ63bdODRg450KTCQAr4ZRzt37LUr9tl/zysH4AYN66o8Urc4WJ84/qfal9+IjEx0Y+dvyRud4KgNim+b5tzpaqyKEidtsfE/9OqeHZ3yJY8juaUOmempW7dOqjiZ8alv7260ZKnRCVpGFYIuX+V2P1TpjuSVvCtXrlX25pI5ffr0bJJWlxWeX9Wx0fknzxnNzy46+ZFHHwTkNyUOrHXr1lLKgkhVqGB+Su+TlmSETtLb8Ija5s1blcC27j3nznMfg02PJEi6KB9akPvU65hPasfjW38EihUvQmL1ogVPNod88SKEfeFevR3REnT0LSMEmomRJpaMIIiSILOPTuCXLnJPNfdjsBWnHRvVt9MUBjEhEhvh69dvKhll7mOZ0aBwoQJqX94WasqERDRt2pCmfzdHpcnwoUzJ+lF9o22rOElu27qLHyRXVLooG40b1ydZzAchcRCQczt06CgaPGQkjyrs5lmzRqsfQgUeaUBIHARy585J3qlS0tq1G6PdoFo1q9FvW7arDoC6EbJZjvY3ZepM1Vl3faVkRrtQOxnlxivTtWbO5KsmYLh44RTbMZ+iXr26qCPE1CUgYIxaf0HWRChZqjgNHz5WpUV1rAyHi+Ol9hE/BbGbdrRoWWhoKNc9kPr16U57dm+mUd8MoZ485elLnj5VgqyZIB2eJYvmKDlF1uXLF6k0e/8ctUE6WV8PGE5f8cQDMnpz5Mgu+u+/i7Rs6Qp7xdmMdyS31DFi5Dg2oapDu3dtYsftHfQXd/DEdFUCJ9NgXnNDnLolOJaXeFrbb5X/h8x88tv/1qqhefH/iG6Qa1F7zkT3GORzPgH5vRXhPsZ6dlYOefV7EAfmixeCKH+BfCygC2XlyQhSeqdQwlrfe7bxSGfoyzCe9r2Qes40+aQRzZ23iGSylpCQlzSTTVeafNzA+Q2FBLFCQK6XVi0+USOXMlmOhEWLllGp0sV1P3GOKAiaGafILW0RB2htVEFmItWC3F8lrz3zfy2fvW8XLsA4lm0vRyzFN23ejlrwokbmN9/vZsxlu+PvVSchmJ33WrduyjZVPVSDrasVs4MWPEWrvGmWN3s9e3xFMquIFpavWM1ToU0kT17VVGZb+ulHS3tmLR++EyYBmfauH0+VuWLFGjX7jTheitNaq1ZGp/qE2SpIbU3g1Kkz1KFjd/JI4k7//H3OOtliX26M8+dNp169B3LH2vjG2TzD55+34dlOyvFNv4Qyv5FRx/gI8pY/bZo0sbqydFRyi3lETGzzoyovqjbINJb3eMTPepQlqnKt0x3JLXWIKao4rkcVopJXHK3F4fnly9CoirJIHz9uhMVzxiIRO7ohIN2YrNny8+jaXjWTlwgmPixig76X1/RIkSIFX0fPaCQr1bVrV7cpd8S9x0P5y8yYPolKlCiq8kovaSCvcyIjEvIishLfV6Z8a3wZYLMwRCY4AqII9u03WE3AI33Id95JSkt/mMcTrGTQfVu0qVKj8kmQfDKjkrkSEZPGxZvC4EgosQeUqVKlAxBVkNEFMTUQm0TrIJrh3bt3LUYmrPNgP2ETkA7KVX6T65cjO0+ZaDRPStgtgvS2CFxmG/vixSvZSrKIk9l+tDfqFgm8I/4DMj2zdDrlzSACCMSEgDyPbt6InilXTMpF3vglIP2CBw8fUhqzVdcdSSDPF80/0jqfzKITxgtBipk0QuIkIP60Yurs46N/RUE7A6Iwy3Spju5Xsrhb48ateXKNpRYmSloZ0fnWhcIQHUGRBwRA4O0hIHb/cgNEAAFnEYDC4CzyqBcEQCCmBGT0QHwXxKHZVtDSohqFsHWsFgeFQSOBbxAAAd0QgMKgm1Px1goCheGtPfVoOAgkSAKaaZI94d9EWZAyoTDYI4t4EAABpxGQIVZtrminCYGK32oCUBje6tOPxoMACFgRwDRCVkCwCwIg4HwC0lnrw9NpIoCAswj07mV7IVFnyYN6QQAEQMCZBDDC4Ez6qBsEQAAEQAAEQAAEQAAEdE4AIww6P0EQDwRAAARAAARAAARAAAScSQAKgzPpo24QAAEQAAEQAAEQAAEQ0DkBKAw6P0EQDwRAAARAAARAAARAAAScScA96ModZ9aPukEABEAABEAABEAABEAABHRMAE7POj45EA0EQAAEQAAEQAAEQAAEnE0AJknOPgOoHwRAAARAAARAAARAAAR0TAAKg45PDkQDARAAARAAARAAARAAAWcTgMLg7DOA+kEABEAABEAABEAABEBAxwSgMOj45EA0EAABEAABEAABEAABEHA2ASgMzj4DqB8EQAAEQAAEQAAEQAAEdEwACoOOTw5EAwEQAAEQAAEQAAEQAAFnE4DC4OwzgPpBAARAAARAAARAAARAQMcEoDDo+ORANBAAARAAARAAARAAARBwNgEoDM4+A6gfBEAABEAABEAABEAABHRMAAqDjk8ORAMBEAABEAABEAABEAABZxOAwuDsM4D6QQAEQAAEQAAEQAAEQEDHBKAw6PjkQDQQAAEQAAEQAAEQAAEQcDYBKAzOPgOoHwRAAARAAARAAARAAAR0TAAKg45PDkQDARAAARAAARAAgcRK4OXLUAoNDXPYvJCQEIfpekqMiawGg4F27NhD8h2X4fnz529cvMgIheGNMaIAEAABEAABEAABEACB6BK4e/cetWj5OeXMVUR9OnXqSdYd25MnT6k8OfwK0vsf1KNlP66IbvG0bt2vVLJUVerXf6jNY0JevqSGjVqqPOfPX7CZxzry0qUgKluuGlWrXt86iVatXk81ajag7DkK0idNPqVDh45GymMd8cPS5eo4FxcX+v33E1S+Qg3rLGp/8OBvaOLEaWp71OiJSmZpm/WnXPnqpuP/PXueunbrS4UKl1MyVa7yYYz4aQVJm5s1b0e5cheFwqBBwTcIgAAIgAAIgAAIgEDcE5BOaP78+ejkiX20e9cmunPnLvXqPchU8cWLgaqjWqJEMTr15yEaOKA3BQSMpZ9/XmXKs2nTFlq8+EfTvrYhx0rHOkeObHT79h0t2uI7IGAMpU2bhgIDg+glKw9aOHXqL5o0+Tt69uyZFqW+RZnp/FUvJfPloKsWaSJH376DqXu3TnTm9GGqVq0KtWzVnv7++1+LfOY7jx8/obFjJ9OAr3uq6GfPXyhZzPNo29KGO6xgSWje7GOaNnWc+tSoUZXc3d1M+5MnjVZ5jh07QfXqNaFkyZLRou9n0onj+6h3ry40d+4ixUVlMvsXFham+JtFqc0HDx5SrdqNqGyZUrR792YoDNaAsA8CIAACIAACIAACIBA3BKSz3LBBXe5kd6dUqbwpW7Ys1KRJQzp44LCpwlWr1lGhQgWoV8+vKHXqVKoTPmhgH5oz93tTngsXLtHp03+Z9mVDTIJEGenfvycVLVLIIk3bkZGKvXsOqI62Fqd9BwcH0/79Byk83NJMSJSZfHnzUJvWzbSspu958xcrZaFOnZqqPR07tKMPPqhMy5bZHxHZvHkL5czpR5kzZzKVE50NP7/sVLZsKfXJkT07eXomM+2XKVNSFTH52++oXt3aNG5sABUrVoQyZsxA9et/SAsXzKArl6/S06dPLaoKDLxMxYpXsoiTHRkFun//AbVv/yll8s0IhSESIUSAAAiAAAiAAAiAAAjECYHkyT2pc+cvKImHh6n83Xv2U6lSxU37ogzky5vbtC8beXlfRg80m/8uXTrQhAkjLfLMnr2QO8g+1LhRZLMhyfjo0WMaNWoijeHOtIdHEotjZadSpfK0etUy1RHXEuWN/fZtu2jwkL5alMX3hQsXKW8+a1nz0IWLlyzyme+I70KBAu+ZR8Xa9pkzf1OFimUjlefvn4NmzfpWjTxESrQRIcpJlSoVaMDA4Tz6cRkKgw1GiAIBEAABEAABEAABEIgHAtu4M75hw/+oX78eptpEMfDhN+PmwdfXR70dv3Xrtnm0aVvMmqZNn03fjBhsirPemDJ1JpUsWYzKlyttnWR3f8jQUdS7T1dK5e0dKY+YKl2/fpMy+vhYpPmy0iJtsBfEzChzpoz2kl87XkYERJ6c/n6vXYb5gdOmjqfDh4+xv0QVcjdPwDYIgAAIgAAIgAAIgAAIxAeB//67qHwDJk0cSfIGXAteKbzoyRNL0xlt38sruZbN4nv8hKlUq1Y1KljQ9pv7K1ev0cKFP9C2restjnO0I87T9+7do3ZtW9nMljRpUpLPkydPLNJlP4WXl0Wc+c7de8GU0juleVSsbHt6elKSJB704OFDh+WdPcdO0V2MIyYyEiKKT82aDU3HbNy4ksQ864Nq9alWzQ/UyAQUBhMebIAACIAACIAACIAACMQHAXGqbdX6C2rZsgl9/HEDiyrFYfna1esWcVeuXKMMGdKbTGpu3rxF4g8hisaVK1dpKc86NHrUUJIRCwkXL10iybNl6w764P3K9O3kGcppWd78yyc0LFTlO8C+E27sPJw7V07Vcf6LnZWLFS2s0sawY3JlNlPavXuf2j91+gyFvAxRZUoecZzOzj4Y165ZycrKibTBXvDwcKdQnlJWC+++k1RNL/vixQulgGjx8v2EfQ58ozkaIeXmzOlPZ/89RxXKlzEvxmI7TerUirtEivnXzFnzTfsS5+bmqmZV8vFJbzL7gsIgZBBAAARAAARAAARAAATihYCsvdC+fRdlxz90SP9IdebiTu+8+YtIZvBxc3NT6XvYzyF3Ln9T3p69BtC5cxfo6JGd7KAbTOnTpyUxOdLCw4ePVCe8X78h7FC9TZkziWLRp2/EbEySd/K3M/iN/CN2sM5JCxb8QAEjxtIJnr1JHH1FTlE45CPhOc9m9OzZczafGkLTp02gihXL8bSw/rRn7wFq3PgjlUf+7eX92rVrmPatN9KkSa0cirV48WeQGY+OH/9DOTFr8dJ+mV62yScRb/+1NHvfhQsXoJ+Xr6LWrZuzn0ZEN198Mbp07UNbt6wjqb9Nm+aqCFEYFn6/1LSvlSv8vM3NsNh5BAEEQAAEQAAEQAAEQAAE4oVA/6+HGQoWKmvgN/2Ga9dumD7cQVb1s0mPoWixioapU2cZeHE3w+/HTxqyZstvOHjwiEm+/fsPGdau3Wjat94YOWqCoW27TtbRpv0XISGGdOn9DH/99Y8pLijosmHGzHmGcJ4myVbYuXOPIXfuYhZJp06dMWTOks+wj+UR+dnsyZDvvZKGe8HBFvnMd3r3HmjgdRLMowyft+9iYF8BA8/8pOrn0RHDV116G97LX8rA/hkWeWVn3rzFhg+q1YsUzz4ehsJFyhl69hxg4GljVVmsdBh4nQYDKwyR8rNZmCFL1vcixQtf30y5DStXrjGEhLw0RKgemkqBbxAAARAAARAAARAAARCIAwJX2XxHfAkklCpd1aKGP/84QD4+GZTZ0bRp49WbfHFkdnN1o549O5M2dagcVC4GjssWlTjYyZIlM3Xu1N5BjshJMjowZEg/NWIiazrINLBTea0EW07S2tFVq1aiceOnaLvqe+aMSdSjx9f0YZ1P1L6YJ733Xl5at/YnNSJgkdnBTrp0aWnxojk8q9M3aqE5d3cPniY2nFq1akoBwwdEOjJZsnepatWKkeKF74wZk/mYMcx+ALmIShEpFyJAAARAAARAAARAAARAwMkExN9A1iswN69xskg2qxfzIZl+VKYjjSqI70WhwmVpx/aNlD17VovsYgb1338XyJdNouw5eFsc4GBH6hEFzd8vhzJ5cpDVYZKsyQCFwSEiJIIACIAACIAACIAACIBA7BKYPn0OyWxJw4d9HbsFx1FprnFULooFARAAARAAARAAARAAARCwQaDjl5/xWgy+poXobGTRVRRGGHR1OiAMCIAACIAACIAACIAACOiLAEYY9HU+IA0IgAAIgAAIgAAIgAAI6IoAFAZdnQ4IAwIgAAIgAAIgAAIgAAL6IgCFQV/nA9KAAAiAAAiAAAiAAAiAgK4IQGHQ1emAMCAAAiAAAiAAAiAAAiCgLwJQGPR1PiANCIAACIAACIAACIAACOiKABQGXZ0OCAMCIAACIAACIAACIAAC+iIAhUFf5wPSgAAIgAAIgAAIgAAIgICuCEBh0NXpgDAgAAIgAAIgAAIgAAIgoC8CUBj0dT4gDQiAAAiAAAiAAAiAAAjoioB70JU7uhIIwoAACIAACIAACIAACIAACOiHAEYY9HMuIAkIgAAIgAAIgAAIgAAI6I4AFAbdnRIIBAIgAAIgAAIgAAIgAAL6IQCFQT/nApKAAAiAAAiAAAiAAAiAgO4IuBg46E4qCAQCIAACIAACIAACIAACIKALAhhh0MVpgBAgAAIgAAIgAAIgAAIgoE8CUBj0eV4gFQiAAAiAAAiAAAiAAAjogsD/AY29XIa8j3OsAAAAAElFTkSuQmCC;" vertex="1" parent="1">
          <mxGeometry x="260" y="490" width="780" height="763" as="geometry" />
        </mxCell>
      </root>
    </mxGraphModel>
  </diagram>
</mxfile>
